<svg width="1055" height="187" viewBox="0 0 1055 187" fill="none" xmlns="http://www.w3.org/2000/svg">
<path d="M60.9117 40.3526C42.9772 69.4415 36.9626 90.8755 22.4181 109.685C21.762 110.45 19.6842 113.184 17.169 116.356C10.0608 125.213 4.15556 132.322 0 137.133C0.109357 91.641 0.328097 46.1485 0.437454 0.765497C30.5106 0.437427 60.693 0.218714 90.9848 0C85.9544 5.68655 79.0649 13.779 71.6287 24.1678C69.5509 27.0111 65.5047 32.807 60.9117 40.3526Z" fill="#162049"/>
<path d="M38.8218 103.123C50.851 89.8913 58.3967 77.9714 63.3177 69.2228C65.5049 65.286 75.5657 46.586 83.0019 35.3222C86.2826 30.2918 88.7978 27.1205 90.7662 24.6053C93.9376 20.5591 95.5779 18.4813 97.3276 17.0597C98.4212 16.0754 106.951 9.07661 114.825 10.717C121.058 12.0292 120.839 17.2784 128.166 24.0585C136.149 31.3854 139.321 27.1205 161.301 36.9626C167.535 39.6965 172.018 42.2117 180.22 44.5082C185.141 45.8205 189.406 46.586 192.14 46.914C192.031 31.276 191.921 15.638 191.703 0H104.873C103.67 1.20292 101.921 2.84328 99.9522 4.92105C99.9522 4.92105 96.8902 7.98304 94.0469 11.045C81.1428 24.824 69.1136 48.7731 69.1136 48.7731C62.4428 62.0053 53.1475 79.2836 38.8218 103.123Z" fill="#162049"/>
<path d="M170.815 87.376L108.701 59.162C96.4527 73.5971 84.3141 88.0322 72.0662 102.577C69.879 102.577 56.1001 102.905 47.3515 113.622C37.9468 125.104 40.8995 140.633 45.7112 149.6C51.3977 160.208 61.0211 164.691 64.4112 166.222C78.0808 172.237 90.6568 168.956 94.2656 167.863C97.1088 170.706 99.8428 173.44 102.686 176.283C78.5182 175.408 59.8182 175.846 46.9141 176.392C38.0562 176.83 31.4948 177.158 23.9492 173.877C9.29539 167.206 3.06204 151.131 0.328125 141.617V187H192.14V108.263C202.747 109.904 213.246 111.544 223.853 113.184C206.247 104.545 188.531 95.9059 170.815 87.376ZM66.0515 162.832C52.6007 156.161 41.2276 138.774 47.3515 124.557C52.71 112.309 68.02 109.357 69.879 109.029C77.2059 127.619 84.5328 146.101 91.8597 164.691C88.2509 165.675 77.2059 168.3 66.0515 162.832Z" fill="#F5AF19"/>
<path d="M493.953 37H472.953V23C472.953 18.9 472.753 16.4 472.253 15.4C471.853 14.4 470.853 13.9 469.253 13.9C467.553 13.9 466.453 14.5 465.953 15.7C465.453 16.9 465.253 19.6 465.253 23.7V61.2C465.253 65.1 465.453 67.7 465.953 68.9C466.453 70.1 467.453 70.7 469.053 70.7C470.653 70.7 471.653 70.1 472.153 68.9C472.653 67.7 472.853 64.9 472.853 60.5V50.4H493.853V53.5C493.853 61.8 493.253 67.8 492.053 71.3C490.853 74.8 488.253 77.9 484.253 80.5C480.253 83.1 475.253 84.4 469.353 84.4C463.253 84.4 458.153 83.3 454.153 81.1C450.153 78.9 447.553 75.8 446.253 71.9C444.953 68 444.353 62 444.353 54.1V30.5C444.353 24.7 444.553 20.3 444.953 17.4C445.353 14.5 446.553 11.7 448.553 8.99998C450.553 6.29998 453.253 4.19998 456.753 2.59998C460.253 1.09998 464.253 0.299988 468.853 0.299988C475.053 0.299988 480.153 1.49998 484.153 3.89998C488.153 6.29998 490.853 9.29999 492.053 12.8C493.353 16.4 493.953 21.9 493.953 29.4V37Z" fill="#141C47"/>
<path d="M548.553 0.200012H563.353C573.253 0.200012 579.953 0.600018 583.453 1.30002C586.953 2.10002 589.853 4.00001 592.053 7.20001C594.253 10.3 595.353 15.3 595.353 22.2C595.353 28.5 594.553 32.7 593.053 34.8C591.453 37 588.453 38.3 583.853 38.7C588.053 39.7 590.753 41.1 592.253 42.8C593.653 44.5 594.553 46.1 594.953 47.6C595.253 49 595.453 53 595.453 59.5V80.8H575.953V54C575.953 49.7 575.653 47 574.953 46C574.253 45 572.453 44.5 569.553 44.5V80.9H548.553V0.200012ZM569.453 14V31.9C571.853 31.9 573.453 31.6 574.453 30.9C575.353 30.3 575.853 28.2 575.853 24.6V20.2C575.853 17.6 575.353 16 574.453 15.2C573.553 14.4 571.953 14 569.453 14Z" fill="#141C47"/>
<path d="M649.253 31.6H628.253V24.3C628.253 19.7 628.053 16.8 627.653 15.6C627.253 14.4 626.353 13.9 624.853 13.9C623.553 13.9 622.653 14.4 622.253 15.4C621.853 16.4 621.553 19 621.553 23.1V61.7C621.553 65.3 621.753 67.7 622.253 68.8C622.753 69.9 623.653 70.5 625.053 70.5C626.553 70.5 627.653 69.9 628.153 68.6C628.653 67.3 628.953 64.8 628.953 61V51.4H624.753V39.1H649.353V82.4H636.153L634.253 76.6C632.853 79.1 631.053 81 628.853 82.2C626.653 83.4 624.153 84.1 621.153 84.1C617.653 84.1 614.353 83.2 611.253 81.5C608.153 79.8 605.853 77.7 604.253 75.2C602.653 72.7 601.653 70 601.253 67.3C600.853 64.5 600.653 60.4 600.653 54.8V30.8C600.653 23.1 601.053 17.5 601.853 14C602.653 10.5 605.053 7.29999 608.953 4.39999C612.853 1.49999 617.953 0 624.253 0C630.353 0 635.453 1.3 639.553 3.8C643.653 6.3 646.253 9.3 647.453 12.8C648.653 16.3 649.253 21.3 649.253 27.9V31.6Z" fill="#141C47"/>
<path d="M702.953 49.1C702.953 57.2 702.753 62.9 702.353 66.3C701.953 69.7 700.753 72.7 698.753 75.5C696.753 78.3 694.053 80.4 690.653 81.9C687.253 83.4 683.253 84.1 678.653 84.1C674.353 84.1 670.453 83.4 667.053 82C663.653 80.6 660.853 78.5 658.753 75.6C656.653 72.8 655.453 69.7 655.053 66.4C654.653 63.1 654.453 57.3 654.453 49V35.2C654.453 27.1 654.653 21.4 655.053 18C655.453 14.6 656.653 11.6 658.653 8.80002C660.653 6.00002 663.353 3.90001 666.753 2.40001C670.153 0.900009 674.153 0.200012 678.753 0.200012C683.053 0.200012 686.953 0.900018 690.353 2.30002C693.753 3.70002 696.553 5.80001 698.653 8.70001C700.753 11.5 701.953 14.6 702.353 17.9C702.753 21.2 702.953 27 702.953 35.3V49.1ZM682.053 22.6C682.053 18.8 681.853 16.4 681.453 15.4C681.053 14.4 680.153 13.8 678.853 13.8C677.753 13.8 676.953 14.2 676.353 15.1C675.753 15.9 675.453 18.4 675.453 22.6V60.3C675.453 65 675.653 67.9 676.053 69C676.453 70.1 677.353 70.6 678.753 70.6C680.153 70.6 681.053 70 681.453 68.7C681.853 67.4 682.053 64.4 682.053 59.7V22.6Z" fill="#141C47"/>
<path d="M773.253 26.3H753.753V20.3C753.753 17.5 753.553 15.7 753.053 15C752.553 14.2 751.753 13.9 750.553 13.9C749.253 13.9 748.353 14.4 747.653 15.4C747.053 16.4 746.653 18 746.653 20.1C746.653 22.8 747.053 24.8 747.753 26.2C748.453 27.6 750.453 29.2 753.653 31.1C762.953 36.6 768.853 41.2 771.253 44.7C773.653 48.3 774.853 54 774.853 61.9C774.853 67.6 774.153 71.9 772.853 74.6C771.553 77.3 768.953 79.6 765.053 81.4C761.153 83.2 756.753 84.2 751.653 84.2C746.053 84.2 741.253 83.1 737.253 81C733.253 78.9 730.653 76.2 729.453 72.9C728.253 69.6 727.653 64.9 727.653 58.9V53.7H747.153V63.5C747.153 66.5 747.453 68.5 747.953 69.3C748.453 70.2 749.453 70.6 750.853 70.6C752.253 70.6 753.253 70.1 753.953 69C754.653 67.9 754.953 66.3 754.953 64.1C754.953 59.4 754.353 56.2 753.053 54.8C751.753 53.3 748.453 50.9 743.253 47.5C738.053 44 734.553 41.5 732.853 40C731.153 38.4 729.753 36.3 728.653 33.5C727.553 30.7 726.953 27.2 726.953 22.9C726.953 16.7 727.753 12.2 729.353 9.39998C730.953 6.49998 733.453 4.29998 736.953 2.69998C740.453 1.09998 744.753 0.299988 749.753 0.299988C755.153 0.299988 759.853 1.19998 763.653 2.89998C767.453 4.59998 770.053 6.89998 771.253 9.49998C772.453 12.2 773.153 16.7 773.153 23.1V26.3H773.253Z" fill="#141C47"/>
<path d="M780.753 1.90002H815.753V18.1H801.753V33.3H814.853V48.7H801.753V66.4H817.153V82.6H780.753V1.90002Z" fill="#141C47"/>
<path d="M822.953 1.90002H837.753C847.653 1.90002 854.353 2.30003 857.853 3.00003C861.353 3.80003 864.253 5.70002 866.453 8.90002C868.653 12 869.753 17 869.753 23.9C869.753 30.2 868.953 34.4 867.453 36.5C865.853 38.7 862.853 40 858.253 40.4C862.353 41.4 865.153 42.8 866.653 44.5C868.053 46.2 868.953 47.8 869.353 49.3C869.653 50.7 869.853 54.7 869.853 61.2V82.5H850.353V55.7C850.353 51.4 850.053 48.7 849.353 47.7C848.653 46.7 846.853 46.2 843.953 46.2V82.6H822.953V1.90002ZM843.853 15.7V33.6C846.253 33.6 847.853 33.3 848.853 32.6C849.753 32 850.253 29.9 850.253 26.3V21.9C850.253 19.3 849.753 17.7 848.853 16.9C847.953 16.1 846.353 15.7 843.853 15.7Z" fill="#141C47"/>
<path d="M930.153 1.90002L919.453 82.5H887.553L875.453 1.90002H897.553C900.153 24.1 901.953 42.9 903.053 58.3C904.153 42.8 905.253 29 906.553 16.9L908.053 1.90002H930.153Z" fill="#141C47"/>
<path d="M956.953 1.90002H935.953V82.5H956.953V1.90002Z" fill="#141C47"/>
<path d="M1012.25 37H991.253V23C991.253 18.9 991.053 16.4 990.553 15.4C990.153 14.4 989.153 13.9 987.553 13.9C985.853 13.9 984.753 14.5 984.253 15.7C983.753 16.9 983.553 19.6 983.553 23.7V61.2C983.553 65.1 983.753 67.7 984.253 68.9C984.753 70.1 985.753 70.7 987.353 70.7C988.953 70.7 989.953 70.1 990.453 68.9C990.953 67.7 991.153 64.9 991.153 60.5V50.4H1012.15V53.5C1012.15 61.8 1011.55 67.8 1010.35 71.3C1009.15 74.8 1006.55 77.9 1002.55 80.5C998.553 83.1 993.553 84.4 987.653 84.4C981.553 84.4 976.453 83.3 972.453 81.1C968.453 78.9 965.853 75.8 964.553 71.9C963.253 68 962.653 62 962.653 54.1V30.5C962.653 24.7 962.853 20.3 963.253 17.4C963.653 14.5 964.853 11.7 966.853 8.99998C968.853 6.29998 971.553 4.19998 975.053 2.59998C978.553 1.09998 982.553 0.299988 987.153 0.299988C993.353 0.299988 998.453 1.49998 1002.45 3.89998C1006.45 6.29998 1009.15 9.29999 1010.35 12.8C1011.65 16.4 1012.25 21.9 1012.25 29.4V37Z" fill="#141C47"/>
<path d="M1018.15 1.90002H1053.05V18.1H1039.05V33.3H1052.15V48.7H1039.05V66.4H1054.45V82.6H1018.15V1.90002Z" fill="#141C47"/>
<path d="M390.353 1.90002V82.6H369.453V48.7H363.153V82.6H342.153V1.90002H363.153V30.8H369.453V1.90002H390.353Z" fill="#141C47"/>
<path d="M411.653 66.1H396.453V82.5H411.653V66.1Z" fill="#141C47"/>
<path d="M314.353 66.1H299.153V82.5H314.353V66.1Z" fill="#141C47"/>
<path d="M264.353 65.4V82.5H246.153V17.9C246.153 11.3 247.153 6.80002 249.253 4.30002C250.753 2.90002 253.253 2.00001 256.853 1.60001C258.953 1.40001 261.453 1.20001 264.553 1.20001H271.953C276.453 1.20001 279.953 1.40001 282.153 1.90001C284.453 2.40001 286.053 3.10001 287.153 4.20001C289.353 6.60001 290.453 11.1 290.353 17.8V82.4H272.053V65.3H264.353V65.4ZM264.353 47.3H272.053V25.8C272.053 20.8 270.753 18.4 268.153 18.4C265.553 18.4 264.353 20.9 264.353 25.8V47.3Z" fill="#141C47"/>
<path d="M517.353 64.3V81.4001H499.153V16.8C499.153 10.2 500.153 5.70004 502.253 3.20004C503.753 1.80004 506.253 0.900046 509.853 0.500046C511.953 0.300046 514.453 0.100037 517.553 0.100037H524.953C529.453 0.100037 532.953 0.300049 535.153 0.800049C537.453 1.30005 539.053 2.00004 540.153 3.10004C542.353 5.50004 543.453 10 543.353 16.7V81.3H525.153V64.2H517.353V64.3ZM517.353 46.2H525.053V24.7C525.053 19.7 523.753 17.3 521.153 17.3C518.553 17.3 517.353 19.8 517.353 24.7V46.2Z" fill="#141C47"/>
<path d="M246.153 174.564V135.759H249.608V153.377H274.48V135.759H277.819V174.564H274.48V156.37H249.608V174.564H246.153Z" fill="#141C47"/>
<path d="M299.237 175.025C295.092 175.025 291.752 173.758 289.334 171.225C286.916 168.691 285.649 165.237 285.649 160.861C285.649 157.867 286.225 155.334 287.262 153.261C288.298 151.189 289.795 149.461 291.752 148.31C293.71 147.158 295.898 146.468 298.546 146.468C300.964 146.468 303.037 147.043 304.764 148.08C306.491 149.116 307.758 150.613 308.679 152.57C309.6 154.528 310.061 156.831 310.061 159.479V160.976H288.068V158.558H307.988L307.067 159.249C307.067 156.14 306.376 153.722 304.879 151.88C303.498 150.152 301.31 149.231 298.546 149.231C295.552 149.231 293.249 150.267 291.522 152.34C289.795 154.413 288.989 157.176 288.989 160.631V160.976C288.989 164.661 289.91 167.425 291.752 169.382C293.595 171.34 296.128 172.261 299.352 172.261C301.079 172.261 302.576 172.031 304.073 171.455C305.57 170.994 306.952 170.073 308.334 168.806L309.716 171.34C308.564 172.606 307.067 173.528 305.11 174.103C303.152 174.679 301.31 175.025 299.237 175.025Z" fill="#141C47"/>
<path d="M327.679 175.025C325.145 175.025 323.073 174.449 321.23 173.297C319.388 172.146 318.006 170.534 316.97 168.346C315.933 166.273 315.473 163.625 315.473 160.746C315.473 157.867 315.933 155.219 316.97 153.146C318.006 151.074 319.388 149.346 321.23 148.195C323.073 147.043 325.145 146.468 327.679 146.468C330.212 146.468 332.4 147.158 334.242 148.425C336.085 149.692 337.351 151.534 337.927 153.837H337.236L337.812 146.928H341.036C340.921 147.965 340.806 149.001 340.691 150.037C340.575 151.074 340.575 152.11 340.575 153.031V174.449H337.236V167.54H337.812C337.236 169.843 335.969 171.57 334.127 172.952C332.285 174.334 330.212 175.025 327.679 175.025ZM328.139 172.146C330.903 172.146 333.206 171.225 334.818 169.267C336.43 167.31 337.236 164.546 337.236 160.746C337.236 157.061 336.43 154.183 334.818 152.225C333.206 150.268 330.903 149.346 328.139 149.346C325.376 149.346 323.073 150.268 321.461 152.225C319.849 154.183 318.927 156.946 318.927 160.746C318.927 164.431 319.733 167.31 321.461 169.267C323.073 171.109 325.261 172.146 328.139 172.146Z" fill="#141C47"/>
<path d="M357.502 174.564L345.872 146.928H349.557L360.035 172.491H358.538L369.132 146.928H372.702L360.957 174.564H357.502Z" fill="#141C47"/>
<path d="M377.308 187L376.502 184.121C378.229 183.661 379.611 183.2 380.762 182.624C381.914 182.049 382.835 181.358 383.641 180.436C384.447 179.515 385.138 178.364 385.714 176.982L387.096 173.643V175.14L375.12 146.928H378.805L389.283 172.376H387.902L398.265 146.928H401.835L389.053 177.212C388.362 178.939 387.556 180.321 386.75 181.473C385.944 182.624 385.023 183.545 384.102 184.236C383.181 185.042 382.144 185.618 380.993 186.079C379.841 186.424 378.69 186.77 377.308 187Z" fill="#141C47"/>
<path d="M421.87 174.564V135.759H445.937V138.637H425.21V153.377H444.785V156.255H425.21V171.57H445.937V174.564H421.87Z" fill="#141C47"/>
<path d="M473.112 186.424V167.655H473.688C473.112 169.958 471.845 171.685 470.003 173.067C468.16 174.334 465.973 175.025 463.554 175.025C461.021 175.025 458.948 174.449 457.106 173.297C455.264 172.146 453.882 170.534 452.846 168.346C451.809 166.273 451.349 163.625 451.349 160.746C451.349 157.867 451.809 155.219 452.846 153.146C453.882 151.074 455.264 149.346 457.106 148.195C458.948 147.043 461.021 146.468 463.554 146.468C466.088 146.468 468.276 147.158 470.118 148.425C471.96 149.692 473.227 151.534 473.803 153.837H473.112L473.688 146.928H476.912C476.797 147.965 476.681 149.001 476.566 150.037C476.451 151.074 476.451 152.11 476.451 153.031V186.309H473.112V186.424ZM464.015 172.146C466.779 172.146 469.082 171.225 470.694 169.267C472.306 167.31 473.112 164.546 473.112 160.746C473.112 157.061 472.306 154.183 470.694 152.225C469.082 150.268 466.779 149.346 464.015 149.346C461.251 149.346 458.948 150.268 457.336 152.225C455.724 154.183 454.803 156.946 454.803 160.746C454.803 164.431 455.609 167.31 457.336 169.267C458.948 171.109 461.251 172.146 464.015 172.146Z" fill="#141C47"/>
<path d="M495.22 175.024C491.996 175.024 489.578 174.103 487.851 172.376C486.239 170.649 485.318 167.885 485.318 164.316V146.928H488.657V164.085C488.657 166.849 489.233 168.922 490.384 170.188C491.536 171.455 493.263 172.146 495.566 172.146C498.214 172.146 500.287 171.34 501.899 169.612C503.511 167.885 504.317 165.582 504.317 162.819V147.043H507.657V174.679H504.317V168.231H505.008C504.202 170.418 502.935 172.146 501.208 173.412C499.596 174.334 497.639 175.024 495.22 175.024Z" fill="#141C47"/>
<path d="M516.292 135.989H520.783V140.134H516.292V135.989ZM516.868 146.928H520.208V174.564H516.868V146.928Z" fill="#141C47"/>
<path d="M529.305 186.424V153.146C529.305 152.11 529.305 151.189 529.189 150.152C529.074 149.116 528.959 148.08 528.844 147.043H532.183L532.759 153.952H532.068C532.644 151.649 533.911 149.922 535.638 148.54C537.48 147.274 539.553 146.583 542.201 146.583C544.735 146.583 546.807 147.158 548.65 148.31C550.492 149.461 551.874 151.074 552.91 153.261C553.946 155.334 554.407 157.867 554.407 160.861C554.407 163.855 553.946 166.388 552.91 168.461C551.874 170.649 550.492 172.261 548.65 173.412C546.807 174.564 544.619 175.14 542.201 175.14C539.668 175.14 537.48 174.449 535.753 173.182C533.911 171.915 532.759 170.073 532.068 167.77H532.644V186.539H529.305V186.424ZM541.856 172.146C544.619 172.146 546.922 171.225 548.65 169.267C550.377 167.31 551.183 164.546 551.183 160.746C551.183 157.061 550.377 154.183 548.65 152.225C546.922 150.267 544.735 149.346 541.856 149.346C539.092 149.346 536.904 150.267 535.177 152.225C533.565 154.183 532.644 156.946 532.644 160.746C532.644 164.431 533.45 167.31 535.177 169.267C536.789 171.109 538.977 172.146 541.856 172.146Z" fill="#141C47"/>
<path d="M561.777 174.564V153.146C561.777 152.11 561.776 151.189 561.661 150.152C561.546 149.116 561.431 148.08 561.316 147.043H564.655L565.116 153.377H564.425C565.116 151.189 566.267 149.577 567.879 148.31C569.492 147.158 571.449 146.468 573.752 146.468C576.055 146.468 578.013 147.043 579.509 148.195C581.006 149.346 581.928 151.074 582.388 153.492H581.582C582.273 151.304 583.425 149.692 585.152 148.425C586.879 147.158 588.952 146.468 591.37 146.468C594.364 146.468 596.667 147.274 598.164 149.001C599.661 150.728 600.467 153.377 600.467 157.061V174.449H597.127V157.292C597.127 154.528 596.667 152.455 595.63 151.189C594.594 149.922 592.982 149.346 590.794 149.346C588.261 149.346 586.303 150.152 584.921 151.88C583.425 153.607 582.734 155.795 582.734 158.673V174.449H579.394V157.292C579.394 154.528 578.934 152.455 577.897 151.189C576.861 149.922 575.364 149.346 573.176 149.346C570.643 149.346 568.685 150.152 567.304 151.88C565.807 153.607 565.116 155.795 565.116 158.673V174.449H561.777V174.564Z" fill="#141C47"/>
<path d="M621.309 175.025C617.163 175.025 613.824 173.758 611.406 171.225C608.988 168.691 607.721 165.237 607.721 160.861C607.721 157.867 608.297 155.334 609.333 153.261C610.37 151.189 611.867 149.461 613.824 148.31C615.782 147.158 617.969 146.468 620.618 146.468C623.036 146.468 625.109 147.043 626.836 148.08C628.563 149.116 629.83 150.613 630.751 152.57C631.672 154.528 632.133 156.831 632.133 159.479V160.976H610.139V158.558H630.06L629.139 159.249C629.139 156.14 628.448 153.722 626.951 151.88C625.569 150.152 623.381 149.231 620.618 149.231C617.624 149.231 615.321 150.267 613.594 152.34C611.867 154.413 611.061 157.176 611.061 160.631V160.976C611.061 164.661 611.982 167.425 613.824 169.382C615.666 171.34 618.2 172.261 621.424 172.261C623.151 172.261 624.648 172.031 626.145 171.455C627.642 170.994 629.024 170.073 630.406 168.806L631.787 171.34C630.636 172.606 629.139 173.528 627.181 174.103C625.224 174.679 623.266 175.025 621.309 175.025Z" fill="#141C47"/>
<path d="M639.272 174.564V153.146C639.272 152.11 639.272 151.189 639.157 150.152C639.042 149.116 638.927 148.08 638.812 147.043H642.151L642.611 153.377H641.921C642.727 151.189 643.993 149.461 645.836 148.31C647.678 147.158 649.751 146.583 652.054 146.583C655.278 146.583 657.811 147.389 659.423 149.116C661.035 150.843 661.956 153.492 661.956 157.176V174.564H658.617V157.407C658.617 154.528 658.041 152.57 656.89 151.304C655.738 150.037 654.011 149.461 651.593 149.461C648.829 149.461 646.642 150.267 645.03 151.995C643.418 153.722 642.611 155.91 642.611 158.788V174.564H639.272Z" fill="#141C47"/>
<path d="M679.919 175.024C677.501 175.024 675.544 174.334 674.277 172.837C673.011 171.34 672.32 169.152 672.32 166.043V149.692H666.792V147.043H672.32V139.328L675.659 138.177V147.043H683.835V149.692H675.659V165.582C675.659 167.885 676.004 169.612 676.81 170.649C677.501 171.685 678.768 172.146 680.265 172.146C680.956 172.146 681.647 172.031 682.222 171.915C682.798 171.8 683.259 171.57 683.719 171.455V174.449C683.259 174.679 682.683 174.794 681.992 174.909C681.301 174.909 680.61 175.024 679.919 175.024Z" fill="#141C47"/>
<path d="M703.985 174.564V135.759H719.185C723.215 135.759 726.209 136.68 728.512 138.522C730.7 140.365 731.851 143.013 731.851 146.468C731.851 148.655 731.391 150.498 730.354 152.11C729.318 153.722 728.052 154.873 726.209 155.68C724.482 156.486 722.409 156.946 720.106 156.946L721.143 156.37H721.949C723.446 156.37 724.827 156.716 725.979 157.407C727.13 158.098 728.051 159.364 728.742 161.091L734.154 174.564H730.47L725.403 161.667C724.712 159.825 723.676 158.558 722.409 158.098C721.143 157.522 719.415 157.292 717.343 157.292H707.44V174.564H703.985ZM707.44 154.413H718.84C721.949 154.413 724.367 153.722 725.979 152.34C727.591 150.958 728.397 149.001 728.397 146.468C728.397 143.934 727.591 141.977 725.979 140.595C724.367 139.213 721.949 138.637 718.84 138.637H707.44V154.413Z" fill="#141C47"/>
<path d="M752.463 175.025C748.318 175.025 744.978 173.758 742.56 171.225C740.142 168.691 738.875 165.237 738.875 160.861C738.875 157.867 739.451 155.334 740.488 153.261C741.524 151.189 743.021 149.461 744.978 148.31C746.936 147.158 749.124 146.468 751.772 146.468C754.19 146.468 756.263 147.043 757.99 148.08C759.717 149.116 760.984 150.613 761.905 152.57C762.826 154.528 763.287 156.831 763.287 159.479V160.976H741.294V158.558H761.214L760.293 159.249C760.293 156.14 759.602 153.722 758.105 151.88C756.724 150.152 754.536 149.231 751.772 149.231C748.778 149.231 746.475 150.267 744.748 152.34C743.021 154.413 742.215 157.176 742.215 160.631V160.976C742.215 164.661 743.136 167.425 744.978 169.382C746.821 171.34 749.354 172.261 752.578 172.261C754.305 172.261 755.802 172.031 757.299 171.455C758.796 170.994 760.178 170.073 761.56 168.806L762.942 171.34C761.79 172.606 760.293 173.528 758.336 174.103C756.378 174.679 754.421 175.025 752.463 175.025Z" fill="#141C47"/>
<path d="M770.426 174.564V153.146C770.426 152.11 770.426 151.189 770.311 150.152C770.196 149.116 770.081 148.08 769.966 147.043H773.305L773.766 153.377H773.075C773.881 151.189 775.147 149.461 776.99 148.31C778.832 147.158 780.905 146.583 783.208 146.583C786.432 146.583 788.965 147.389 790.577 149.116C792.19 150.843 793.111 153.492 793.111 157.176V174.564H789.771V157.407C789.771 154.528 789.196 152.57 788.044 151.304C786.893 150.037 785.165 149.461 782.747 149.461C779.984 149.461 777.796 150.267 776.184 151.995C774.572 153.722 773.766 155.91 773.766 158.788V174.564H770.426Z" fill="#141C47"/>
<path d="M811.074 175.024C808.656 175.024 806.699 174.334 805.432 172.837C804.165 171.34 803.474 169.152 803.474 166.043V149.692H797.947V147.043H803.474V139.328L806.814 138.177V147.043H814.989V149.692H806.814V165.582C806.814 167.885 807.159 169.612 807.965 170.649C808.656 171.685 809.923 172.146 811.42 172.146C812.111 172.146 812.802 172.031 813.377 171.915C813.953 171.8 814.414 171.57 814.874 171.455V174.449C814.414 174.679 813.838 174.794 813.147 174.909C812.456 174.909 811.765 175.024 811.074 175.024Z" fill="#141C47"/>
<path d="M831.111 175.025C828.577 175.025 826.505 174.449 824.662 173.297C822.82 172.146 821.438 170.534 820.402 168.346C819.365 166.273 818.905 163.625 818.905 160.746C818.905 157.867 819.365 155.219 820.402 153.146C821.438 151.074 822.82 149.346 824.662 148.195C826.505 147.043 828.577 146.468 831.111 146.468C833.644 146.468 835.832 147.158 837.674 148.425C839.516 149.692 840.783 151.534 841.359 153.837H840.668L841.244 146.928H844.468C844.353 147.965 844.238 149.001 844.122 150.037C844.007 151.074 844.007 152.11 844.007 153.031V174.449H840.668V167.54H841.244C840.668 169.843 839.401 171.57 837.559 172.952C835.717 174.334 833.529 175.025 831.111 175.025ZM831.456 172.146C834.22 172.146 836.523 171.225 838.135 169.267C839.747 167.31 840.553 164.546 840.553 160.746C840.553 157.061 839.747 154.183 838.135 152.225C836.523 150.268 834.22 149.346 831.456 149.346C828.692 149.346 826.389 150.268 824.777 152.225C823.165 154.183 822.244 156.946 822.244 160.746C822.244 164.431 823.05 167.31 824.777 169.267C826.389 171.109 828.692 172.146 831.456 172.146Z" fill="#141C47"/>
<path d="M856.442 134.031H853.103V174.564H856.442V134.031Z" fill="#141C47"/>
<path d="M892.369 175.024C889.26 175.024 886.496 174.564 884.193 173.758C881.775 172.952 879.702 171.8 877.86 170.188L879.242 167.425C880.508 168.461 881.89 169.267 883.157 169.958C884.423 170.649 885.805 171.109 887.302 171.455C888.799 171.8 890.526 171.915 892.369 171.915C895.823 171.915 898.356 171.225 900.084 169.958C901.811 168.576 902.617 166.849 902.617 164.661C902.617 162.704 902.041 161.322 900.89 160.285C899.738 159.249 897.665 158.443 894.672 157.867L889.029 156.716C885.46 156.025 882.811 154.758 881.084 153.146C879.357 151.534 878.436 149.346 878.436 146.583C878.436 144.28 879.011 142.322 880.163 140.595C881.314 138.868 882.926 137.601 884.999 136.68C887.072 135.759 889.49 135.298 892.253 135.298C895.017 135.298 897.55 135.759 899.738 136.565C902.041 137.371 903.884 138.637 905.496 140.249L904.114 143.013C902.387 141.401 900.544 140.25 898.702 139.559C896.744 138.868 894.672 138.522 892.253 138.522C889.029 138.522 886.496 139.213 884.654 140.71C882.811 142.207 881.89 144.165 881.89 146.583C881.89 148.54 882.466 150.152 883.617 151.189C884.769 152.34 886.726 153.146 889.375 153.722L895.017 154.873C898.817 155.679 901.581 156.716 903.308 158.213C905.035 159.71 905.956 161.782 905.956 164.546C905.956 166.619 905.38 168.461 904.229 170.073C903.077 171.685 901.581 172.952 899.508 173.758C897.55 174.564 895.132 175.024 892.369 175.024Z" fill="#141C47"/>
<path d="M924.957 175.025C920.811 175.025 917.472 173.758 915.054 171.225C912.636 168.691 911.369 165.237 911.369 160.861C911.369 157.867 911.945 155.334 912.981 153.261C914.018 151.189 915.514 149.461 917.472 148.31C919.43 147.158 921.617 146.468 924.266 146.468C926.684 146.468 928.757 147.043 930.484 148.08C932.211 149.116 933.478 150.613 934.399 152.57C935.32 154.528 935.781 156.831 935.781 159.479V160.976H913.787V158.558H933.708L932.787 159.249C932.787 156.14 932.096 153.722 930.599 151.88C929.217 150.152 927.029 149.231 924.266 149.231C921.272 149.231 918.969 150.267 917.242 152.34C915.514 154.413 914.708 157.176 914.708 160.631V160.976C914.708 164.661 915.63 167.425 917.472 169.382C919.314 171.34 921.848 172.261 925.072 172.261C926.799 172.261 928.296 172.031 929.793 171.455C931.29 170.994 932.672 170.073 934.053 168.806L935.435 171.34C934.284 172.606 932.787 173.528 930.829 174.103C928.987 174.679 927.029 175.025 924.957 175.025Z" fill="#141C47"/>
<path d="M942.92 174.564V153.376C942.92 152.34 942.92 151.189 942.805 150.152C942.805 149.116 942.69 147.964 942.459 146.928H945.799L946.259 153.261H945.569C945.914 151.764 946.605 150.498 947.526 149.461C948.447 148.425 949.599 147.734 950.865 147.158C952.132 146.698 953.399 146.352 954.665 146.352C955.126 146.352 955.586 146.352 956.047 146.468C956.508 146.468 956.853 146.583 957.199 146.698L957.083 149.692C956.623 149.577 956.162 149.461 955.817 149.461C955.356 149.461 954.896 149.461 954.435 149.461C952.823 149.461 951.326 149.922 950.174 150.728C948.908 151.534 947.987 152.57 947.296 153.837C946.605 155.104 946.259 156.37 946.259 157.637V174.564H942.92Z" fill="#141C47"/>
<path d="M971.937 174.564L960.191 146.928H963.991L974.355 172.491H972.973L983.451 146.928H987.021L975.391 174.564H971.937Z" fill="#141C47"/>
<path d="M992.088 135.989H996.579V140.134H992.088V135.989ZM992.664 146.928H996.003V174.564H992.664V146.928Z" fill="#141C47"/>
<path d="M1016.15 175.025C1013.51 175.025 1011.32 174.449 1009.36 173.297C1007.4 172.146 1005.91 170.534 1004.87 168.346C1003.83 166.158 1003.26 163.625 1003.26 160.631C1003.26 157.637 1003.83 155.104 1004.87 153.031C1005.91 150.958 1007.4 149.346 1009.36 148.195C1011.32 147.043 1013.51 146.583 1016.15 146.583C1017.88 146.583 1019.61 146.928 1021.22 147.619C1022.83 148.31 1024.21 149.231 1025.25 150.383L1023.87 152.916C1022.72 151.764 1021.57 150.958 1020.18 150.383C1018.92 149.807 1017.54 149.577 1016.27 149.577C1013.28 149.577 1010.97 150.498 1009.25 152.455C1007.52 154.413 1006.71 157.176 1006.71 160.861C1006.71 164.546 1007.52 167.425 1009.25 169.382C1010.97 171.34 1013.28 172.376 1016.27 172.376C1017.54 172.376 1018.8 172.146 1020.18 171.57C1021.57 171.109 1022.72 170.188 1023.98 169.037L1025.37 171.57C1024.21 172.722 1022.83 173.643 1021.22 174.334C1019.49 174.679 1017.88 175.025 1016.15 175.025Z" fill="#141C47"/>
<path d="M1043.33 175.025C1039.18 175.025 1035.85 173.758 1033.43 171.225C1031.01 168.691 1029.74 165.237 1029.74 160.861C1029.74 157.867 1030.32 155.334 1031.35 153.261C1032.39 151.189 1033.89 149.461 1035.85 148.31C1037.8 147.158 1039.99 146.468 1042.64 146.468C1045.06 146.468 1047.13 147.043 1048.86 148.08C1050.58 149.116 1051.85 150.613 1052.77 152.57C1053.69 154.528 1054.15 156.831 1054.15 159.479V160.976H1032.16V158.558H1052.08L1051.16 159.249C1051.16 156.14 1050.47 153.722 1048.97 151.88C1047.59 150.152 1045.4 149.231 1042.64 149.231C1039.65 149.231 1037.34 150.267 1035.61 152.34C1033.89 154.413 1033.08 157.176 1033.08 160.631V160.976C1033.08 164.661 1034 167.425 1035.85 169.382C1037.69 171.34 1040.22 172.261 1043.44 172.261C1045.17 172.261 1046.67 172.031 1048.17 171.455C1049.66 170.994 1051.04 170.073 1052.43 168.806L1053.81 171.34C1052.66 172.606 1051.16 173.528 1049.2 174.103C1047.24 174.679 1045.29 175.025 1043.33 175.025Z" fill="#141C47"/>
<line x1="247.153" y1="110.5" x2="1054.15" y2="110.5" stroke="#F5AF19"/>
</svg>
