<svg width="144" height="51" viewBox="0 0 144 51" fill="none" xmlns="http://www.w3.org/2000/svg">
<g clip-path="url(#clip0_50_4415)">
<g clip-path="url(#clip1_50_4415)">
<g clip-path="url(#clip2_50_4415)">
<path d="M97.5724 18.1942L108.964 37.2547H95.8191L87.372 23.6595L87.3764 23.6553L83.5664 17.4973L101.567 2.26704H115.112L97.5724 18.1942Z" fill="#F8C30D"/>
<path d="M88.1515 18.1942L99.5434 37.2547H86.3982L77.9514 23.6595L77.9552 23.6555L74.1455 17.4973L92.1461 2.26704H105.691L88.1515 18.1942Z" fill="#F8C30D"/>
<path d="M32.3071 2.33425C33.9738 2.33582 35.6398 2.27083 37.3056 2.14778L37.9303 2.09856C39.3884 1.97624 40.8495 1.79894 42.3122 1.49331C42.379 1.47935 42.4268 1.42056 42.4268 1.35241C42.4268 1.28426 42.379 1.22547 42.3122 1.2115C40.8495 0.906345 39.3884 0.729127 37.9303 0.606816L37.3056 0.557597C35.6398 0.43454 33.9738 0.369516 32.3068 0.370564C30.6404 0.366368 28.9747 0.432804 27.3091 0.554783C25.7476 0.670136 24.1819 0.838031 22.6153 1.14766L22.302 1.2115C22.2353 1.2255 22.1875 1.28428 22.1875 1.35241C22.1875 1.42053 22.2353 1.47932 22.302 1.49331L22.6153 1.55716C24.1819 1.86684 25.7473 2.03524 27.3088 2.1506L27.9337 2.19363C29.3911 2.28807 30.8492 2.33868 32.3074 2.33453L32.3071 2.33425Z" fill="#F8C30D" stroke="#F8C30D" stroke-width="0.288" stroke-linejoin="round"/>
<path d="M24.1961 12.7003C25.8624 12.7019 27.5285 12.6369 29.1942 12.5138L29.8188 12.4646C31.277 12.3422 32.7383 12.1645 34.201 11.8594L34.2249 11.8523C34.2788 11.8308 34.3154 11.7782 34.3154 11.7184C34.3154 11.6503 34.2676 11.5915 34.201 11.5775C32.7383 11.2724 31.277 11.0947 29.8188 10.9723L29.1942 10.9231C27.5285 10.8 25.8624 10.735 24.1961 10.7366C22.7375 10.7325 21.2797 10.7828 19.8224 10.8772L19.1977 10.9203L19.1974 10.9205C17.6359 11.0359 16.071 11.204 14.5039 11.5137L14.1906 11.5775C14.124 11.5915 14.0762 11.6503 14.0762 11.7184C14.0762 11.7866 14.124 11.8454 14.1906 11.8594L14.5039 11.9232C16.071 12.2328 17.636 12.4008 19.1974 12.5166L19.8224 12.5597C21.2797 12.6538 22.7375 12.704 24.1961 12.7003Z" fill="#F8C30D" stroke="#F8C30D" stroke-width="0.288" stroke-linejoin="round"/>
<path d="M18.177 23.2376C19.8433 23.2387 21.5099 23.1739 23.1757 23.0509L23.8003 23.0013C25.2585 22.879 26.7196 22.7018 28.1819 22.3967L28.2058 22.3896C28.2598 22.3682 28.2964 22.3155 28.2964 22.2557C28.2964 22.1876 28.2486 22.1288 28.1819 22.1149C26.7196 21.8097 25.2585 21.632 23.8003 21.5096L23.1757 21.4604C21.5099 21.3373 19.8433 21.2723 18.177 21.2733C16.5106 21.2691 14.8446 21.3361 13.1792 21.4576C11.6177 21.5729 10.0524 21.7413 8.48541 22.051L8.1721 22.1149C8.10542 22.1289 8.05765 22.1876 8.05762 22.2557C8.05762 22.3239 8.1054 22.3827 8.1721 22.3967C9.84388 22.7475 11.5134 22.9303 13.1789 23.0534L13.8039 23.0964C15.2612 23.1909 16.7189 23.2413 18.177 23.2376Z" fill="#F8C30D" stroke="#F8C30D" stroke-width="0.288" stroke-linejoin="round"/>
<path d="M10.3254 33.7756C11.9917 33.7768 13.6583 33.712 15.3241 33.589L15.9487 33.5395C17.4069 33.4171 18.868 33.2399 20.3303 32.935L20.3542 32.9278C20.4082 32.9062 20.4448 32.8537 20.4448 32.7938C20.4448 32.7259 20.397 32.6668 20.3303 32.653C18.868 32.3477 17.4069 32.1703 15.9487 32.0476L15.3241 31.9987C13.6583 31.8754 11.9917 31.8103 10.3254 31.8115C8.659 31.8074 6.99301 31.8743 5.32762 31.9958C3.76611 32.111 2.20087 32.2795 0.633836 32.5891L0.320524 32.653C0.253857 32.6671 0.20607 32.7259 0.206055 32.7938C0.206055 32.8621 0.253846 32.9208 0.320524 32.935C1.9923 33.2857 3.6618 33.4686 5.32733 33.5916L5.95226 33.6345C7.40963 33.729 8.86737 33.7794 10.3254 33.7756Z" fill="#F8C30D" stroke="#F8C30D" stroke-width="0.288" stroke-linejoin="round"/>
<path d="M90.918 50.4183L92.6034 41.9923H94.9145L97.1656 47.4934H95.9378L100.271 41.9923H102.691L101.03 50.4183H98.4417L99.3204 45.8924L99.7296 45.8682L96.8165 49.66H95.5646L93.9276 45.8561L94.4091 45.8924L93.5062 50.4183H90.918Z" fill="#003875"/>
<path d="M106.905 50.611C106.031 50.611 105.272 50.4506 104.63 50.1294C103.996 49.8086 103.502 49.3671 103.149 48.8055C102.804 48.2355 102.632 47.5815 102.632 46.8434C102.632 46.0969 102.76 45.4189 103.017 44.8089C103.282 44.1909 103.651 43.6572 104.125 43.2079C104.598 42.7586 105.16 42.4133 105.81 42.1726C106.46 41.924 107.17 41.7996 107.941 41.7996C108.815 41.7996 109.569 41.96 110.203 42.2811C110.846 42.602 111.339 43.0475 111.684 43.6172C112.037 44.1791 112.214 44.8291 112.214 45.5672C112.214 46.3137 112.081 46.9957 111.816 47.6138C111.56 48.2234 111.195 48.7531 110.721 49.2026C110.248 49.6519 109.686 50.001 109.036 50.2498C108.386 50.4906 107.676 50.611 106.905 50.611ZM107.146 48.3119C107.499 48.3119 107.808 48.2436 108.073 48.1071C108.346 47.9709 108.578 47.7822 108.771 47.5415C108.964 47.3007 109.108 47.028 109.204 46.723C109.301 46.4099 109.349 46.081 109.349 45.7357C109.349 45.4068 109.281 45.122 109.144 44.8812C109.016 44.6324 108.827 44.4397 108.578 44.3035C108.338 44.167 108.045 44.0987 107.7 44.0987C107.354 44.0987 107.046 44.167 106.773 44.3035C106.5 44.4397 106.267 44.6283 106.075 44.8691C105.882 45.1099 105.738 45.3866 105.641 45.6997C105.545 46.0047 105.497 46.3296 105.497 46.6749C105.497 46.9957 105.561 47.2805 105.69 47.5294C105.826 47.7782 106.014 47.9709 106.255 48.1071C106.504 48.2436 106.801 48.3119 107.146 48.3119Z" fill="#003875"/>
<path d="M114.479 50.4183L112.602 41.9923H115.515L117.031 49.1304H115.178L119.607 41.9923H122.521L117.272 50.4183H114.479Z" fill="#003875"/>
<path d="M120.878 50.4183L122.563 41.9923H125.404L123.719 50.4183H120.878Z" fill="#003875"/>
<path d="M124.845 50.4183L126.53 41.9923H128.865L132.031 47.1201H131.044L132.067 41.9923H134.836L133.151 50.4183H130.816L127.65 45.2905H128.637L127.614 50.4183H124.845Z" fill="#003875"/>
<path d="M139.07 50.611C138.204 50.611 137.446 50.4546 136.796 50.1415C136.146 49.8204 135.64 49.3792 135.279 48.8173C134.926 48.2476 134.749 47.5896 134.749 46.8434C134.749 46.1049 134.877 45.427 135.134 44.8089C135.399 44.1909 135.772 43.6572 136.254 43.2079C136.735 42.7586 137.305 42.4133 137.963 42.1726C138.629 41.924 139.363 41.7996 140.166 41.7996C141.049 41.7996 141.807 41.9399 142.441 42.2209C143.083 42.4937 143.601 42.9029 143.994 43.4487L141.96 45.0255C141.687 44.6724 141.398 44.4316 141.093 44.3035C140.788 44.167 140.435 44.0987 140.034 44.0987C139.664 44.0987 139.331 44.1629 139.034 44.2914C138.738 44.4118 138.481 44.5883 138.264 44.821C138.055 45.0457 137.895 45.3144 137.783 45.6274C137.67 45.9405 137.614 46.2855 137.614 46.6628C137.614 46.9917 137.686 47.2805 137.831 47.5294C137.983 47.7782 138.196 47.9709 138.469 48.1071C138.75 48.2436 139.083 48.3119 139.468 48.3119C139.789 48.3119 140.11 48.2597 140.431 48.1555C140.752 48.0429 141.081 47.8545 141.418 47.5896L142.489 49.6119C142.048 49.933 141.534 50.1816 140.949 50.3581C140.362 50.5269 139.737 50.611 139.07 50.611ZM140.106 49.1785L140.744 45.9765H143.211L142.489 49.6119L140.106 49.1785Z" fill="#003875"/>
<path d="M27.2695 37.3342L49.5613 2.34691H61.1573L69.4543 37.3342H57.7085L52.0606 7.79492H56.6588L39.7149 37.3342H27.2695ZM37.5658 31.2363L42.264 22.7395H58.3583L59.6577 31.2363H37.5658Z" fill="#003875"/>
<path d="M79.4577 30.1367L81.207 16.8916L96.8014 2.34691H110.346L92.403 18.641L84.4058 25.5385L79.4577 30.1367ZM67.4121 37.3342L74.4094 2.34691H86.0051L79.0079 37.3342H67.4121ZM91.0535 37.3342L82.6064 23.7391L91.3533 15.842L104.199 37.3342H91.0535Z" fill="#003875"/>
<path d="M100.074 37.3342L122.366 2.34691H133.962L142.259 37.3342H130.513L124.865 7.79492H129.463L112.52 37.3342H100.074ZM110.371 31.2363L115.069 22.7395H131.163L132.462 31.2363H110.371Z" fill="#003875"/>
</g>
</g>
</g>
<defs>
<clipPath id="clip0_50_4415">
<rect width="144" height="50.69" fill="white"/>
</clipPath>
<clipPath id="clip1_50_4415">
<rect width="144" height="50.69" fill="white"/>
</clipPath>
<clipPath id="clip2_50_4415">
<rect width="144" height="50.688" fill="white" transform="translate(0 0.00100708)"/>
</clipPath>
</defs>
</svg>
