<svg width="544" height="167" viewBox="0 0 544 167" fill="none" xmlns="http://www.w3.org/2000/svg">
<path d="M50.2576 58.5764V139.396L68.0302 122.928V72.7641L94.9431 98.3527V127.488L110.431 142.689V94.0457L77.9322 64.4035V34.7613L50.2576 58.5764Z" fill="#5AA469"/>
<path fill-rule="evenodd" clip-rule="evenodd" d="M27.451 55.9946C23.9664 59.1826 16.8366 65.7017 16.1942 66.2746L17.107 72.6696L29.9464 84.0473L42.1605 74.836L39.8402 66.332L28.5143 73.3094L92.6752 17.4875L91.7507 33.9718L88.2018 33.7728L89.946 38.9456L92.7344 39.102L92.5358 42.6434C102.365 44.2097 91.6581 53.7593 90.6053 45.3264C88.8456 47.8362 91.0537 50.9341 94.0956 51.1047C97.5286 51.2972 102.084 44.7014 95.6771 41.0433L95.7764 39.2726L98.5648 39.429L101.384 34.512L97.5811 34.2988L98.824 12.1378L105.507 6.32306L104.579 4.74845L97.3955 5.86812L36.435 59.036L27.451 55.9946ZM93.2717 34.0571L94.2792 16.0919L96.7395 13.9514L95.6046 34.1879L93.2717 34.0571Z" fill="#5AA469"/>
<path fill-rule="evenodd" clip-rule="evenodd" d="M47.9725 75.0443L46.9569 76.0711V142.183L47.9725 141.169V75.0443Z" fill="#5AA469"/>
<path fill-rule="evenodd" clip-rule="evenodd" d="M45.9412 76.5644L44.9257 77.6119V144.463L45.9412 143.449V76.5644Z" fill="#5AA469"/>
<path fill-rule="evenodd" clip-rule="evenodd" d="M43.9101 78.0846L42.8945 79.1605V146.49L43.9101 145.476V78.0846Z" fill="#5AA469"/>
<path d="M103.322 52.2426L115.001 62.8834V90.7522L103.322 80.6181V52.2426Z" fill="#171717"/>
<path fill-rule="evenodd" clip-rule="evenodd" d="M93.6736 61.0328L103.322 52.2426V57.3096L93.6736 65.6813V61.0328Z" fill="#171717"/>
<path fill-rule="evenodd" clip-rule="evenodd" d="M103.322 59.8432L93.6736 68.6334V72.0041L94.3806 72.6683L103.322 64.9102V59.8432Z" fill="#171717"/>
<path fill-rule="evenodd" clip-rule="evenodd" d="M103.322 67.4438L95.9586 74.1521L98.6941 76.5261L103.322 72.5108V67.4438Z" fill="#171717"/>
<path d="M78.1873 125.715L30.7075 157.131H41.8198V154.09L78.1873 135.342L114.555 154.09V157.131H126.172L78.1873 125.715Z" fill="#171717"/>
<path d="M72.3464 140.409L77.4243 139.396V144.463H72.3464V140.409Z" fill="#171717"/>
<path d="M78.4398 139.396L83.5177 140.409V144.463H78.4398V139.396Z" fill="#171717"/>
<rect x="72.3464" y="145.476" width="5.07791" height="5.06705" fill="#171717"/>
<rect x="78.4398" y="145.476" width="5.07791" height="5.06705" fill="#171717"/>
<path d="M134.935 166.756C134.935 167.895 109.106 160.57 77.2454 160.57C45.3843 160.57 19.5558 167.895 19.5558 166.756C19.5558 165.617 45.3843 156.446 77.2454 156.446C109.106 156.446 134.935 165.617 134.935 166.756Z" fill="#171717"/>
<path d="M43.1847 13.9064C58.1717 6.01245 75.2215 3.02843 91.9276 5.30026L88.1096 8.66365C73.253 7.29111 61.8045 10.2403 48.5053 17.2452C32.7551 25.5412 20.8711 39.0155 13.9374 55.3851C7.00373 71.7546 5.95452 90.0128 10.9676 107.066C15.9806 124.119 22.6853 138.919 37.382 148.957L37.2084 149.21L34.114 151.286C19.2757 140.776 8.40401 125.577 3.27474 108.129C-1.98398 90.2399 -0.883353 71.087 6.39012 53.9152C13.6636 36.7435 26.6626 22.6089 43.1847 13.9064Z" fill="#171717"/>
<path d="M164.084 127.607V129.06L172.443 129.039C172.836 129.039 173.123 128.947 173.306 128.765C173.488 128.568 173.58 128.168 173.58 127.565C173.58 127.088 173.538 126.744 173.453 126.533C173.369 126.309 173.25 126.168 173.095 126.112C172.941 126.056 172.716 126.028 172.422 126.028H160.989V123.228H173.706C174.534 123.228 175.229 123.438 175.79 123.859C176.366 124.28 176.654 124.996 176.654 126.007V128.849C176.654 129.284 176.569 129.621 176.401 129.86C177.271 130.253 177.706 130.912 177.706 131.839V135.565C177.664 137.166 176.738 137.966 174.927 137.966H160.989V127.607H164.084ZM173.495 135.165C173.902 135.165 174.197 135.067 174.38 134.871C174.562 134.674 174.653 134.253 174.653 133.607C174.653 132.934 174.555 132.478 174.359 132.239C174.176 131.986 173.881 131.86 173.474 131.86H164.084V135.165H173.495ZM192.203 127.438V134.45C192.189 135.109 192.027 135.706 191.718 136.239C191.41 136.773 190.995 137.194 190.476 137.503C189.957 137.811 189.367 137.966 188.708 137.966H182.454C181.795 137.966 181.205 137.811 180.686 137.503C180.166 137.194 179.752 136.773 179.444 136.239C179.135 135.706 178.973 135.109 178.959 134.45V127.438H182.033V133.523C182.033 134 182.118 134.393 182.286 134.702C182.468 135.011 182.805 135.165 183.297 135.165H187.865C188.357 135.165 188.687 135.011 188.855 134.702C189.037 134.393 189.129 134 189.129 133.523V127.438H192.203ZM196.549 126.175H193.475V123.228H196.549V126.175ZM193.475 137.966V127.438H196.549V137.966H193.475ZM197.814 137.966V122.175H200.888V137.966H197.814ZM215.395 122.175V133.755H212.321V130.26H206.405C205.942 130.26 205.626 130.421 205.458 130.744C205.289 131.053 205.212 131.481 205.226 132.028V133.523C205.226 134 205.31 134.393 205.479 134.702C205.661 135.011 205.998 135.165 206.489 135.165H215.395V137.966H205.647C204.988 137.966 204.398 137.811 203.879 137.503C203.359 137.194 202.945 136.773 202.636 136.239C202.328 135.706 202.166 135.109 202.152 134.45V130.428C202.166 129.839 202.335 129.319 202.657 128.87C202.994 128.407 203.415 128.056 203.921 127.817C204.44 127.579 204.966 127.46 205.5 127.46H212.321V122.175H215.395ZM219.742 126.175H216.668V123.228H219.742V126.175ZM216.668 137.966V127.438H219.742V137.966H216.668ZM221.007 137.966V127.438H224.081V137.966H221.007ZM231.176 131.881C231.176 131.39 231.085 130.997 230.902 130.702C230.734 130.393 230.404 130.239 229.913 130.239H225.491V127.438H230.755C231.415 127.438 232.004 127.593 232.523 127.902C233.043 128.21 233.457 128.632 233.766 129.165C234.074 129.698 234.236 130.295 234.25 130.955V137.966H231.176V131.881ZM248.766 127.438V138.66C248.766 139.32 248.612 139.917 248.303 140.45C248.008 140.984 247.594 141.405 247.061 141.713C246.527 142.022 245.931 142.177 245.271 142.177H239.86V139.376H244.429C244.92 139.376 245.25 139.222 245.418 138.913C245.601 138.618 245.692 138.225 245.692 137.734V130.239H239.776C238.962 130.239 238.569 130.758 238.597 131.797V133.523C238.597 134 238.681 134.393 238.849 134.702C239.032 135.011 239.369 135.165 239.86 135.165H244.281V137.966H239.018C238.358 137.966 237.768 137.811 237.249 137.503C236.73 137.194 236.316 136.773 236.007 136.239C235.698 135.706 235.537 135.109 235.523 134.45V130.407C235.537 129.818 235.705 129.298 236.028 128.849C236.365 128.386 236.786 128.035 237.291 127.796C237.811 127.558 238.337 127.438 238.87 127.438H248.766ZM254.254 123.228H270.95V126.323H254.254V123.228ZM261.075 127.902H264.149V137.966H261.075V127.902ZM274.365 131.902L279.923 130.976C279.923 130.751 279.825 130.576 279.628 130.449C279.432 130.323 279.179 130.26 278.87 130.26H274.133C273.67 130.26 273.354 130.421 273.186 130.744C273.017 131.053 272.94 131.481 272.954 132.028V133.523C272.954 134 273.038 134.393 273.207 134.702C273.389 135.011 273.726 135.165 274.217 135.165H281.586V137.966H273.375C272.715 137.966 272.126 137.811 271.607 137.503C271.087 137.194 270.673 136.773 270.364 136.239C270.056 135.706 269.894 135.109 269.88 134.45V130.428C269.894 129.839 270.063 129.319 270.385 128.87C270.722 128.407 271.143 128.056 271.649 127.817C272.168 127.579 272.694 127.46 273.228 127.46H279.776C280.309 127.46 280.828 127.579 281.334 127.817C281.853 128.056 282.274 128.407 282.597 128.87C282.934 129.319 283.109 129.839 283.123 130.428L283.144 130.997C283.144 132.316 282.534 133.053 281.313 133.207L274.365 134.26V131.902ZM288.649 130.26C288.186 130.26 287.87 130.421 287.702 130.744C287.533 131.053 287.456 131.481 287.47 132.028V133.523C287.47 134 287.554 134.393 287.723 134.702C287.905 135.011 288.242 135.165 288.733 135.165H293.302C293.793 135.165 294.123 135.011 294.292 134.702C294.474 134.393 294.565 134 294.565 133.523H297.639V134.45C297.625 135.109 297.464 135.706 297.155 136.239C296.846 136.773 296.432 137.194 295.913 137.503C295.394 137.811 294.804 137.966 294.144 137.966H287.891C287.231 137.966 286.642 137.811 286.123 137.503C285.603 137.194 285.189 136.773 284.88 136.239C284.572 135.706 284.41 135.109 284.396 134.45V130.428C284.41 129.839 284.579 129.319 284.901 128.87C285.238 128.407 285.659 128.056 286.165 127.817C286.684 127.579 287.21 127.46 287.744 127.46H294.292C294.825 127.46 295.344 127.579 295.85 127.817C296.369 128.056 296.79 128.407 297.113 128.87C297.45 129.319 297.625 129.839 297.639 130.428V131.713H294.565C294.537 131.249 294.432 130.891 294.25 130.639C294.081 130.386 293.793 130.26 293.386 130.26H288.649ZM298.912 137.966V122.175H301.986V137.966H298.912ZM309.082 131.881C309.082 131.39 308.99 130.997 308.808 130.702C308.639 130.393 308.31 130.239 307.818 130.239H303.397V127.438H308.66C309.32 127.438 309.91 127.593 310.429 127.902C310.948 128.21 311.362 128.632 311.671 129.165C311.98 129.698 312.141 130.295 312.155 130.955V137.966H309.082V131.881ZM313.428 137.966V127.438H316.502V137.966H313.428ZM323.598 131.881C323.598 131.39 323.506 130.997 323.324 130.702C323.155 130.393 322.826 130.239 322.334 130.239H317.913V127.438H323.176C323.836 127.438 324.426 127.593 324.945 127.902C325.464 128.21 325.878 128.632 326.187 129.165C326.496 129.698 326.658 130.295 326.672 130.955V137.966H323.598V131.881ZM337.84 127.46C338.373 127.46 338.893 127.579 339.398 127.817C339.917 128.056 340.338 128.407 340.661 128.87C340.998 129.319 341.174 129.839 341.188 130.428V134.45C341.174 135.109 341.012 135.706 340.703 136.239C340.395 136.773 339.98 137.194 339.461 137.503C338.942 137.811 338.352 137.966 337.693 137.966H331.439C330.78 137.966 330.19 137.811 329.671 137.503C329.151 137.194 328.737 136.773 328.429 136.239C328.12 135.706 327.958 135.109 327.944 134.45V131.67H331.018V132.028V133.523C331.018 134 331.103 134.393 331.271 134.702C331.453 135.011 331.79 135.165 332.282 135.165H336.85C337.342 135.165 337.672 135.011 337.84 134.702C338.022 134.393 338.114 134 338.114 133.523V132.028C338.128 131.481 338.05 131.053 337.882 130.744C337.714 130.421 337.398 130.26 336.935 130.26H327.944C327.986 129.698 328.176 129.207 328.513 128.786C328.85 128.351 329.271 128.021 329.776 127.796C330.281 127.572 330.787 127.46 331.292 127.46H337.84ZM342.46 137.966V122.175H345.534V137.966H342.46ZM356.694 127.46C357.228 127.46 357.747 127.579 358.252 127.817C358.772 128.056 359.193 128.407 359.516 128.87C359.853 129.319 360.028 129.839 360.042 130.428V134.45C360.028 135.109 359.867 135.706 359.558 136.239C359.249 136.773 358.835 137.194 358.316 137.503C357.796 137.811 357.207 137.966 356.547 137.966H350.294C349.634 137.966 349.045 137.811 348.525 137.503C348.006 137.194 347.592 136.773 347.283 136.239C346.974 135.706 346.813 135.109 346.799 134.45V131.67H349.873V132.028V133.523C349.873 134 349.957 134.393 350.125 134.702C350.308 135.011 350.645 135.165 351.136 135.165H355.705C356.196 135.165 356.526 135.011 356.694 134.702C356.877 134.393 356.968 134 356.968 133.523V132.028C356.982 131.481 356.905 131.053 356.736 130.744C356.568 130.421 356.252 130.26 355.789 130.26H346.799C346.841 129.698 347.03 129.207 347.367 128.786C347.704 128.351 348.125 128.021 348.631 127.796C349.136 127.572 349.641 127.46 350.146 127.46H356.694ZM374.558 127.438V138.66C374.558 139.32 374.404 139.917 374.095 140.45C373.8 140.984 373.386 141.405 372.853 141.713C372.319 142.022 371.723 142.177 371.063 142.177H365.652V139.376H370.221C370.712 139.376 371.042 139.222 371.21 138.913C371.393 138.618 371.484 138.225 371.484 137.734V130.239H365.568C364.754 130.239 364.361 130.758 364.389 131.797V133.523C364.389 134 364.473 134.393 364.641 134.702C364.824 135.011 365.161 135.165 365.652 135.165H370.074V137.966H364.81C364.15 137.966 363.561 137.811 363.041 137.503C362.522 137.194 362.108 136.773 361.799 136.239C361.49 135.706 361.329 135.109 361.315 134.45V130.407C361.329 129.818 361.497 129.298 361.82 128.849C362.157 128.386 362.578 128.035 363.083 127.796C363.603 127.558 364.129 127.438 364.663 127.438H374.558ZM385.811 127.438H389.074L380.484 142.177H377.221L380.821 136.008L375.831 127.438H379.179L382.484 133.123L385.811 127.438ZM408.816 131.755H408.037V131.923V134.45C408.037 135.109 407.882 135.706 407.574 136.239C407.279 136.773 406.865 137.194 406.331 137.503C405.798 137.811 405.201 137.966 404.542 137.966H398.057C397.397 137.966 396.801 137.811 396.267 137.503C395.734 137.194 395.313 136.773 395.004 136.239C394.709 135.706 394.562 135.109 394.562 134.45V131.923C394.562 131.348 394.716 130.842 395.025 130.407C395.348 129.958 395.762 129.607 396.267 129.354C395.959 128.933 395.804 128.463 395.804 127.944V126.744C395.804 126.084 395.952 125.487 396.246 124.954C396.555 124.421 396.976 124 397.51 123.691C398.043 123.382 398.64 123.228 399.299 123.228H402.794V122.785H405.595V126.617H402.794V126.028H399.868C399.447 126.028 399.173 126.14 399.047 126.365C398.934 126.575 398.878 126.884 398.878 127.291C398.878 127.768 398.899 128.119 398.941 128.344C398.983 128.554 399.089 128.709 399.257 128.807C399.426 128.905 399.692 128.954 400.057 128.954H400.541V131.755H398.815C398.366 131.755 398.057 131.909 397.889 132.218C397.72 132.527 397.636 132.962 397.636 133.523C397.636 134 397.72 134.393 397.889 134.702C398.071 135.011 398.408 135.165 398.899 135.165H403.7C404.191 135.165 404.521 135.011 404.689 134.702C404.872 134.393 404.963 134 404.963 133.523C404.963 132.962 404.879 132.527 404.71 132.218C404.542 131.909 404.233 131.755 403.784 131.755H402.626V128.954H408.816V131.755ZM417.648 137.966C417.115 137.966 416.595 137.846 416.09 137.608C415.585 137.369 415.164 137.025 414.827 136.576C414.49 136.113 414.315 135.587 414.301 134.997V133.502V126.196C414.315 125.607 414.49 125.087 414.827 124.638C415.164 124.175 415.585 123.824 416.09 123.586C416.595 123.347 417.115 123.228 417.648 123.228H428.049C428.863 123.228 429.558 123.438 430.133 123.859C430.709 124.28 430.997 124.996 430.997 126.007V128.302H428.049V127.291C428.035 126.898 427.986 126.617 427.902 126.449C427.817 126.266 427.705 126.154 427.565 126.112C427.439 126.056 427.235 126.028 426.954 126.028H418.364C418.055 126.056 417.824 126.147 417.669 126.302C417.515 126.456 417.424 126.751 417.396 127.186C417.396 130.035 417.389 132.176 417.374 133.607C417.374 134.253 417.466 134.674 417.648 134.871C417.831 135.067 418.118 135.165 418.511 135.165H426.954C427.235 135.165 427.439 135.144 427.565 135.102C427.705 135.046 427.817 134.934 427.902 134.765C427.986 134.583 428.035 134.295 428.049 133.902V132.618H430.997V135.187C430.997 136.197 430.709 136.913 430.133 137.334C429.558 137.755 428.863 137.966 428.049 137.966H417.648ZM442.146 127.46C442.679 127.46 443.199 127.579 443.704 127.817C444.223 128.056 444.644 128.407 444.967 128.87C445.304 129.319 445.48 129.839 445.494 130.428V134.45C445.48 135.109 445.318 135.706 445.009 136.239C444.7 136.773 444.286 137.194 443.767 137.503C443.248 137.811 442.658 137.966 441.999 137.966H435.745C435.086 137.966 434.496 137.811 433.977 137.503C433.457 137.194 433.043 136.773 432.735 136.239C432.426 135.706 432.264 135.109 432.25 134.45V131.67H435.324V132.028V133.523C435.324 134 435.408 134.393 435.577 134.702C435.759 135.011 436.096 135.165 436.588 135.165H441.156C441.648 135.165 441.977 135.011 442.146 134.702C442.328 134.393 442.42 134 442.42 133.523V132.028C442.434 131.481 442.356 131.053 442.188 130.744C442.02 130.421 441.704 130.26 441.241 130.26H432.25C432.292 129.698 432.482 129.207 432.819 128.786C433.156 128.351 433.577 128.021 434.082 127.796C434.587 127.572 435.093 127.46 435.598 127.46H442.146ZM446.766 137.966V127.438H449.84V137.966H446.766ZM456.936 131.881C456.936 131.39 456.844 130.997 456.662 130.702C456.493 130.393 456.164 130.239 455.672 130.239H451.251V127.438H456.515C457.174 127.438 457.764 127.593 458.283 127.902C458.802 128.21 459.217 128.632 459.525 129.165C459.834 129.698 459.996 130.295 460.01 130.955V137.966H456.936V131.881ZM470.989 131.418C471.746 131.418 472.392 131.572 472.926 131.881C473.473 132.19 473.88 132.597 474.147 133.102C474.427 133.607 474.568 134.141 474.568 134.702C474.568 135.264 474.434 135.797 474.168 136.302C473.901 136.794 473.501 137.194 472.968 137.503C472.434 137.811 471.789 137.966 471.031 137.966H461.325V135.165H470.188C470.581 135.165 470.883 135.109 471.094 134.997C471.304 134.871 471.41 134.723 471.41 134.555C471.41 134.386 471.297 134.239 471.073 134.113C470.848 133.986 470.539 133.923 470.146 133.923H464.82C464.062 133.923 463.416 133.769 462.883 133.46C462.349 133.151 461.949 132.751 461.682 132.26C461.416 131.769 461.282 131.242 461.282 130.681C461.282 130.119 461.416 129.586 461.682 129.081C461.963 128.575 462.37 128.168 462.904 127.86C463.451 127.551 464.104 127.396 464.862 127.396H473.789V130.197H465.704C465.311 130.197 465.002 130.26 464.777 130.386C464.553 130.512 464.441 130.66 464.441 130.828C464.441 130.983 464.546 131.123 464.756 131.249C464.967 131.362 465.269 131.418 465.662 131.418H470.989ZM489.083 127.438V134.45C489.069 135.109 488.907 135.706 488.599 136.239C488.29 136.773 487.876 137.194 487.356 137.503C486.837 137.811 486.248 137.966 485.588 137.966H479.335C478.675 137.966 478.085 137.811 477.566 137.503C477.047 137.194 476.633 136.773 476.324 136.239C476.015 135.706 475.854 135.109 475.84 134.45V127.438H478.914V133.523C478.914 134 478.998 134.393 479.166 134.702C479.349 135.011 479.686 135.165 480.177 135.165H484.746C485.237 135.165 485.567 135.011 485.735 134.702C485.918 134.393 486.009 134 486.009 133.523V127.438H489.083ZM490.356 137.966V122.175H493.43V137.966H490.356ZM499.747 135.165V137.966H498.189C497.529 137.966 496.933 137.811 496.399 137.503C495.866 137.194 495.445 136.773 495.136 136.239C494.841 135.706 494.694 135.109 494.694 134.45V122.175H497.768V126.302H499.221V129.375H497.768V133.523C497.768 134 497.852 134.393 498.021 134.702C498.203 135.011 498.54 135.165 499.031 135.165H499.747ZM514.25 127.438V137.966H511.176V130.239H505.259C504.445 130.239 504.052 130.758 504.08 131.797V133.523C504.08 134 504.164 134.393 504.333 134.702C504.515 135.011 504.852 135.165 505.343 135.165H509.765V137.966H504.501C503.842 137.966 503.252 137.811 502.733 137.503C502.213 137.194 501.799 136.773 501.491 136.239C501.182 135.706 501.02 135.109 501.006 134.45V130.407C501.02 129.818 501.189 129.298 501.512 128.849C501.848 128.386 502.27 128.035 502.775 127.796C503.294 127.558 503.821 127.438 504.354 127.438H514.25ZM515.522 137.966V127.438H518.596V137.966H515.522ZM525.692 131.881C525.692 131.39 525.6 130.997 525.418 130.702C525.249 130.393 524.92 130.239 524.428 130.239H520.007V127.438H525.271C525.93 127.438 526.52 127.593 527.039 127.902C527.558 128.21 527.973 128.632 528.281 129.165C528.59 129.698 528.752 130.295 528.766 130.955V137.966H525.692V131.881ZM535.091 135.165V137.966H533.533C532.874 137.966 532.277 137.811 531.744 137.503C531.21 137.194 530.789 136.773 530.481 136.239C530.186 135.706 530.038 135.109 530.038 134.45V122.175H533.112V126.302H534.565V129.375H533.112V133.523C533.112 134 533.197 134.393 533.365 134.702C533.547 135.011 533.884 135.165 534.376 135.165H535.091Z" fill="#171717"/>
<path d="M182.574 36.1245V46.5641L242.639 46.4128C245.464 46.4128 247.531 45.7572 248.843 44.4459C250.154 43.0338 250.809 40.1591 250.809 35.8219C250.809 32.3925 250.507 29.9213 249.902 28.4084C249.296 26.7945 248.439 25.7859 247.33 25.3824C246.22 24.9789 244.606 24.7772 242.488 24.7772H160.333V4.65461H251.717C257.668 4.65461 262.661 6.16759 266.696 9.19355C270.831 12.2195 272.899 17.3636 272.899 24.6259V45.0511C272.899 48.1779 272.294 50.5987 271.083 52.3134C277.337 55.1376 280.464 59.8783 280.464 66.5354V93.3151C280.161 104.814 273.504 110.563 260.492 110.563H160.333V36.1245H182.574ZM250.204 90.4404C253.129 90.4404 255.247 89.7344 256.559 88.3223C257.87 86.9101 258.526 83.8842 258.526 79.2444C258.526 74.4029 257.82 71.1247 256.407 69.41C255.096 67.5945 252.978 66.6867 250.053 66.6867H182.574V90.4404H250.204ZM289.468 4.65461H409.447V26.8954H289.468V4.65461ZM338.489 38.2427H360.578V110.563H338.489V38.2427ZM442.512 110.563C438.679 110.563 434.947 109.706 431.316 107.991C427.685 106.276 424.659 103.805 422.238 100.577C419.817 97.2488 418.556 93.4664 418.456 89.23V78.4879V25.9876C418.556 21.7513 419.817 18.0192 422.238 14.7916C424.659 11.463 427.685 8.94139 431.316 7.22668C434.947 5.51197 438.679 4.65461 442.512 4.65461H517.253C523.103 4.65461 528.096 6.16759 532.231 9.19355C536.367 12.2195 538.435 17.3636 538.435 24.6259V41.1174H517.253V33.8551C517.152 31.0308 516.799 29.0135 516.194 27.8032C515.589 26.4919 514.782 25.685 513.773 25.3824C512.865 24.9789 511.403 24.7772 509.385 24.7772H447.656C445.437 24.9789 443.773 25.6346 442.663 26.7441C441.554 27.8536 440.898 29.9718 440.696 33.0986C440.696 53.5742 440.646 68.9561 440.545 79.2444C440.545 83.8842 441.201 86.9101 442.512 88.3223C443.823 89.7344 445.891 90.4404 448.715 90.4404H509.385C511.403 90.4404 512.865 90.2891 513.773 89.9865C514.782 89.5831 515.589 88.7761 516.194 87.5658C516.799 86.2545 517.152 84.1868 517.253 81.3626V72.1334H538.435V90.5917C538.435 97.854 536.367 102.998 532.231 106.024C528.096 109.05 523.103 110.563 517.253 110.563H442.512Z" fill="#5AA469"/>
<path d="M226.045 157.039L229.536 150.463H232.406L227.373 159.502V165.842H224.631V159.502L219.576 150.463H222.553L226.045 157.039ZM244.264 160.23C244.264 163.722 242.015 166.078 238.845 166.078C235.675 166.078 233.426 163.722 233.426 160.23C233.426 156.739 235.675 154.383 238.845 154.383C242.015 154.383 244.264 156.739 244.264 160.23ZM236.018 160.23C236.018 162.522 237.11 163.914 238.845 163.914C240.58 163.914 241.673 162.522 241.673 160.23C241.673 157.938 240.58 156.546 238.845 156.546C237.11 156.546 236.018 157.938 236.018 160.23ZM256.358 154.597V165.842H253.788V164.643C253.145 165.392 252.181 166.078 250.725 166.078C248.369 166.078 246.912 164.471 246.912 162.051V154.597H249.482V161.494C249.482 162.865 250.082 163.743 251.474 163.743C252.631 163.743 253.788 162.886 253.788 161.28V154.597H256.358ZM259.284 165.842V163.657H262.261V156.782H259.284V154.597H264.789V156.418C265.496 155.132 267.017 154.383 268.58 154.383C269.373 154.383 269.93 154.511 270.337 154.683V157.21C269.758 157.017 269.223 156.889 268.323 156.889C266.588 156.889 264.789 158.003 264.789 159.909V163.657H268.816V165.842H259.284ZM283.814 162.886L285.935 161.108C287.006 162.779 288.612 163.764 290.368 163.764C292.103 163.764 293.41 162.95 293.41 161.473C293.41 159.909 291.804 159.673 289.512 159.116C287.198 158.559 284.714 157.895 284.714 154.897C284.714 152.048 287.156 150.227 290.261 150.227C292.896 150.227 294.952 151.427 295.98 153.033L293.988 154.747C293.132 153.419 291.975 152.519 290.176 152.519C288.526 152.519 287.37 153.355 287.37 154.618C287.37 155.968 288.569 156.268 290.647 156.739C293.132 157.296 296.109 157.853 296.109 161.194C296.109 164.214 293.453 166.078 290.283 166.078C287.648 166.078 285.014 164.857 283.814 162.886ZM301.541 166.035C299.313 166.035 297.621 164.728 297.621 162.715C297.621 160.573 299.271 159.609 301.52 159.181L304.84 158.538V158.345C304.84 157.274 304.197 156.589 302.762 156.589C301.498 156.589 300.706 157.189 300.384 158.281L297.985 157.703C298.564 155.839 300.277 154.383 302.869 154.383C305.654 154.383 307.346 155.668 307.346 158.26V163.1C307.346 163.743 307.646 163.936 308.374 163.85V165.842C306.446 166.056 305.439 165.692 305.032 164.771C304.283 165.585 303.062 166.035 301.541 166.035ZM304.84 161.88V160.487L302.184 161.001C301.07 161.216 300.192 161.601 300.192 162.608C300.192 163.486 300.877 163.979 301.905 163.979C303.34 163.979 304.84 163.25 304.84 161.88ZM320.468 165.842H310.572V163.657H313.828V156.782H310.572V154.597H313.828C313.828 151.512 315.969 150.227 318.69 150.227C319.696 150.227 320.639 150.356 321.324 150.506V152.733C320.553 152.626 319.846 152.498 318.775 152.498C317.169 152.498 316.398 153.14 316.398 154.597H321.324V156.782H316.398V163.657H320.468V165.842ZM329.027 166.078C325.686 166.078 323.329 163.7 323.329 160.23C323.329 156.932 325.664 154.383 328.92 154.383C332.326 154.383 334.125 156.846 334.125 159.93V160.787H325.836C326.05 162.715 327.292 163.893 329.048 163.893C330.441 163.893 331.512 163.25 331.897 162.094L334.061 162.929C333.247 164.9 331.383 166.078 329.027 166.078ZM328.92 156.546C327.463 156.546 326.371 157.339 325.985 158.859H331.533C331.512 157.617 330.676 156.546 328.92 156.546ZM359.897 163.443V165.842H348.973V163.443H353.064V152.862H348.973V150.463H359.897V152.862H355.806V163.443H359.897ZM362.609 165.842V154.597H365.179V155.796C365.822 155.047 366.829 154.383 368.285 154.383C370.641 154.383 372.055 156.011 372.055 158.431V165.842H369.485V159.181C369.485 157.788 368.928 156.782 367.514 156.782C366.358 156.782 365.179 157.638 365.179 159.245V165.842H362.609ZM375.452 165.842V154.597H378.023V155.796C378.665 155.047 379.672 154.383 381.129 154.383C383.485 154.383 384.898 156.011 384.898 158.431V165.842H382.328V159.181C382.328 157.788 381.771 156.782 380.357 156.782C379.201 156.782 378.023 157.638 378.023 159.245V165.842H375.452ZM398.384 160.23C398.384 163.722 396.135 166.078 392.965 166.078C389.795 166.078 387.546 163.722 387.546 160.23C387.546 156.739 389.795 154.383 392.965 154.383C396.135 154.383 398.384 156.739 398.384 160.23ZM390.138 160.23C390.138 162.522 391.23 163.914 392.965 163.914C394.7 163.914 395.793 162.522 395.793 160.23C395.793 157.938 394.7 156.546 392.965 156.546C391.23 156.546 390.138 157.938 390.138 160.23ZM407.094 165.842H404.502L399.961 154.597H402.66L405.83 162.822L408.979 154.597H411.635L407.094 165.842ZM417.131 166.035C414.903 166.035 413.211 164.728 413.211 162.715C413.211 160.573 414.861 159.609 417.11 159.181L420.43 158.538V158.345C420.43 157.274 419.787 156.589 418.352 156.589C417.088 156.589 416.296 157.189 415.974 158.281L413.575 157.703C414.154 155.839 415.867 154.383 418.459 154.383C421.244 154.383 422.936 155.668 422.936 158.26V163.1C422.936 163.743 423.236 163.936 423.964 163.85V165.842C422.036 166.056 421.029 165.692 420.622 164.771C419.873 165.585 418.652 166.035 417.131 166.035ZM420.43 161.88V160.487L417.774 161.001C416.66 161.216 415.782 161.601 415.782 162.608C415.782 163.486 416.467 163.979 417.495 163.979C418.93 163.979 420.43 163.25 420.43 161.88ZM428.818 161.987V156.782H425.776V154.597H428.818V151.298H431.345V154.597H436.507V156.782H431.345V161.751C431.345 163.208 432.138 163.679 433.851 163.679C434.794 163.679 435.672 163.529 436.465 163.315V165.607C435.715 165.821 434.515 165.992 433.38 165.992C430.981 165.992 428.818 165.007 428.818 161.987ZM443.375 153.098V150.463H446.031V153.098H443.375ZM439.605 165.842V163.657H443.418V156.782H439.605V154.597H445.988V163.657H449.801V165.842H439.605ZM462.601 160.23C462.601 163.722 460.352 166.078 457.182 166.078C454.012 166.078 451.763 163.722 451.763 160.23C451.763 156.739 454.012 154.383 457.182 154.383C460.352 154.383 462.601 156.739 462.601 160.23ZM454.355 160.23C454.355 162.522 455.447 163.914 457.182 163.914C458.917 163.914 460.009 162.522 460.009 160.23C460.009 157.938 458.917 156.546 457.182 156.546C455.447 156.546 454.355 157.938 454.355 160.23ZM465.356 165.842V154.597H467.926V155.796C468.569 155.047 469.575 154.383 471.032 154.383C473.388 154.383 474.802 156.011 474.802 158.431V165.842H472.231V159.181C472.231 157.788 471.675 156.782 470.261 156.782C469.104 156.782 467.926 157.638 467.926 159.245V165.842H465.356Z" fill="#5AA469"/>
<path d="M160.357 159.032L214.536 159.032" stroke="#5AA469" stroke-width="2.51994" stroke-linecap="round"/>
<path d="M481.65 159.032L535.829 159.032" stroke="#5AA469" stroke-width="2.51994" stroke-linecap="round"/>
</svg>
