<svg width="334" height="71" viewBox="0 0 334 71" fill="none" xmlns="http://www.w3.org/2000/svg">
<path d="M24.9655 1.25658C25.7489 0.453112 26.8235 0 27.9457 0H57.4074L41.1747 16.6489H9.95801L24.9655 1.25658Z" fill="#0266E0"/>
<path d="M62.8181 0L77.8021 16.6489H46.5854L62.8181 0Z" fill="#0266E0"/>
<path d="M30.3528 34.5464L15.3688 17.8975L46.5855 17.8975L30.3528 34.5464Z" fill="#1B2A32"/>
<path d="M30.3767 1.25658C31.16 0.453112 32.2347 0 33.3568 0H62.8185L46.5858 16.6489H15.3691L30.3767 1.25658Z" fill="#1B2A32"/>
<path d="M24.9655 69.5012C25.7489 70.3047 26.8235 70.7578 27.9457 70.7578H57.4074L41.1747 54.1089H9.95801L24.9655 69.5012Z" fill="#0266E0"/>
<path d="M62.8181 70.7578L77.8021 54.1089H46.5854L62.8181 70.7578Z" fill="#0266E0"/>
<path d="M30.3528 36.2114L15.3688 52.8603L46.5855 52.8603L30.3528 36.2114Z" fill="#1B2A32"/>
<path d="M30.3767 69.5012C31.16 70.3047 32.2347 70.7578 33.3568 70.7578H62.8185L46.5858 54.1089H15.3691L30.3767 69.5012Z" fill="#1B2A32"/>
<path d="M9.52932 20.2016C10.342 19.3892 11.659 19.3892 12.4717 20.2016L21.3916 29.1205C22.2043 29.9332 22.2041 31.2511 21.3916 32.0639L19.6358 33.8188L16.252 30.435C15.7644 29.9474 14.974 29.9474 14.4863 30.435L10.8408 34.0795C10.3532 34.5671 10.3532 35.3585 10.8408 35.8461L14.4863 39.4906C14.974 39.9781 15.7644 39.9782 16.252 39.4906L19.4278 36.3139L21.3916 38.2778C22.2042 39.0904 22.2042 40.4084 21.3916 41.2211L12.4717 50.1401C11.659 50.9526 10.342 50.9527 9.52932 50.1401L0.609394 41.2211C-0.203115 40.4084 -0.203148 39.0904 0.609394 38.2778L3.71584 35.1703L0.609394 32.0639C-0.203061 31.2512 -0.203184 29.9332 0.609394 29.1205L9.52932 20.2016Z" fill="#1B2A32"/>
<path d="M53.4551 28.7188H54.957L57.5439 26.332L57.6631 26.2217H65.7764C65.9694 25.2721 66.8079 24.5568 67.8145 24.5566L68.0273 24.5674C69.0766 24.674 69.8953 25.5604 69.8955 26.6377L69.8848 26.8506C69.7782 27.9 68.892 28.7188 67.8145 28.7188L67.6016 28.708C66.691 28.6153 65.9542 27.936 65.7754 27.0537H57.9893L55.4033 29.4404L55.2832 29.5508H54.2871L56.9639 32.2275C57.6704 32.934 58.0698 33.8317 58.1621 34.7539H66.6162C66.8058 33.9204 67.5505 33.298 68.4414 33.2979C69.4758 33.2979 70.3144 34.1365 70.3145 35.1709C70.3145 36.2053 69.4758 37.0439 68.4414 37.0439C67.5498 37.0438 66.8051 36.4204 66.6162 35.5859H58.1621C58.0702 36.5089 57.6709 37.4072 56.9639 38.1143L54.7041 40.374H60.2783L60.3984 40.4844L62.9844 42.8711H70.7715C70.9506 41.9891 71.6872 41.3093 72.5977 41.2168L72.8105 41.2061C73.8878 41.2063 74.7742 42.0251 74.8809 43.0742L74.8916 43.2871C74.8916 44.3644 74.0726 45.2506 73.0234 45.3574L72.8105 45.3682C71.8036 45.3681 70.9632 44.6532 70.7705 43.7031H62.6582L62.5391 43.5928L59.9521 41.2061H53.8721L48.0449 47.0332L36.1826 35.1709L48.0449 23.3086L53.4551 28.7188ZM72.8105 42.0381C72.121 42.0381 71.5617 42.5976 71.5615 43.2871C71.5616 43.9767 72.121 44.5361 72.8105 44.5361C73.4999 44.5359 74.0595 43.9765 74.0596 43.2871C74.0594 42.5978 73.4999 42.0383 72.8105 42.0381ZM67.8145 25.3887C67.1313 25.3888 66.5766 25.9384 66.5664 26.6191V26.6553C66.5756 27.3369 67.1307 27.8866 67.8145 27.8867C68.5041 27.8867 69.0635 27.3273 69.0635 26.6377C69.0632 25.9483 68.5039 25.3887 67.8145 25.3887Z" fill="#0266E0"/>
<path d="M24.499 32.2275C26.1245 33.853 26.1245 36.4888 24.499 38.1143L15.5801 47.0332L3.71777 35.1709L15.5801 23.3086L24.499 32.2275ZM16.2549 30.4346C15.7673 29.9471 14.9769 29.9472 14.4893 30.4346L10.8438 34.0801C10.3564 34.5677 10.3563 35.3582 10.8438 35.8457L14.4893 39.4902C14.9769 39.9779 15.7672 39.9779 16.2549 39.4902L19.8994 35.8457C20.387 35.3581 20.387 34.5677 19.8994 34.0801L16.2549 30.4346Z" fill="#0266E0"/>
<path d="M231.907 46.1729H234.888C235.944 46.1729 236.818 46.3954 237.508 46.8404C238.204 47.2802 238.725 47.8902 239.07 48.6703C239.415 49.4504 239.588 50.3431 239.588 51.3483C239.588 52.3588 239.415 53.2541 239.07 54.0342C238.725 54.8143 238.204 55.4269 237.508 55.8719C236.818 56.317 235.944 56.5395 234.888 56.5395H231.907V46.1729ZM234.145 48.254V54.4583H234.685C235.251 54.4583 235.719 54.3248 236.089 54.0578C236.46 53.7855 236.737 53.4164 236.923 52.9504C237.113 52.4792 237.208 51.9504 237.208 51.364C237.208 50.7724 237.115 50.2436 236.93 49.7776C236.75 49.3064 236.472 48.9347 236.097 48.6624C235.721 48.3902 235.251 48.254 234.685 48.254H234.145Z" fill="#0266E0"/>
<path d="M222.96 46.1729H229.29V48.2305H225.198V50.3431H229.252V52.3379H225.198V54.4819H229.29V56.5395H222.96V46.1729Z" fill="#0266E0"/>
<path d="M216.252 48.2305H213.887V46.1729H220.854V48.2305H218.497V56.5395H216.252V48.2305Z" fill="#0266E0"/>
<path d="M209.644 46.1729H211.888V56.5395H209.644V46.1729Z" fill="#0266E0"/>
<path d="M206.867 46.1729V56.5395H204.63V50.4373L204.727 48.7017L204.345 50.6886L202.678 55.707H200.478L198.819 50.6886L198.443 48.7017L198.541 50.4373V56.5395H196.296V46.1729H199.449L201.446 53.0918L201.582 53.9164L201.717 53.0918L203.714 46.1729H206.867Z" fill="#0266E0"/>
<path d="M191.433 46.1729H193.678V56.5395H191.433V46.1729Z" fill="#0266E0"/>
<path d="M183.147 46.1729H185.392V54.4819H188.988V56.5395H183.147V46.1729Z" fill="#0266E0"/>
<path fill-rule="evenodd" clip-rule="evenodd" d="M91.5295 55.6747L180.222 55.6747V56.5386L91.5295 56.5386V55.6747Z" fill="#0266E0"/>
<path fill-rule="evenodd" clip-rule="evenodd" d="M90.2347 54.8594C89.5455 54.8594 88.9869 55.4181 88.9869 56.1073C88.9869 56.7964 89.5455 57.3551 90.2347 57.3551C90.9239 57.3551 91.4825 56.7964 91.4825 56.1073C91.4825 55.4181 90.9239 54.8594 90.2347 54.8594ZM90.2347 54.2355C89.201 54.2355 88.3629 55.0735 88.3629 56.1073C88.3629 57.141 89.201 57.979 90.2347 57.979C91.2684 57.979 92.1064 57.141 92.1064 56.1073C92.1064 55.0735 91.2684 54.2355 90.2347 54.2355Z" fill="#0266E0"/>
<path fill-rule="evenodd" clip-rule="evenodd" d="M102.186 51.0682L180.224 51.0682V51.9321L102.186 51.9321V51.0682Z" fill="#0266E0"/>
<ellipse cx="100.603" cy="51.5003" rx="1.87175" ry="1.87175" transform="rotate(-180 100.603 51.5003)" fill="#0266E0"/>
<path fill-rule="evenodd" clip-rule="evenodd" d="M91.5295 46.4608L180.222 46.4608V47.3247L91.5295 47.3247V46.4608Z" fill="#0266E0"/>
<path fill-rule="evenodd" clip-rule="evenodd" d="M90.2347 45.6451C89.5455 45.6451 88.9869 46.2037 88.9869 46.8929C88.9869 47.5821 89.5455 48.1407 90.2347 48.1407C90.9239 48.1407 91.4825 47.5821 91.4825 46.8929C91.4825 46.2037 90.9239 45.6451 90.2347 45.6451ZM90.2347 45.0211C89.201 45.0211 88.3629 45.8592 88.3629 46.8929C88.3629 47.9266 89.201 48.7646 90.2347 48.7646C91.2684 48.7646 92.1064 47.9266 92.1064 46.8929C92.1064 45.8592 91.2684 45.0211 90.2347 45.0211Z" fill="#0266E0"/>
<path fill-rule="evenodd" clip-rule="evenodd" d="M330.826 55.6752L242.134 55.6752V56.5391L330.826 56.5391V55.6752Z" fill="#0266E0"/>
<path fill-rule="evenodd" clip-rule="evenodd" d="M332.121 54.8599C332.81 54.8599 333.369 55.4186 333.369 56.1077C333.369 56.7969 332.81 57.3556 332.121 57.3556C331.432 57.3556 330.873 56.7969 330.873 56.1077C330.873 55.4186 331.432 54.8599 332.121 54.8599ZM332.121 54.236C333.155 54.236 333.993 55.074 333.993 56.1077C333.993 57.1415 333.155 57.9795 332.121 57.9795C331.088 57.9795 330.25 57.1415 330.25 56.1077C330.25 55.074 331.088 54.236 332.121 54.236Z" fill="#0266E0"/>
<path fill-rule="evenodd" clip-rule="evenodd" d="M320.173 51.0678L242.136 51.0678V51.9316L320.173 51.9316V51.0678Z" fill="#0266E0"/>
<ellipse cx="1.87175" cy="1.87175" rx="1.87175" ry="1.87175" transform="matrix(1 -8.74228e-08 -8.74228e-08 -1 319.885 53.3716)" fill="#0266E0"/>
<path fill-rule="evenodd" clip-rule="evenodd" d="M330.826 46.4603L242.134 46.4603V47.3242L330.826 47.3242V46.4603Z" fill="#0266E0"/>
<path fill-rule="evenodd" clip-rule="evenodd" d="M332.121 45.6446C332.81 45.6446 333.369 46.2032 333.369 46.8924C333.369 47.5816 332.81 48.1402 332.121 48.1402C331.432 48.1402 330.873 47.5816 330.873 46.8924C330.873 46.2032 331.432 45.6446 332.121 45.6446ZM332.121 45.0207C333.155 45.0207 333.993 45.8587 333.993 46.8924C333.993 47.9261 333.155 48.7642 332.121 48.7642C331.088 48.7642 330.25 47.9261 330.25 46.8924C330.25 45.8587 331.088 45.0207 332.121 45.0207Z" fill="#0266E0"/>
<path d="M329.247 20.8833C330.024 20.8833 330.735 20.9505 331.378 21.0849C332.021 21.2097 332.558 21.3536 332.99 21.5168C333.432 21.68 333.715 21.8144 333.84 21.92L332.414 24.4972C332.232 24.3628 331.891 24.1901 331.392 23.9789C330.902 23.7677 330.355 23.6621 329.751 23.6621C329.29 23.6621 328.901 23.7341 328.584 23.8781C328.268 24.0125 328.109 24.2285 328.109 24.526C328.109 24.8236 328.282 25.0635 328.628 25.2459C328.983 25.4187 329.491 25.5723 330.154 25.7067C330.73 25.8218 331.315 26.0042 331.91 26.2538C332.505 26.5034 333 26.8729 333.393 27.3624C333.797 27.8424 333.998 28.4855 333.998 29.2918C333.998 30.1173 333.821 30.7988 333.465 31.3363C333.11 31.8738 332.64 32.2914 332.054 32.5889C331.469 32.8865 330.835 33.0929 330.154 33.2081C329.472 33.3328 328.81 33.3952 328.167 33.3952C327.265 33.3952 326.477 33.3137 325.806 33.1505C325.143 32.9873 324.606 32.8001 324.193 32.5889C323.78 32.3778 323.492 32.2098 323.329 32.085L324.74 29.2054C324.99 29.4166 325.398 29.6565 325.964 29.9253C326.53 30.1845 327.13 30.314 327.764 30.314C328.378 30.314 328.853 30.2229 329.189 30.0405C329.525 29.8581 329.693 29.6181 329.693 29.3206C329.693 29.0806 329.611 28.8886 329.448 28.7447C329.285 28.6007 329.055 28.4759 328.757 28.3703C328.46 28.2647 328.1 28.1687 327.677 28.0823C327.293 28.0056 326.885 27.8856 326.453 27.7224C326.022 27.5592 325.614 27.3384 325.23 27.0601C324.846 26.7721 324.534 26.4122 324.294 25.9802C324.054 25.5483 323.934 25.0252 323.934 24.4108C323.934 23.6237 324.188 22.971 324.697 22.4527C325.206 21.9344 325.863 21.5456 326.669 21.2864C327.476 21.0177 328.335 20.8833 329.247 20.8833Z" fill="#1B2A32"/>
<path d="M313.091 28.0679C313.12 28.4903 313.254 28.8646 313.494 29.191C313.734 29.5174 314.066 29.7765 314.488 29.9685C314.92 30.1509 315.429 30.2421 316.014 30.2421C316.571 30.2421 317.07 30.1845 317.511 30.0693C317.963 29.9541 318.351 29.8101 318.678 29.6373C319.014 29.4646 319.273 29.287 319.455 29.1046L321.154 31.8114C320.914 32.0706 320.573 32.325 320.132 32.5745C319.7 32.8145 319.129 33.0113 318.419 33.1649C317.708 33.3185 316.811 33.3952 315.726 33.3952C314.421 33.3952 313.259 33.1505 312.242 32.6609C311.224 32.1714 310.423 31.4515 309.837 30.5012C309.252 29.551 308.959 28.3895 308.959 27.0169C308.959 25.865 309.209 24.8284 309.708 23.9069C310.216 22.9758 310.951 22.2415 311.911 21.704C312.87 21.1569 314.027 20.8833 315.381 20.8833C316.667 20.8833 317.78 21.1185 318.721 21.5888C319.671 22.0591 320.401 22.7599 320.909 23.6909C321.428 24.6124 321.687 25.7643 321.687 27.1465C321.687 27.2233 321.682 27.3768 321.672 27.6072C321.672 27.8376 321.663 27.9912 321.644 28.0679H313.091ZM317.569 25.7787C317.559 25.4715 317.478 25.1691 317.324 24.8716C317.171 24.5644 316.94 24.3148 316.633 24.1229C316.326 23.9213 315.932 23.8205 315.453 23.8205C314.973 23.8205 314.565 23.9165 314.229 24.1085C313.902 24.2908 313.653 24.5308 313.48 24.8284C313.307 25.1259 313.211 25.4427 313.192 25.7787H317.569Z" fill="#1B2A32"/>
<path d="M302.216 33.0498V21.229H306.593V33.0498H302.216ZM304.462 18.7957C303.771 18.7957 303.186 18.5557 302.706 18.0758C302.226 17.5863 301.986 17.0056 301.986 16.3336C301.986 15.6617 302.226 15.081 302.706 14.5915C303.195 14.0923 303.781 13.8428 304.462 13.8428C304.913 13.8428 305.326 13.958 305.701 14.1883C306.075 14.4091 306.377 14.7067 306.608 15.081C306.838 15.4554 306.953 15.8729 306.953 16.3336C306.953 17.0056 306.708 17.5863 306.219 18.0758C305.729 18.5557 305.144 18.7957 304.462 18.7957Z" fill="#1B2A32"/>
<path d="M291.995 39.3704C291.17 39.3704 290.349 39.2985 289.533 39.1545C288.727 39.0105 287.973 38.7657 287.273 38.4202C286.572 38.0746 285.981 37.5995 285.502 36.9948L288.064 34.3311C288.285 34.5903 288.554 34.8446 288.871 35.0942C289.197 35.3438 289.595 35.5502 290.066 35.7133C290.546 35.8765 291.126 35.9581 291.808 35.9581C292.441 35.9581 292.993 35.8477 293.464 35.6269C293.934 35.4062 294.299 35.0846 294.558 34.6623C294.827 34.2399 294.961 33.7264 294.961 33.1217V32.8337H299.266V33.3808C299.266 34.6863 298.94 35.7853 298.287 36.678C297.644 37.5707 296.775 38.2426 295.681 38.6937C294.587 39.1449 293.358 39.3704 291.995 39.3704ZM294.961 33.0497V31.1347C294.875 31.3267 294.654 31.6051 294.299 31.9698C293.953 32.3346 293.492 32.6657 292.917 32.9633C292.341 33.2513 291.669 33.3952 290.901 33.3952C289.749 33.3952 288.741 33.1169 287.877 32.5601C287.013 31.9938 286.341 31.2403 285.862 30.2997C285.382 29.3494 285.142 28.2983 285.142 27.1465C285.142 25.9946 285.382 24.9484 285.862 24.0077C286.341 23.0574 287.013 22.2991 287.877 21.7328C288.741 21.1665 289.749 20.8833 290.901 20.8833C291.64 20.8833 292.288 21.0033 292.845 21.2433C293.401 21.4736 293.852 21.752 294.198 22.0783C294.544 22.3951 294.784 22.6879 294.918 22.9566V21.2289H299.266V33.0497H294.961ZM289.432 27.1465C289.432 27.684 289.557 28.1687 289.807 28.6007C290.056 29.023 290.387 29.3542 290.8 29.5941C291.222 29.8341 291.688 29.9541 292.197 29.9541C292.725 29.9541 293.19 29.8341 293.593 29.5941C293.996 29.3542 294.313 29.023 294.544 28.6007C294.784 28.1687 294.903 27.684 294.903 27.1465C294.903 26.6089 294.784 26.129 294.544 25.7067C294.313 25.2747 293.996 24.9388 293.593 24.6988C293.19 24.4492 292.725 24.3244 292.197 24.3244C291.688 24.3244 291.222 24.4492 290.8 24.6988C290.387 24.9388 290.056 25.2747 289.807 25.7067C289.557 26.129 289.432 26.6089 289.432 27.1465Z" fill="#1B2A32"/>
<path d="M276.93 33.3952C275.635 33.3952 274.483 33.1313 273.475 32.6033C272.477 32.0658 271.69 31.3315 271.114 30.4004C270.547 29.4598 270.264 28.3847 270.264 27.1753C270.264 25.9658 270.547 24.8908 271.114 23.9501C271.69 22.9998 272.477 22.2511 273.475 21.704C274.483 21.1569 275.635 20.8833 276.93 20.8833C278.226 20.8833 279.369 21.1569 280.357 21.704C281.346 22.2511 282.119 22.9998 282.675 23.9501C283.232 24.8908 283.51 25.9658 283.51 27.1753C283.51 28.3847 283.232 29.4598 282.675 30.4004C282.119 31.3315 281.346 32.0658 280.357 32.6033C279.369 33.1313 278.226 33.3952 276.93 33.3952ZM276.93 29.7957C277.43 29.7957 277.862 29.6853 278.226 29.4646C278.591 29.2438 278.874 28.9318 279.076 28.5287C279.277 28.1255 279.378 27.6696 279.378 27.1609C279.378 26.6425 279.277 26.1818 279.076 25.7787C278.874 25.3755 278.591 25.0587 278.226 24.8284C277.862 24.598 277.43 24.4828 276.93 24.4828C276.431 24.4828 275.995 24.598 275.62 24.8284C275.255 25.0587 274.968 25.3755 274.756 25.7787C274.555 26.1818 274.454 26.6425 274.454 27.1609C274.454 27.6696 274.555 28.1255 274.756 28.5287C274.968 28.9318 275.255 29.2438 275.62 29.4646C275.995 29.6853 276.431 29.7957 276.93 29.7957Z" fill="#1B2A32"/>
<path d="M268.092 33.0496H263.7V13.2378H268.092V33.0496Z" fill="#1B2A32"/>
<path d="M254.857 33.3952C253.561 33.3952 252.41 33.1313 251.402 32.6033C250.403 32.0658 249.616 31.3315 249.04 30.4004C248.474 29.4598 248.191 28.3847 248.191 27.1753C248.191 25.9658 248.474 24.8908 249.04 23.9501C249.616 22.9998 250.403 22.2511 251.402 21.704C252.41 21.1569 253.561 20.8833 254.857 20.8833C256.153 20.8833 257.295 21.1569 258.284 21.704C259.273 22.2511 260.045 22.9998 260.602 23.9501C261.159 24.8908 261.437 25.9658 261.437 27.1753C261.437 28.3847 261.159 29.4598 260.602 30.4004C260.045 31.3315 259.273 32.0658 258.284 32.6033C257.295 33.1313 256.153 33.3952 254.857 33.3952ZM254.857 29.7957C255.356 29.7957 255.788 29.6853 256.153 29.4646C256.518 29.2438 256.801 28.9318 257.003 28.5287C257.204 28.1255 257.305 27.6696 257.305 27.1609C257.305 26.6425 257.204 26.1818 257.003 25.7787C256.801 25.3755 256.518 25.0587 256.153 24.8284C255.788 24.598 255.356 24.4828 254.857 24.4828C254.358 24.4828 253.921 24.598 253.547 24.8284C253.182 25.0587 252.894 25.3755 252.683 25.7787C252.482 26.1818 252.381 26.6425 252.381 27.1609C252.381 27.6696 252.482 28.1255 252.683 28.5287C252.894 28.9318 253.182 29.2438 253.547 29.4646C253.921 29.6853 254.358 29.7957 254.857 29.7957Z" fill="#1B2A32"/>
<path d="M241.17 20.8833C241.995 20.8833 242.802 21.0513 243.589 21.3872C244.376 21.7232 245.024 22.2559 245.532 22.9854C246.041 23.7053 246.295 24.6556 246.295 25.8362V33.0497H241.904V26.5561C241.904 25.7115 241.702 25.0779 241.299 24.6556C240.896 24.2237 240.368 24.0077 239.716 24.0077C239.284 24.0077 238.876 24.1229 238.492 24.3532C238.117 24.574 237.81 24.8908 237.57 25.3035C237.34 25.7067 237.225 26.1722 237.225 26.7001V33.0497H232.848V21.2289H237.225V22.971C237.34 22.6543 237.58 22.3375 237.945 22.0208C238.319 21.6944 238.784 21.4256 239.341 21.2145C239.908 20.9937 240.517 20.8833 241.17 20.8833Z" fill="#1B2A32"/>
<path d="M225.326 20.8832C226.151 20.8832 226.957 21.0512 227.744 21.3871C228.531 21.7231 229.179 22.2558 229.688 22.9853C230.197 23.7052 230.451 24.6555 230.451 25.8361V33.0496H226.074V26.556C226.074 25.7113 225.882 25.0778 225.498 24.6555C225.124 24.2235 224.61 24.0076 223.958 24.0076C223.526 24.0076 223.113 24.1227 222.719 24.3531C222.326 24.5739 222.004 24.8906 221.755 25.3034C221.515 25.7065 221.395 26.1721 221.395 26.7V33.0496H217.003V13.2378H221.395V22.9709C221.5 22.6541 221.736 22.3374 222.1 22.0206C222.475 21.6943 222.94 21.4255 223.497 21.2143C224.063 20.9936 224.673 20.8832 225.326 20.8832Z" fill="#1B2A32"/>
<path d="M211.238 29.9541C211.785 29.9541 212.236 29.8629 212.591 29.6805C212.946 29.4886 213.186 29.335 213.311 29.2198L215.312 32.1858C215.159 32.3106 214.895 32.4738 214.52 32.6753C214.146 32.8673 213.676 33.0353 213.109 33.1793C212.553 33.3232 211.914 33.3952 211.194 33.3952C209.841 33.3952 208.651 33.1409 207.624 32.6321C206.597 32.1138 205.795 31.3843 205.219 30.4436C204.653 29.503 204.37 28.3991 204.37 27.1321C204.37 25.8554 204.653 24.7516 205.219 23.8205C205.795 22.8894 206.597 22.1695 207.624 21.6608C208.651 21.1425 209.841 20.8833 211.194 20.8833C211.905 20.8833 212.538 20.9601 213.095 21.1137C213.661 21.2577 214.136 21.4256 214.52 21.6176C214.904 21.8 215.173 21.9584 215.327 22.0927L213.282 25.0875C213.215 25.0204 213.09 24.9244 212.908 24.7996C212.735 24.6748 212.509 24.5644 212.231 24.4684C211.953 24.3724 211.621 24.3244 211.238 24.3244C210.767 24.3244 210.326 24.4444 209.913 24.6844C209.51 24.9244 209.183 25.2555 208.934 25.6779C208.684 26.1002 208.559 26.5849 208.559 27.1321C208.559 27.6792 208.684 28.1687 208.934 28.6007C209.183 29.023 209.51 29.3542 209.913 29.5941C210.326 29.8341 210.767 29.9541 211.238 29.9541Z" fill="#1B2A32"/>
<path d="M193.973 28.0679C194.001 28.4903 194.136 28.8646 194.376 29.191C194.616 29.5174 194.947 29.7765 195.369 29.9685C195.801 30.1509 196.31 30.2421 196.895 30.2421C197.452 30.2421 197.951 30.1845 198.393 30.0693C198.844 29.9541 199.233 29.8101 199.559 29.6373C199.895 29.4646 200.154 29.287 200.337 29.1046L202.036 31.8114C201.796 32.0706 201.455 32.325 201.013 32.5745C200.581 32.8145 200.01 33.0113 199.3 33.1649C198.59 33.3185 197.692 33.3952 196.607 33.3952C195.302 33.3952 194.141 33.1505 193.123 32.6609C192.106 32.1714 191.304 31.4515 190.719 30.5012C190.133 29.551 189.84 28.3895 189.84 27.0169C189.84 25.865 190.09 24.8284 190.589 23.9069C191.098 22.9758 191.832 22.2415 192.792 21.704C193.752 21.1569 194.908 20.8833 196.262 20.8833C197.548 20.8833 198.662 21.1185 199.602 21.5888C200.553 22.0591 201.282 22.7599 201.791 23.6909C202.309 24.6124 202.568 25.7643 202.568 27.1465C202.568 27.2233 202.563 27.3768 202.554 27.6072C202.554 27.8376 202.544 27.9912 202.525 28.0679H193.973ZM198.45 25.7787C198.441 25.4715 198.359 25.1691 198.206 24.8716C198.052 24.5644 197.822 24.3148 197.515 24.1229C197.207 23.9213 196.814 23.8205 196.334 23.8205C195.854 23.8205 195.446 23.9165 195.11 24.1085C194.784 24.2908 194.534 24.5308 194.361 24.8284C194.189 25.1259 194.093 25.4427 194.073 25.7787H198.45Z" fill="#1B2A32"/>
<path d="M181.644 17.8167H177.108V14.0444H190.47V17.8167H185.949V33.0499H181.644V17.8167Z" fill="#1B2A32"/>
<path d="M159.025 21.2286H161.041V16.3765H165.374V21.2286H168.024V24.8281H165.374V28.1253C165.374 28.6148 165.446 29.0132 165.59 29.3203C165.734 29.6179 165.998 29.7667 166.382 29.7667C166.641 29.7667 166.862 29.7091 167.045 29.5939C167.227 29.4787 167.337 29.4019 167.376 29.3635L168.873 32.4735C168.806 32.5311 168.595 32.6367 168.24 32.7903C167.894 32.9439 167.453 33.083 166.915 33.2078C166.378 33.3326 165.778 33.395 165.115 33.395C163.935 33.395 162.96 33.0639 162.192 32.4015C161.425 31.7296 161.041 30.6978 161.041 29.3059V24.8281H159.025V21.2286Z" fill="#1B2A32"/>
<path d="M152.366 20.8833C153.191 20.8833 153.997 21.0513 154.784 21.3872C155.572 21.7232 156.219 22.2559 156.728 22.9854C157.237 23.7053 157.491 24.6556 157.491 25.8362V33.0497H153.1V26.5561C153.1 25.7115 152.898 25.0779 152.495 24.6556C152.092 24.2237 151.564 24.0077 150.911 24.0077C150.479 24.0077 150.071 24.1229 149.688 24.3532C149.313 24.574 149.006 24.8908 148.766 25.3035C148.536 25.7067 148.42 26.1722 148.42 26.7001V33.0497H144.043V21.2289H148.42V22.971C148.536 22.6543 148.776 22.3375 149.14 22.0208C149.515 21.6944 149.98 21.4256 150.537 21.2145C151.103 20.9937 151.713 20.8833 152.366 20.8833Z" fill="#1B2A32"/>
<path d="M133.372 28.0679C133.401 28.4903 133.535 28.8646 133.775 29.191C134.015 29.5174 134.346 29.7765 134.769 29.9685C135.201 30.1509 135.709 30.2421 136.295 30.2421C136.852 30.2421 137.351 30.1845 137.792 30.0693C138.243 29.9541 138.632 29.8101 138.958 29.6373C139.294 29.4646 139.554 29.287 139.736 29.1046L141.435 31.8114C141.195 32.0706 140.854 32.325 140.413 32.5745C139.981 32.8145 139.41 33.0113 138.699 33.1649C137.989 33.3185 137.092 33.3952 136.007 33.3952C134.701 33.3952 133.54 33.1505 132.523 32.6609C131.505 32.1714 130.704 31.4515 130.118 30.5012C129.533 29.551 129.24 28.3895 129.24 27.0169C129.24 25.865 129.489 24.8284 129.988 23.9069C130.497 22.9758 131.231 22.2415 132.191 21.704C133.151 21.1569 134.308 20.8833 135.661 20.8833C136.948 20.8833 138.061 21.1185 139.002 21.5888C139.952 22.0591 140.681 22.7599 141.19 23.6909C141.708 24.6124 141.968 25.7643 141.968 27.1465C141.968 27.2233 141.963 27.3768 141.953 27.6072C141.953 27.8376 141.944 27.9912 141.924 28.0679H133.372ZM137.85 25.7787C137.84 25.4715 137.759 25.1691 137.605 24.8716C137.451 24.5644 137.221 24.3148 136.914 24.1229C136.607 23.9213 136.213 23.8205 135.733 23.8205C135.253 23.8205 134.845 23.9165 134.509 24.1085C134.183 24.2908 133.934 24.5308 133.761 24.8284C133.588 25.1259 133.492 25.4427 133.473 25.7787H137.85Z" fill="#1B2A32"/>
<path d="M118.42 21.2286H120.436V16.3765H124.769V21.2286H127.419V24.8281H124.769V28.1253C124.769 28.6148 124.841 29.0132 124.985 29.3203C125.129 29.6179 125.393 29.7667 125.777 29.7667C126.037 29.7667 126.257 29.7091 126.44 29.5939C126.622 29.4787 126.732 29.4019 126.771 29.3635L128.268 32.4735C128.201 32.5311 127.99 32.6367 127.635 32.7903C127.289 32.9439 126.848 33.083 126.31 33.2078C125.773 33.3326 125.173 33.395 124.51 33.395C123.33 33.395 122.355 33.0639 121.588 32.4015C120.82 31.7296 120.436 30.6978 120.436 29.3059V24.8281H118.42V21.2286Z" fill="#1B2A32"/>
<path d="M112.676 26.7003L117.701 33.0498H112.849L110.055 29.4071L107.262 33.0498H102.741L107.752 27.0458L103.245 21.229H108.14L110.329 24.267L112.618 21.229H117.053L112.676 26.7003Z" fill="#1B2A32"/>
<path d="M88.3672 14.0444H100.505V17.8167H92.6578V21.6898H100.433V25.3469H92.6578V29.2776H100.505V33.0499H88.3672V14.0444Z" fill="#1B2A32"/>
</svg>
