<svg width="238" height="71" viewBox="0 0 238 71" fill="none" xmlns="http://www.w3.org/2000/svg">
<path d="M27.8066 9.88682L31.32 11.9181V31.795H24.4737L17.6801 25.0014V11.9106L21.1935 9.8793C23.2399 8.70565 25.7602 8.70565 27.8066 9.88682Z" fill="#0080FF"/>
<path d="M31.32 40.793V60.6172L27.8065 62.6485C25.7602 63.8297 23.2398 63.8297 21.1935 62.6485L17.68 60.6172V41.741L8.72716 32.7881V55.4486L3.30278 52.3189C1.25641 51.1377 0 48.9559 0 46.6011V25.9418C0 23.5795 1.25641 21.3977 3.30278 20.2165L8.72716 17.0867V28.7405L20.7872 40.8006H31.32V40.793Z" fill="#0080FF"/>
<path d="M49 25.9418V46.6011C49 48.9634 47.7436 51.1452 45.6972 52.3264L40.2728 55.4561V17.0792L45.6972 20.2089C47.7436 21.3976 49 23.5794 49 25.9418Z" fill="#0080FF"/>
<path d="M89.7756 18.7067V52H81.6657V38.2938H69.0503V52H60.9404V18.7067H69.0503V31.749H81.6657V18.7067H89.7756ZM120.576 38.3412C120.576 39.1 120.529 39.8905 120.434 40.7125H102.08C102.207 42.3566 102.728 43.6213 103.645 44.5066C104.594 45.3603 105.748 45.7871 107.107 45.7871C109.131 45.7871 110.538 44.9335 111.328 43.2261H119.96C119.517 44.9651 118.711 46.5302 117.541 47.9213C116.403 49.3125 114.964 50.4033 113.225 51.1938C111.486 51.9842 109.542 52.3794 107.392 52.3794C104.799 52.3794 102.491 51.8261 100.468 50.7195C98.4442 49.6129 96.8633 48.032 95.7251 45.9769C94.5868 43.9217 94.0177 41.5188 94.0177 38.7681C94.0177 36.0173 94.571 33.6144 95.6776 31.5592C96.8159 29.5041 98.3967 27.9232 100.42 26.8166C102.444 25.71 104.768 25.1567 107.392 25.1567C109.953 25.1567 112.229 25.6942 114.221 26.7692C116.213 27.8442 117.762 29.3776 118.869 31.3695C120.007 33.3614 120.576 35.6853 120.576 38.3412ZM112.277 36.207C112.277 34.8159 111.803 33.7092 110.854 32.8872C109.906 32.0651 108.72 31.6541 107.297 31.6541C105.938 31.6541 104.783 32.0493 103.835 32.8398C102.918 33.6302 102.349 34.7526 102.128 36.207H112.277ZM140.506 52L135.431 44.6489L131.163 52H122.389L131.115 38.4835L122.152 25.5361H131.257L136.332 32.8398L140.6 25.5361H149.374L140.506 38.8629L149.611 52H140.506ZM151.124 38.7206C151.124 36.0015 151.63 33.6144 152.641 31.5592C153.685 29.5041 155.092 27.9232 156.862 26.8166C158.633 25.71 160.609 25.1567 162.791 25.1567C164.656 25.1567 166.284 25.5361 167.676 26.2949C169.098 27.0537 170.189 28.0497 170.948 29.2828V25.5361H179.058V52H170.948V48.2533C170.158 49.4864 169.051 50.4824 167.628 51.2412C166.237 52 164.609 52.3794 162.743 52.3794C160.593 52.3794 158.633 51.8261 156.862 50.7195C155.092 49.5813 153.685 47.9846 152.641 45.9294C151.63 43.8427 151.124 41.4397 151.124 38.7206ZM170.948 38.7681C170.948 36.7445 170.379 35.1478 169.241 33.978C168.134 32.8081 166.775 32.2232 165.162 32.2232C163.55 32.2232 162.174 32.8081 161.036 33.978C159.929 35.1162 159.376 36.6971 159.376 38.7206C159.376 40.7441 159.929 42.3566 161.036 43.5581C162.174 44.728 163.55 45.3129 165.162 45.3129C166.775 45.3129 168.134 44.728 169.241 43.5581C170.379 42.3883 170.948 40.7916 170.948 38.7681ZM192.513 45.3129H203.991V52H183.455V45.55L194.458 32.2232H183.55V25.5361H203.753V31.9861L192.513 45.3129ZM224.578 25.2515C227.676 25.2515 230.143 26.2633 231.976 28.2868C233.842 30.2787 234.775 33.0295 234.775 36.539V52H226.712V37.6298C226.712 35.8592 226.254 34.4839 225.337 33.5037C224.42 32.5236 223.187 32.0335 221.638 32.0335C220.088 32.0335 218.855 32.5236 217.938 33.5037C217.021 34.4839 216.563 35.8592 216.563 37.6298V52H208.453V25.5361H216.563V29.0457C217.385 27.8758 218.492 26.9589 219.883 26.2949C221.274 25.5993 222.839 25.2515 224.578 25.2515Z" fill="#0080FF"/>
</svg>
