<svg width="279" height="50" viewBox="0 0 279 50" fill="none" xmlns="http://www.w3.org/2000/svg">
<g clip-path="url(#clip0_2716_5)">
<path d="M92.1585 6.78629H96.2426V28.2822H92.1585V19.5914H81.9326V28.2822H77.8168V10.8702L76.8037 6.78629H81.9326V15.4771H92.1585V6.78629Z" fill="#1A1A1A"/>
<path d="M114.024 6.78618C115.436 6.78618 116.639 7.28856 117.632 8.29055C118.624 9.29392 119.121 10.5016 119.121 11.9148V23.1548C119.121 24.0975 118.896 24.9559 118.445 25.7343C117.995 26.5127 117.375 27.1324 116.587 27.592C115.799 28.053 114.944 28.2835 114.022 28.2835H104.81C103.398 28.2835 102.189 27.7825 101.185 26.7791C100.182 25.7757 99.6807 24.5681 99.6807 23.1548V11.9148C99.6807 10.5016 100.182 9.29392 101.185 8.29055C102.189 7.28718 103.396 6.78618 104.81 6.78618H114.024ZM115.037 22.1404V12.9279C115.037 12.3551 114.837 11.8734 114.438 11.4842C114.039 11.095 113.552 10.9004 112.979 10.9004H105.824C105.25 10.9004 104.769 11.095 104.38 11.4842C103.991 11.8734 103.796 12.3537 103.796 12.9279V22.1404C103.796 22.7145 103.991 23.1948 104.38 23.584C104.769 23.9732 105.25 24.1678 105.824 24.1678H112.979C113.552 24.1678 114.039 23.9732 114.438 23.584C114.838 23.1962 115.037 22.7145 115.037 22.1404Z" fill="#1A1A1A"/>
<path d="M135.859 15.4773C137.272 15.4773 138.48 15.9796 139.483 16.9816C140.487 17.985 140.988 19.1926 140.988 20.6059V23.1551C140.988 24.0977 140.757 24.9562 140.296 25.7346C139.835 26.513 139.211 27.1327 138.423 27.5923C137.635 28.0532 136.781 28.2837 135.859 28.2837H127.168C125.756 28.2837 124.546 27.7827 123.544 26.7794C122.541 25.776 122.04 24.5683 122.04 23.1551V22.142H126.156C126.156 22.7162 126.35 23.1965 126.74 23.5857C127.129 23.9749 127.609 24.1695 128.183 24.1695H134.847C135.215 24.1695 135.554 24.0825 135.86 23.9086C136.168 23.7347 136.414 23.4891 136.597 23.1716C136.781 22.8542 136.873 22.5119 136.873 22.1434V21.6203C136.873 21.0683 136.673 20.5921 136.274 20.1933C135.875 19.7944 135.399 19.5943 134.846 19.5943H127.168C125.756 19.5943 124.546 19.0933 123.544 18.0899C122.541 17.0865 122.04 15.8789 122.04 14.4656V11.9165C122.04 10.5032 122.541 9.29557 123.544 8.2922C124.548 7.28883 125.756 6.78783 127.168 6.78783H135.337C136.75 6.78783 137.958 7.29021 138.961 8.2922C139.965 9.29557 140.466 10.5032 140.466 11.9165V12.9295H136.35C136.35 12.3567 136.155 11.8751 135.766 11.4859C135.377 11.0967 134.895 10.9021 134.323 10.9021H128.181C127.812 10.9021 127.468 10.989 127.152 11.1629C126.835 11.3368 126.584 11.5825 126.4 11.8999C126.217 12.2174 126.124 12.5596 126.124 12.9281V13.4512C126.124 14.0033 126.324 14.4794 126.723 14.8783C127.122 15.2772 127.609 15.4773 128.182 15.4773H135.859Z" fill="#1A1A1A"/>
<path d="M141.877 6.78618H162.361V10.8701H154.683V28.2821H150.567V10.8701H142.889L141.877 6.78618Z" fill="#1A1A1A"/>
<path d="M178.485 6.78618C179.898 6.78618 181.1 7.28856 182.093 8.29055C183.085 9.29392 183.582 10.5016 183.582 11.9148V23.1548C183.582 24.0975 183.355 24.9559 182.906 25.7343C182.456 26.5127 181.836 27.1324 181.048 27.592C180.26 28.053 179.405 28.2835 178.483 28.2835H169.27C167.858 28.2835 166.649 27.7825 165.646 26.7791C164.643 25.7757 164.142 24.5681 164.142 23.1548V11.9148C164.142 10.5016 164.643 9.29392 165.646 8.29055C166.649 7.28718 167.857 6.78618 169.27 6.78618H178.485ZM179.498 22.1404V12.9279C179.498 12.3551 179.298 11.8734 178.899 11.4842C178.5 11.095 178.013 10.9004 177.44 10.9004H170.285C169.711 10.9004 169.23 11.095 168.841 11.4842C168.452 11.8734 168.257 12.3537 168.257 12.9279V22.1404C168.257 22.7145 168.452 23.1948 168.841 23.584C169.23 23.9732 169.711 24.1678 170.285 24.1678H177.44C178.013 24.1678 178.499 23.9732 178.899 23.584C179.299 23.1962 179.498 22.7145 179.498 22.1404Z" fill="#1A1A1A"/>
<path d="M198.999 19.5929L206.677 28.2837H201.549L193.87 19.5929H191.321V28.2837H187.207V15.4787H200.012C200.585 15.4787 201.067 15.2785 201.456 14.8797C201.845 14.4808 202.04 14.0047 202.04 13.4526V12.9295C202.04 12.3567 201.845 11.8751 201.456 11.4859C201.067 11.0967 200.585 10.9021 200.012 10.9021H187.207V10.8717L186.192 6.78783H201.025C202.439 6.78783 203.647 7.29021 204.65 8.2922C205.653 9.29557 206.154 10.5032 206.154 11.9165V14.4656C206.154 15.8789 205.652 17.0865 204.65 18.0899C203.647 19.0933 202.439 19.5943 201.025 19.5943H198.999V19.5929Z" fill="#1A1A1A"/>
<path d="M208.521 6.78618H213.649V28.2821H209.534V10.8701L208.521 6.78618Z" fill="#1A1A1A"/>
<path d="M234.684 10.8701H217.271L216.258 6.78618H234.684V10.8701ZM223.413 24.1678L235.205 24.1982V28.2821H222.4C220.986 28.2821 219.779 27.7811 218.775 26.7777C217.772 25.7743 217.271 24.5667 217.271 23.1534V15.4756H233.147V19.5912H221.385V22.1404C221.385 22.7145 221.585 23.1948 221.984 23.584C222.385 23.9732 222.861 24.1678 223.413 24.1678Z" fill="#1A1A1A"/>
<path d="M252.498 6.78618H256.583V28.2821H252.498L242.27 13.9409V28.2821H238.155V10.8701L237.142 6.78618H242.27L252.498 21.1274V6.78618Z" fill="#1A1A1A"/>
<path d="M258.517 6.78618H279V10.8701H271.322V28.2821H267.206V10.8701H259.528L258.517 6.78618Z" fill="#1A1A1A"/>
<path d="M82.3796 34.4231V35.5925H78.9498C78.3446 35.5925 78.078 35.9196 78.078 36.3857C78.078 36.7914 78.2857 37.179 79.0692 37.179H80.6361C82.4598 37.179 82.8867 38.1898 82.8867 39.1515C82.8867 40.2816 82.2815 41.1141 80.7555 41.1141H77.0279V39.9447H80.7947C81.4293 39.9447 81.7172 39.598 81.7172 39.1122C81.7172 38.6755 81.4899 38.2797 80.6671 38.2797H79.11C77.3256 38.2797 76.9102 37.2788 76.9102 36.3465C76.9102 35.236 77.5055 34.4231 78.9923 34.4231H82.3796Z" fill="black"/>
<path d="M87.5367 35.881C88.7749 35.881 89.3016 36.4764 89.3016 37.4872C89.3016 38.4489 88.8158 38.9935 87.5269 38.9935H85.0392V39.3697C85.0392 39.7867 85.2665 40.0942 85.8423 40.0942H89.0431V41.1148H85.8423C84.5338 41.1148 84.0186 40.3804 84.0186 39.3893V37.6049C84.0186 36.6138 84.5338 35.8794 85.8423 35.8794H87.5367V35.881ZM85.0392 38.1708H87.4975C88.0618 38.1708 88.2711 37.9337 88.2711 37.546C88.2711 37.1502 88.0438 36.8918 87.5269 36.8918H85.8423C85.2682 36.8918 85.0392 37.2091 85.0392 37.6164V38.1708Z" fill="black"/>
<path d="M93.9424 35.8805C95.2509 35.8805 95.7661 36.6149 95.7661 37.606V40.0642C95.7661 40.8166 95.5682 41.1143 94.685 41.1143H92.2364C90.9967 41.1143 90.4814 40.5091 90.4814 39.518C90.4814 38.5661 90.9574 38.0116 92.2463 38.0116H94.734V37.6158C94.734 37.2086 94.5067 36.8913 93.9309 36.8913H90.7988V35.8805H93.9424ZM94.7357 39.8271V38.8458H92.2675C91.7131 38.8458 91.5135 39.0731 91.5135 39.4607C91.5135 39.8467 91.7212 40.0953 92.2479 40.0953H94.4478C94.6572 40.0937 94.7357 40.0152 94.7357 39.8271Z" fill="black"/>
<path d="M103.371 35.8805C105.145 35.8805 106.017 36.7228 106.017 38.1703V41.1143H104.957V38.1703C104.957 37.3476 104.481 36.8913 103.381 36.8913H102.152V41.1143H101.092V36.8913H98.4361C98.3478 36.8913 98.3069 36.9404 98.3069 37.0401V41.1143H97.2568V36.6934C97.2568 36.0784 97.4646 35.8805 97.9912 35.8805H103.371Z" fill="black"/>
<path d="M108.54 33.6113V41.1151H107.49V33.6113H108.54Z" fill="black"/>
<path d="M113.457 35.881C114.695 35.881 115.221 36.4764 115.221 37.4872C115.221 38.4489 114.736 38.9935 113.447 38.9935H110.959V39.3697C110.959 39.7867 111.186 40.0942 111.762 40.0942H114.963V41.1148H111.762C110.454 41.1148 109.938 40.3804 109.938 39.3893V37.6049C109.938 36.6138 110.454 35.8794 111.762 35.8794H113.457V35.881ZM110.959 38.1708H113.417C113.982 38.1708 114.191 37.9337 114.191 37.546C114.191 37.1502 113.964 36.8918 113.447 36.8918H111.762C111.188 36.8918 110.959 37.2091 110.959 37.6164V38.1708Z" fill="black"/>
<path d="M120.874 35.8805V36.8913H117.979C117.493 36.8913 117.295 37.0892 117.295 37.4866C117.295 37.853 117.454 38.0525 118.039 38.0525H119.269C120.717 38.0525 121.083 38.7166 121.083 39.5294C121.083 40.4617 120.597 41.1159 119.369 41.1159H116.325V40.0953H119.369C119.855 40.0953 120.053 39.9269 120.053 39.5196C120.053 39.1025 119.835 38.9341 119.309 38.9341H118.069C116.621 38.9341 116.265 38.2095 116.265 37.4081C116.265 36.466 116.75 35.8822 117.969 35.8822H120.874V35.8805Z" fill="black"/>
<path d="M126.683 35.8805V36.8913H123.788C123.303 36.8913 123.105 37.0892 123.105 37.4866C123.105 37.853 123.263 38.0525 123.849 38.0525H125.079C126.526 38.0525 126.893 38.7166 126.893 39.5294C126.893 40.4617 126.407 41.1159 125.179 41.1159H122.135V40.0953H125.179C125.664 40.0953 125.862 39.9269 125.862 39.5196C125.862 39.1025 125.645 38.9341 125.118 38.9341H123.878C122.431 38.9341 122.074 38.2095 122.074 37.4081C122.074 36.466 122.56 35.8822 123.779 35.8822H126.683V35.8805Z" fill="black"/>
<path d="M132.009 34.4231V37.1496H135.429V34.4231H136.609V41.1141H135.429V38.319H132.009V41.1141H130.84V34.4231H132.009Z" fill="black"/>
<path d="M141.29 35.8805C142.677 35.8805 143.56 36.7326 143.56 38.4974C143.56 40.2621 142.679 41.1143 141.29 41.1143H140.189C138.791 41.1143 137.919 40.2621 137.919 38.4974C137.919 36.7326 138.791 35.8805 140.189 35.8805H141.29ZM140.289 36.8929C139.376 36.8929 138.98 37.3689 138.98 38.499C138.98 39.6292 139.376 40.0953 140.289 40.0953H141.19C142.091 40.0953 142.499 39.6292 142.499 38.499C142.499 37.3689 142.093 36.8929 141.19 36.8929H140.289Z" fill="black"/>
<path d="M149.182 35.8805V36.8913H146.287C145.802 36.8913 145.604 37.0892 145.604 37.4866C145.604 37.853 145.762 38.0525 146.348 38.0525H147.578C149.025 38.0525 149.392 38.7166 149.392 39.5294C149.392 40.4617 148.906 41.1159 147.678 41.1159H144.634V40.0953H147.678C148.163 40.0953 148.361 39.9269 148.361 39.5196C148.361 39.1025 148.144 38.9341 147.617 38.9341H146.377C144.93 38.9341 144.573 38.2095 144.573 37.4081C144.573 36.466 145.059 35.8822 146.278 35.8822H149.182V35.8805Z" fill="black"/>
<path d="M150.821 35.8799V34.6418H151.88V35.8799H153.328V36.8907H151.88V39.3685C151.88 39.954 152.088 40.1519 152.584 40.1519H153.308V41.1136H152.366C151.285 41.1136 150.821 40.677 150.821 39.3096V36.8907H150.107V35.8799H150.821Z" fill="black"/>
<path d="M155.411 33.9095V35.128H154.35V33.9095H155.411ZM155.401 35.8803V41.1141H154.351V35.8803H155.401Z" fill="black"/>
<path d="M159.804 35.8805C161.578 35.8805 162.44 36.7228 162.44 38.1703V41.1143H161.38V38.1703C161.38 37.3476 160.904 36.8913 159.804 36.8913H158.089C158.001 36.8913 157.96 36.9404 157.96 37.0401V41.1143H156.91V36.6934C156.91 36.0784 157.118 35.8805 157.645 35.8805H159.804Z" fill="black"/>
<path d="M167.39 35.8805C168.639 35.8805 169.313 36.6149 169.313 38.1212V41.1339C169.313 42.6206 168.798 43.2061 167.331 43.2061H164.218V42.1954H167.211C167.995 42.1954 168.252 41.8879 168.252 41.1355V40.8984H165.942C164.544 40.8984 163.672 40.0757 163.672 38.3813C163.672 36.6967 164.544 35.8838 165.942 35.8838H167.39V35.8805ZM166.04 39.9448H168.25V38.1114C168.25 37.2593 167.923 36.8929 167.08 36.8929H166.04C165.139 36.8929 164.732 37.3492 164.732 38.4189C164.732 39.4885 165.139 39.9448 166.04 39.9448Z" fill="black"/>
<path d="M171.94 39.7668V41.3729C171.94 42.315 171.525 42.7811 170.651 42.7811H170.305V41.9175H170.424C170.692 41.9175 170.81 41.7883 170.81 41.4906V39.7668H171.94Z" fill="black"/>
<path d="M181.379 34.4225V35.5919H178.029C177.326 35.5919 177.018 35.9191 177.018 36.4342C177.018 36.9789 177.365 37.2258 178.039 37.2258H181.33V38.2873H178.009C177.335 38.2873 176.989 38.5555 176.989 39.1002C176.989 39.6252 177.316 39.9425 178 39.9425H181.39V41.1119H178C176.413 41.1119 175.769 40.3285 175.769 39.2883C175.769 38.5245 176.115 38.0093 176.73 37.7509C176.105 37.4941 175.788 36.9789 175.788 36.2445C175.788 35.1749 176.452 34.4209 178.029 34.4209H181.379V34.4225Z" fill="black"/>
<path d="M185.742 35.8805C187.517 35.8805 188.379 36.7228 188.379 38.1703V41.1143H187.319V38.1703C187.319 37.3476 186.843 36.8913 185.742 36.8913H184.028C183.938 36.8913 183.899 36.9404 183.899 37.0401V41.1143H182.849V36.6934C182.849 36.0784 183.056 35.8805 183.583 35.8805H185.742Z" fill="black"/>
<path d="M195.25 33.6113V38.8744C195.25 40.3808 194.576 41.1151 193.326 41.1151H191.879C190.48 41.1151 189.608 40.263 189.608 38.4983C189.608 36.7335 190.48 35.8814 191.879 35.8814H194.188V33.6113H195.25ZM194.19 38.8237V36.8905H191.978C191.077 36.8905 190.67 37.3665 190.67 38.4966C190.67 39.6268 191.076 40.0929 191.978 40.0929H193.019C193.863 40.0929 194.19 39.7168 194.19 38.8237Z" fill="black"/>
<path d="M197.8 33.6113V41.1151H196.75V33.6113H197.8Z" fill="black"/>
<path d="M202.718 35.881C203.956 35.881 204.483 36.4764 204.483 37.4872C204.483 38.4489 203.997 38.9935 202.708 38.9935H200.219V39.3697C200.219 39.7867 200.448 40.0942 201.022 40.0942H204.223V41.1148H201.022C199.713 41.1148 199.198 40.3804 199.198 39.3893V37.6049C199.198 36.6138 199.713 35.8794 201.022 35.8794H202.718V35.881ZM200.219 38.1708H202.677C203.243 38.1708 203.451 37.9337 203.451 37.546C203.451 37.1502 203.222 36.8918 202.707 36.8918H201.022C200.446 36.8918 200.219 37.2091 200.219 37.6164V38.1708Z" fill="black"/>
<path d="M210.133 35.8805V36.8913H207.238C206.752 36.8913 206.555 37.0892 206.555 37.4866C206.555 37.853 206.713 38.0525 207.299 38.0525H208.527C209.975 38.0525 210.341 38.7166 210.341 39.5294C210.341 40.4617 209.855 41.1159 208.625 41.1159H205.583V40.0953H208.625C209.111 40.0953 209.309 39.9269 209.309 39.5196C209.309 39.1025 209.091 38.9341 208.565 38.9341H207.327C205.879 38.9341 205.522 38.2095 205.522 37.4081C205.522 36.466 206.008 35.8822 207.227 35.8822H210.133V35.8805Z" fill="black"/>
<path d="M215.946 35.8805V36.8913H213.051C212.565 36.8913 212.367 37.0892 212.367 37.4866C212.367 37.853 212.526 38.0525 213.111 38.0525H214.34C215.787 38.0525 216.153 38.7166 216.153 39.5294C216.153 40.4617 215.668 41.1159 214.438 41.1159H211.395V40.0953H214.438C214.923 40.0953 215.121 39.9269 215.121 39.5196C215.121 39.1025 214.904 38.9341 214.377 38.9341H213.139C211.692 38.9341 211.335 38.2095 211.335 37.4081C211.335 36.466 211.821 35.8822 213.039 35.8822H215.946V35.8805Z" fill="black"/>
<path d="M223.511 34.4231C225.017 34.4231 225.662 35.3554 225.662 36.425C225.662 37.4358 225.076 38.5267 223.511 38.5267H221.429C221.319 38.5267 221.26 38.5757 221.26 38.6951V41.1141H220.091V38.4678C220.091 37.7155 220.408 37.408 221.141 37.408H223.55C224.214 37.408 224.481 36.9517 224.481 36.4855C224.481 35.9998 224.193 35.5942 223.56 35.5942H220.081V34.4247H223.511V34.4231Z" fill="black"/>
<path d="M229.778 35.8805C231.166 35.8805 232.048 36.7326 232.048 38.4974C232.048 40.2621 231.166 41.1143 229.778 41.1143H228.677C227.28 41.1143 226.408 40.2621 226.408 38.4974C226.408 36.7326 227.28 35.8805 228.677 35.8805H229.778ZM228.777 36.8929C227.866 36.8929 227.468 37.3689 227.468 38.499C227.468 39.6292 227.864 40.0953 228.777 40.0953H229.678C230.579 40.0953 230.986 39.6292 230.986 38.499C230.986 37.3689 230.579 36.8929 229.678 36.8929H228.777Z" fill="black"/>
<path d="M237.671 35.8805V36.8913H234.776C234.291 36.8913 234.093 37.0892 234.093 37.4866C234.093 37.853 234.251 38.0525 234.837 38.0525H236.065C237.513 38.0525 237.879 38.7166 237.879 39.5294C237.879 40.4617 237.393 41.1159 236.163 41.1159H233.121V40.0953H236.163C236.649 40.0953 236.847 39.9269 236.847 39.5196C236.847 39.1025 236.629 38.9341 236.103 38.9341H234.865C233.417 38.9341 233.061 38.2095 233.061 37.4081C233.061 36.466 233.546 35.8822 234.765 35.8822H237.671V35.8805Z" fill="black"/>
<path d="M243.481 35.8805V36.8913H240.586C240.1 36.8913 239.902 37.0892 239.902 37.4866C239.902 37.853 240.061 38.0525 240.646 38.0525H241.875C243.322 38.0525 243.689 38.7166 243.689 39.5294C243.689 40.4617 243.203 41.1159 241.973 41.1159H238.931V40.0953H241.973C242.459 40.0953 242.657 39.9269 242.657 39.5196C242.657 39.1025 242.439 38.9341 241.912 38.9341H240.674C239.227 38.9341 238.87 38.2095 238.87 37.4081C238.87 36.466 239.356 35.8822 240.574 35.8822H243.481V35.8805Z" fill="black"/>
<path d="M245.991 33.9095V35.128H244.931V33.9095H245.991ZM245.981 35.8803V41.1141H244.931V35.8803H245.981Z" fill="black"/>
<path d="M248.538 33.6113V35.8814H250.857C252.244 35.8814 253.118 36.7335 253.118 38.4983C253.118 40.263 252.246 41.1151 250.857 41.1151H249.41C248.15 41.1151 247.486 40.3808 247.486 38.8744V33.6113H248.538ZM248.538 36.8922V38.8254C248.538 39.7168 248.865 40.0946 249.717 40.0946H250.748C251.659 40.0946 252.056 39.6284 252.056 38.4983C252.056 37.3681 251.659 36.8922 250.748 36.8922H248.538Z" fill="black"/>
<path d="M255.441 33.9095V35.128H254.381V33.9095H255.441ZM255.431 35.8803V41.1141H254.381V35.8803H255.431Z" fill="black"/>
<path d="M257.989 33.6113V41.1151H256.938V33.6113H257.989Z" fill="black"/>
<path d="M260.556 33.9095V35.128H259.496V33.9095H260.556ZM260.546 35.8803V41.1141H259.496V35.8803H260.546Z" fill="black"/>
<path d="M262.242 35.8799V34.6418H263.302V35.8799H264.749V36.8907H263.302V39.3685C263.302 39.954 263.51 40.1519 264.005 40.1519H264.73V41.1136H263.788C262.708 41.1136 262.242 40.677 262.242 39.3096V36.8907H261.527V35.8799H262.242Z" fill="black"/>
<path d="M266.833 33.9095V35.128H265.773V33.9095H266.833ZM266.824 35.8803V41.1141H265.773V35.8803H266.824Z" fill="black"/>
<path d="M271.74 35.881C272.978 35.881 273.505 36.4764 273.505 37.4872C273.505 38.4489 273.019 38.9935 271.73 38.9935H269.242V39.3697C269.242 39.7867 269.47 40.0942 270.045 40.0942H273.246V41.1148H270.045C268.737 41.1148 268.222 40.3804 268.222 39.3893V37.6049C268.222 36.6138 268.737 35.8794 270.045 35.8794H271.74V35.881ZM269.242 38.1708H271.701C272.267 38.1708 272.474 37.9337 272.474 37.546C272.474 37.1502 272.245 36.8918 271.73 36.8918H270.045C269.47 36.8918 269.242 37.2091 269.242 37.6164V38.1708Z" fill="black"/>
<path d="M279.158 35.8805V36.8913H276.263C275.777 36.8913 275.579 37.0892 275.579 37.4866C275.579 37.853 275.738 38.0525 276.323 38.0525H277.551C278.999 38.0525 279.365 38.7166 279.365 39.5294C279.365 40.4617 278.88 41.1159 277.65 41.1159H274.607V40.0953H277.65C278.135 40.0953 278.333 39.9269 278.333 39.5196C278.333 39.1025 278.116 38.9341 277.589 38.9341H276.351C274.903 38.9341 274.547 38.2095 274.547 37.4081C274.547 36.466 275.033 35.8822 276.251 35.8822H279.158V35.8805Z" fill="black"/>
<path d="M47.2717 17.2647C45.1026 16.0701 42.409 15.3207 39.1833 15.0647L38.7799 15.0383C38.7458 15.0337 38.7023 15.0337 38.6635 15.0337C38.4432 15.0166 38.2182 14.9995 37.9917 14.9949H37.9746C37.6286 14.9778 37.2826 14.9732 36.9273 14.9685C36.8234 14.9638 36.7148 14.9638 36.6077 14.9638H25.064C24.7118 14.9638 24.4232 14.6753 24.4232 14.3231V6.75634C24.4232 5.80837 24.0462 4.89763 23.3759 4.22738L19.8476 0.699235C19.3061 0.157757 18.5707 -0.0718678 17.8693 0.0196715C17.6444 0.118968 17.4845 0.343938 17.4845 0.604593V2.05991C17.4845 2.4121 17.7731 2.70069 18.1253 2.70069H18.1595C18.7863 2.70069 19.3883 2.95048 19.8321 3.39266L21.5466 5.10708C22.7164 6.27692 22.7164 8.19304 21.5466 9.36289L19.8336 11.0758C19.3883 11.521 18.7848 11.7708 18.1564 11.7708H18.1253C17.7731 11.7708 17.4845 12.0594 17.4845 12.4116V13.5334C17.4845 13.9104 17.7949 14.2021 18.1703 14.2052C18.4372 14.2067 18.6963 14.2548 18.943 14.3432C19.2766 14.4565 19.5745 14.6458 19.8305 14.9018L21.9996 17.0708C22.9213 17.9924 22.9213 19.4912 21.9996 20.4174L19.9686 22.4483C19.7095 22.7075 19.2937 22.9728 18.8732 23.1326C18.625 23.2272 18.3814 23.2831 18.1672 23.28C17.798 23.2753 17.483 23.5375 17.483 23.9068V24.2497C17.483 24.6018 17.7716 24.8904 18.1238 24.8904H18.1548C18.4279 24.8904 18.701 24.9385 18.9508 25.0332C19.2797 25.1464 19.5823 25.3357 19.8336 25.5871L21.5435 27.2968C22.7134 28.4667 22.7134 30.3828 21.5435 31.5526L19.8336 33.2624C19.3868 33.7092 18.7817 33.959 18.1502 33.959H18.1222C17.77 33.959 17.4814 34.2476 17.4814 34.5998V36.8216C17.4814 37.1738 17.77 37.4623 18.1222 37.4623H18.1533C18.7832 37.4623 19.3868 37.7121 19.8305 38.1574L21.5435 39.8703C22.7134 41.0401 22.7134 42.9563 21.5435 44.1261L19.829 45.8405C19.3852 46.2889 18.7925 46.5309 18.1641 46.5325C17.7902 46.534 17.483 46.8288 17.483 47.2043V48.9017C17.483 49.2538 17.7716 49.5424 18.1238 49.5424H23.7824C24.1346 49.5424 24.4232 49.2538 24.4232 48.9017V22.2823C24.4232 21.9705 24.6528 21.7067 24.9476 21.654C24.9864 21.6447 25.0252 21.6416 25.064 21.6416H36.6077C36.9366 21.6416 37.2578 21.6462 37.565 21.6633C43.8179 21.9193 46.7659 24.7679 47.0032 29.4519C47.0467 29.7079 47.1118 29.7932 47.2592 29.9328C47.4066 30.0802 47.6192 30.1283 47.8271 30.1283H49.689C51.0963 30.1283 52.2429 29.9204 53.0916 29.5093C53.3166 29.4053 53.5199 29.2843 53.706 29.1493C53.8876 29.0144 53.9915 28.7987 53.9745 28.5784C53.6145 23.4134 51.3895 19.5331 47.2717 17.2647Z" fill="url(#paint0_linear_2716_5)"/>
<path d="M64.4713 16.9746C64.4713 16.97 64.4713 16.97 64.4713 16.97C64.4589 16.8971 64.4402 16.8179 64.4232 16.745C63.5574 12.3853 61.5435 9.28535 58.6343 7.40646C56.3705 5.94339 53.5591 5.22504 50.3256 5.22504H43.2551C42.051 5.22504 40.9122 5.32433 39.8385 5.52448C35.8385 6.25214 32.7509 8.34668 30.8502 11.8624C30.6206 12.286 30.9325 12.8026 31.4134 12.8026H36.6097C37.3451 12.8026 38.0557 12.8243 38.7524 12.8678C38.8781 12.8771 38.9944 12.8461 39.103 12.7856C39.3978 12.6118 39.7097 12.466 40.0433 12.3356C40.048 12.3403 40.048 12.3403 40.048 12.3356C41.1216 11.9152 42.3986 11.7212 43.8928 11.7212H49.691C52.7476 11.7212 54.9214 12.5746 56.2945 14.4488C57.1432 15.6093 57.6847 17.167 57.9314 19.1592C58.0447 20.0342 58.1005 20.99 58.1005 22.0388C58.1005 25.5638 57.4861 28.0835 56.1905 29.7405C56.1254 29.8227 56.0602 29.9003 55.995 29.9779C55.4489 30.6062 54.7957 31.095 54.0292 31.4627C52.8562 32.0259 51.4101 32.2943 49.691 32.2943H43.8928C41.3777 32.2943 39.4677 31.7404 38.1162 30.5318C37.8649 30.3068 37.6306 30.0648 37.4196 29.7964C37.4196 29.7917 37.4149 29.7917 37.4149 29.787C36.7695 28.9772 36.2931 27.947 35.9782 26.6918C35.8013 25.9951 35.671 25.2334 35.5934 24.3924C35.5624 24.0852 35.3296 23.8463 35.0255 23.8168C35.0038 23.8075 34.9821 23.8075 34.9557 23.8075H29.4011C29.0333 23.8075 28.7339 24.124 28.7649 24.4917C28.8952 26.1239 29.1544 27.6134 29.5438 28.9601C31.1636 34.6402 34.9867 37.8363 40.3722 38.6415C41.2908 38.7796 42.2512 38.8494 43.2551 38.8494H50.3256C50.4513 38.8494 50.5769 38.8494 50.7026 38.8448C50.9369 38.8401 51.1696 38.8324 51.3993 38.8184C51.7546 38.806 52.1052 38.775 52.4466 38.7362C52.9881 38.6803 53.5156 38.5981 54.0276 38.4941C54.7848 38.3421 55.5047 38.1342 56.1921 37.8751C61.6521 35.8581 64.9119 30.6311 64.9119 22.0372C64.9135 20.1925 64.7614 18.5075 64.4713 16.9746Z" fill="url(#paint1_linear_2716_5)"/>
<path d="M64.9127 22.0359C64.9127 30.6297 61.6529 35.8552 56.1929 37.8738C55.504 38.1329 54.7856 38.3408 54.0285 38.4928C53.518 38.5968 52.9889 38.679 52.4474 38.7348C52.1061 38.7736 51.7554 38.8047 51.4001 38.8171C51.1705 38.8295 50.9362 38.8388 50.7034 38.8434C50.5778 38.8481 50.4521 38.8481 50.3264 38.8481H43.2559C42.252 38.8481 41.29 38.7783 40.373 38.6402L47.0836 32.293H49.6903C51.4094 32.293 52.8555 32.0245 54.0285 31.4613C54.7949 31.0936 55.4481 30.6034 55.9943 29.9765C58.0905 28.0884 60.9516 24.2918 64.424 16.7452C64.4411 16.8182 64.4581 16.8973 64.4721 16.9702C64.4721 16.9702 64.4721 16.9702 64.4721 16.9749C64.7607 18.5078 64.9127 20.1927 64.9127 22.0359Z" fill="url(#paint2_linear_2716_5)"/>
<path d="M18.0109 10.7686L14.6269 7.38472C14.5462 7.30404 14.5462 7.17061 14.6269 7.08993L18.0109 3.70608C18.0916 3.6254 18.225 3.6254 18.3057 3.70608L21.6897 7.08993C21.7704 7.17061 21.7704 7.30404 21.6897 7.38472L18.3057 10.7686C18.2235 10.8492 18.0916 10.8492 18.0109 10.7686Z" fill="url(#paint3_linear_2716_5)"/>
<path d="M18.0109 45.5308L14.6269 42.1469C14.5462 42.0662 14.5462 41.9328 14.6269 41.8521L18.0109 38.4683C18.0916 38.3876 18.225 38.3876 18.3057 38.4683L21.6897 41.8521C21.7704 41.9328 21.7704 42.0662 21.6897 42.1469L18.3057 45.5308C18.2235 45.613 18.0916 45.613 18.0109 45.5308Z" fill="url(#paint4_linear_2716_5)"/>
<path d="M18.0109 32.9574L14.6269 29.5735C14.5462 29.4929 14.5462 29.3594 14.6269 29.2788L18.0109 25.8949C18.0916 25.8142 18.225 25.8142 18.3057 25.8949L21.6897 29.2788C21.7704 29.3594 21.7704 29.4929 21.6897 29.5735L18.3057 32.9574C18.2235 33.0396 18.0916 33.0396 18.0109 32.9574Z" fill="url(#paint5_linear_2716_5)"/>
<path d="M6.17711 31.5972L4.15231 29.5724C4.07163 29.4918 4.07163 29.3583 4.15231 29.2776L6.17711 27.2529C6.25779 27.1722 6.39123 27.1722 6.47191 27.2529L8.49672 29.2776C8.5774 29.3583 8.5774 29.4918 8.49672 29.5724L6.47191 31.5972C6.38968 31.6778 6.25779 31.6778 6.17711 31.5972Z" fill="url(#paint6_linear_2716_5)"/>
<path d="M6.17711 20.6817L4.15231 18.657C4.07163 18.5763 4.07163 18.4428 4.15231 18.3622L6.17711 16.3374C6.25779 16.2568 6.39123 16.2568 6.47191 16.3374L8.49672 18.3622C8.5774 18.4428 8.5774 18.5763 8.49672 18.657L6.47191 20.6817C6.38968 20.7639 6.25779 20.7639 6.17711 20.6817Z" fill="url(#paint7_linear_2716_5)"/>
<path d="M18.0109 22.2727L14.6269 18.8889C14.5462 18.8082 14.5462 18.6748 14.6269 18.5941L18.0109 15.2103C18.0916 15.1296 18.225 15.1296 18.3057 15.2103L21.6897 18.5941C21.7704 18.6748 21.7704 18.8082 21.6897 18.8889L18.3057 22.2727C18.2235 22.355 18.0916 22.355 18.0109 22.2727Z" fill="url(#paint8_linear_2716_5)"/>
<path d="M11.435 15.8486L8.80661 13.2204C8.72592 13.1397 8.72592 13.0063 8.80661 12.9256L11.435 10.2973C11.5157 10.2166 11.6491 10.2166 11.7298 10.2973L14.3581 12.9256C14.4388 13.0063 14.4388 13.1397 14.3581 13.2204L11.7298 15.8486C11.6491 15.9293 11.5172 15.9293 11.435 15.8486Z" fill="url(#paint9_linear_2716_5)"/>
<path d="M11.435 38.5478L8.80661 35.9195C8.72592 35.8388 8.72592 35.7054 8.80661 35.6247L11.435 32.9965C11.5157 32.9158 11.6491 32.9158 11.7298 32.9965L14.3581 35.6247C14.4388 35.7054 14.4388 35.8388 14.3581 35.9195L11.7298 38.5478C11.6491 38.6285 11.5172 38.6285 11.435 38.5478Z" fill="url(#paint10_linear_2716_5)"/>
<path d="M11.435 26.6863L8.80661 24.058C8.72592 23.9773 8.72592 23.8439 8.80661 23.7632L11.435 21.1349C11.5157 21.0543 11.6491 21.0543 11.7298 21.1349L14.3581 23.7632C14.4388 23.8439 14.4388 23.9773 14.3581 24.058L11.7298 26.6863C11.6491 26.7669 11.5172 26.7669 11.435 26.6863Z" fill="url(#paint11_linear_2716_5)"/>
<path d="M1.7653 25.7314L0.0384015 24.0046C-0.0128005 23.9534 -0.0128005 23.8712 0.0384015 23.82L1.7653 22.0931C1.81651 22.0419 1.89874 22.0419 1.94994 22.0931L3.67684 23.82C3.72805 23.8712 3.72805 23.9534 3.67684 24.0046L1.94994 25.7314C1.90029 25.7826 1.81651 25.7826 1.7653 25.7314Z" fill="url(#paint12_linear_2716_5)"/>
<path d="M54.0278 41.4453V48.9003C54.0278 49.2509 53.7377 49.5411 53.387 49.5411H47.6633C47.4166 49.5411 47.1962 49.3937 47.0954 49.1858C47.0473 49.0989 47.0225 49.0043 47.0225 48.9003V41.6532C47.0225 41.3025 47.3126 41.0124 47.6633 41.0124H50.3257C51.3606 41.0124 52.3521 40.9426 53.3094 40.8092C53.6911 40.758 54.0278 41.0605 54.0278 41.4453Z" fill="url(#paint13_linear_2716_5)"/>
<path d="M51.3989 38.8163C51.1692 38.8287 50.935 38.838 50.7022 38.8427C50.5765 38.8473 50.4509 38.8473 50.3252 38.8473H43.2547C36.3486 38.8473 31.4394 35.6093 29.5418 28.958C29.1524 27.6112 28.8917 26.1218 28.763 24.4896C28.7319 24.1219 29.0314 23.8054 29.3991 23.8054H34.9537C34.9801 23.8054 35.0018 23.8054 35.0236 23.8147C35.3261 23.8457 35.5604 24.0831 35.5914 24.3903C35.669 25.2297 35.7993 25.993 35.9762 26.6896C36.2927 27.9448 36.7691 28.975 37.413 29.7849C37.413 29.7896 37.4176 29.7896 37.4176 29.7942C39.3152 32.9112 43.2686 36.4223 51.3989 38.8163Z" fill="url(#paint14_linear_2716_5)"/>
<path d="M58.6341 7.4069C48.628 7.95304 42.5831 10.8233 40.0462 12.3345C40.0462 12.3392 40.0463 12.3392 40.0416 12.3345C39.708 12.4648 39.3961 12.6122 39.1013 12.7844C38.9927 12.845 38.8764 12.876 38.7507 12.8667C38.054 12.8232 37.3434 12.8015 36.608 12.8015H31.4117C30.9308 12.8015 30.6189 12.2864 30.8485 11.8613C32.7492 8.34557 35.8368 6.24947 39.8368 5.52337C40.9105 5.32477 42.0493 5.22392 43.2534 5.22392H50.3239C53.5605 5.22547 56.3704 5.94383 58.6341 7.4069Z" fill="url(#paint15_linear_2716_5)"/>
<path d="M53.9761 28.5784C53.9931 28.7987 53.8892 29.0159 53.7076 29.1493C53.5215 29.2827 53.3182 29.4053 53.0932 29.5093C52.2445 29.9204 51.0979 30.1283 49.6906 30.1283H47.8287C47.6208 30.1283 47.4082 30.0802 47.2608 29.9328C47.1134 29.7947 47.0483 29.7079 47.0048 29.4519C46.7675 24.7678 43.8179 21.9177 37.5666 21.6633C37.2594 21.6462 36.9382 21.6415 36.6093 21.6415H25.0656C25.0268 21.6415 24.988 21.6462 24.9492 21.654C26.0058 21.0085 36.5783 14.8133 47.2733 17.2632C51.3911 19.533 53.6161 23.4134 53.9761 28.5784Z" fill="url(#paint16_linear_2716_5)"/>
</g>
<defs>
<linearGradient id="paint0_linear_2716_5" x1="-0.367968" y1="24.7711" x2="64.707" y2="24.7711" gradientUnits="userSpaceOnUse">
<stop stop-color="#A1CB29"/>
<stop offset="1" stop-color="#0F9D87"/>
</linearGradient>
<linearGradient id="paint1_linear_2716_5" x1="-0.366061" y1="22.0362" x2="64.7089" y2="22.0362" gradientUnits="userSpaceOnUse">
<stop stop-color="#A1CB29"/>
<stop offset="1" stop-color="#0F9D87"/>
</linearGradient>
<linearGradient id="paint2_linear_2716_5" x1="78.3187" y1="13.8818" x2="51.343" y2="34.5231" gradientUnits="userSpaceOnUse">
<stop stop-color="white"/>
<stop offset="1" stop-color="white" stop-opacity="0"/>
</linearGradient>
<linearGradient id="paint3_linear_2716_5" x1="-2.40339" y1="7.23624" x2="69.8285" y2="7.23624" gradientUnits="userSpaceOnUse">
<stop stop-color="#A1CB29"/>
<stop offset="1" stop-color="#0F9D87"/>
</linearGradient>
<linearGradient id="paint4_linear_2716_5" x1="-2.40339" y1="41.9995" x2="69.8285" y2="41.9995" gradientUnits="userSpaceOnUse">
<stop stop-color="#A1CB29"/>
<stop offset="1" stop-color="#0F9D87"/>
</linearGradient>
<linearGradient id="paint5_linear_2716_5" x1="-2.40339" y1="29.4258" x2="69.8285" y2="29.4258" gradientUnits="userSpaceOnUse">
<stop stop-color="#A1CB29"/>
<stop offset="1" stop-color="#0F9D87"/>
</linearGradient>
<linearGradient id="paint6_linear_2716_5" x1="-1.6348" y1="29.4247" x2="75.7811" y2="29.4247" gradientUnits="userSpaceOnUse">
<stop stop-color="#A1CB29"/>
<stop offset="1" stop-color="#0F9D87"/>
</linearGradient>
<linearGradient id="paint7_linear_2716_5" x1="-1.6348" y1="18.5099" x2="75.7811" y2="18.5099" gradientUnits="userSpaceOnUse">
<stop stop-color="#A1CB29"/>
<stop offset="1" stop-color="#0F9D87"/>
</linearGradient>
<linearGradient id="paint8_linear_2716_5" x1="-2.40339" y1="18.7413" x2="69.8285" y2="18.7413" gradientUnits="userSpaceOnUse">
<stop stop-color="#A1CB29"/>
<stop offset="1" stop-color="#0F9D87"/>
</linearGradient>
<linearGradient id="paint9_linear_2716_5" x1="-2.08148" y1="13.073" x2="72.3333" y2="13.073" gradientUnits="userSpaceOnUse">
<stop stop-color="#A1CB29"/>
<stop offset="1" stop-color="#0F9D87"/>
</linearGradient>
<linearGradient id="paint10_linear_2716_5" x1="-2.08148" y1="35.7718" x2="72.3333" y2="35.7718" gradientUnits="userSpaceOnUse">
<stop stop-color="#A1CB29"/>
<stop offset="1" stop-color="#0F9D87"/>
</linearGradient>
<linearGradient id="paint11_linear_2716_5" x1="-2.08148" y1="23.9108" x2="72.3333" y2="23.9108" gradientUnits="userSpaceOnUse">
<stop stop-color="#A1CB29"/>
<stop offset="1" stop-color="#0F9D87"/>
</linearGradient>
<linearGradient id="paint12_linear_2716_5" x1="-0.670839" y1="23.9117" x2="73.2978" y2="23.9117" gradientUnits="userSpaceOnUse">
<stop stop-color="#A1CB29"/>
<stop offset="1" stop-color="#0F9D87"/>
</linearGradient>
<linearGradient id="paint13_linear_2716_5" x1="-0.365777" y1="45.1728" x2="64.7091" y2="45.1728" gradientUnits="userSpaceOnUse">
<stop stop-color="#A1CB29"/>
<stop offset="1" stop-color="#0F9D87"/>
</linearGradient>
<linearGradient id="paint14_linear_2716_5" x1="75.7891" y1="43.2365" x2="34.1013" y2="30.1949" gradientUnits="userSpaceOnUse">
<stop stop-color="white"/>
<stop offset="1" stop-color="white" stop-opacity="0"/>
</linearGradient>
<linearGradient id="paint15_linear_2716_5" x1="19.3639" y1="20.6479" x2="56.2266" y2="2.77442" gradientUnits="userSpaceOnUse">
<stop stop-color="white"/>
<stop offset="1" stop-color="white" stop-opacity="0"/>
</linearGradient>
<linearGradient id="paint16_linear_2716_5" x1="71.9959" y1="23.4112" x2="29.9716" y2="23.4112" gradientUnits="userSpaceOnUse">
<stop stop-color="white"/>
<stop offset="1" stop-color="white" stop-opacity="0"/>
</linearGradient>
<clipPath id="clip0_2716_5">
<rect width="279" height="49.476" fill="white"/>
</clipPath>
</defs>
</svg>
