<svg width="157" height="47" viewBox="0 0 157 47" fill="none" xmlns="http://www.w3.org/2000/svg">
<g clip-path="url(#clip0_147_1361)">
<path d="M139.908 9.456C141.187 9.48259 142.474 9.42231 143.755 9.45068C146.285 9.50742 150.07 9.1918 152.334 9.9507C156.236 11.2593 157.532 16.607 154.037 18.9032C153.686 19.1337 153.028 19.1283 153.198 19.561C153.34 19.9245 154.744 20.2011 155.266 20.5681C157.661 22.2526 157.376 25.9584 155.626 28.0329C153.178 30.9302 149.889 30.3788 146.55 30.4C144.546 30.4125 142.542 30.4036 140.538 30.4054C140.18 30.432 139.91 29.4426 139.91 29.2174V9.456H139.908ZM144.727 13.7859L144.517 13.9952V17.6265L144.803 17.779C146.213 17.3871 149.993 18.1957 151.017 17.2825C151.919 16.4775 151.758 14.7541 150.621 14.1778C150.401 14.0661 149.392 13.7859 149.197 13.7859H144.727ZM144.517 25.9353H150.455C150.529 25.9353 151.244 25.6641 151.371 25.5949C152.579 24.9459 152.771 23.0629 151.574 22.304C151.382 22.1817 150.486 21.8855 150.316 21.8855H144.728L144.519 22.0948V25.9353H144.517Z" fill="#1A1A1A"/>
<path d="M78.868 22.5061L78.8716 22.3093C84.3743 20.327 83.7766 11.793 78.4442 9.95071C76.2115 9.1794 72.4804 9.65283 69.9924 9.60318C68.8894 9.58013 67.6409 9.31593 66.5007 9.44892C66.2967 9.47197 66.1407 9.46665 66.0183 9.66524V17.0024H70.7673V13.9243C72.6648 14.1264 77.5859 13.0661 78.0203 15.818C78.3076 17.6354 76.9741 18.6461 75.3053 18.811C73.9594 18.944 72.5247 18.8642 71.1025 18.7737H66.545C66.3712 18.8003 66.1974 18.8181 66.0183 18.811V30.3327C66.2134 30.6501 66.318 30.4018 66.3677 30.4018H70.7673V22.7207H72.7925C72.9964 22.7207 73.5905 23.5044 73.759 23.7101C75.41 25.7421 76.8535 28.2138 78.3395 30.3717L84.0373 30.4001L78.8698 22.5026L78.868 22.5061Z" fill="#1A1A1A"/>
<path d="M100.797 9.45599V13.926L90.182 13.7859V17.5574C91.739 17.3854 93.2978 17.4155 94.8672 17.412C95.5517 17.412 96.2681 17.4066 96.9509 17.412C97.9635 17.4191 98.9601 17.396 99.9602 17.5591C100.031 17.607 99.8201 17.7382 99.8201 17.7666V21.8873H90.3221L90.182 25.9389L100.799 25.797L100.937 30.4071H85.573C85.1794 29.5685 85.4383 28.8752 85.44 28.1092C85.4489 24.3803 85.401 20.6355 85.44 16.9368C85.4649 14.4916 85.4099 12.0412 85.433 9.59784L100.799 9.45954L100.797 9.45599Z" fill="#1A1A1A"/>
<path d="M139.071 30.4036L134.321 30.4745L132.374 26.7297C132.095 26.3591 130.689 26.7634 130.206 26.7776C128.266 26.8325 126.273 26.7989 124.328 26.7776C123.289 26.7669 123.37 26.2811 122.705 27.3769C122.157 28.2776 121.824 29.4408 121.308 30.3806L116.302 30.5419L125.943 9.37976C126.903 9.7202 129.066 8.9489 129.698 9.67765L139.071 30.4036ZM130.549 22.8625C130.595 22.3271 130.386 21.8182 130.199 21.3288C129.822 20.3429 129.064 18.7365 128.529 17.8322C128.078 17.0733 127.476 16.2807 126.782 15.7399C126.825 16.5201 127.158 17.0574 127.027 17.8712C126.896 18.6851 124.805 22.0912 125.163 22.5895C126.949 23.0753 128.777 22.4583 130.55 22.8608L130.549 22.8625Z" fill="#1A1A1A"/>
<path d="M103.172 9.66522L118.258 9.45422C118.077 10.7291 118.408 12.2096 118.265 13.442C118.242 13.6459 118.247 13.8019 118.048 13.9243H107.921V17.6957H116.72V22.1657H107.921V30.4054H103.521C103.471 30.4054 103.367 30.6536 103.172 30.3362V9.66522Z" fill="#1A1A1A"/>
<path d="M144.658 33.0598V41.2303C144.658 41.5672 143.551 41.4324 143.303 41.2569L140.183 37.0439L139.212 36.1326C139.538 37.8436 138.926 39.5671 139.072 41.3012H137.814V33.1998C138.103 33.2069 138.407 33.1626 138.694 33.23C139.192 33.347 141.082 35.723 141.505 36.2851C142.053 37.012 142.411 37.9536 143.12 38.5085L143.26 33.1998L144.658 33.0615V33.0598Z" fill="#1A1A1A"/>
<path d="M126.13 34.0864C130.089 30.3398 135.86 37.2372 130.96 40.6611C126.819 43.5548 122.599 37.4269 126.13 34.0864ZM128.279 34.4871C127.383 34.6272 126.349 35.7354 126.232 36.6308C125.809 39.8543 130.008 41.0175 131.177 37.9447C131.882 36.0882 130.196 34.1892 128.281 34.4871H128.279Z" fill="#1A1A1A"/>
<path d="M79.1163 33.0917C82.4431 32.7335 84.2412 36.1379 82.8953 38.9731C80.8009 43.3846 75.073 41.1984 75.8568 36.2655C76.0945 34.7761 77.6071 33.2548 79.1163 33.0934V33.0917ZM78.829 34.6272C78.2704 34.7424 77.5131 35.4942 77.2755 36.0067C76.1548 38.4252 79.2138 41.0707 81.246 39.1398C83.2783 37.2088 81.5457 34.0687 78.829 34.629V34.6272Z" fill="#1A1A1A"/>
<path d="M71.4625 33.9002L71.3774 34.1768L70.418 35.1165C69.7104 34.4126 66.9777 34.0722 66.9795 35.3648C66.9795 36.8311 71.3011 36.2832 71.5937 38.0244C72.1984 41.6132 67.2047 42.6026 65.4668 39.8525L66.3907 39.083C67.21 39.6575 67.6675 40.005 68.7386 39.9022C69.4515 39.8348 70.6024 39.2727 70.0509 38.4518C69.5349 37.684 65.9474 37.8755 65.6299 36.1698C65.0252 32.925 69.416 32.3061 71.4625 33.9002Z" fill="#1A1A1A"/>
<path d="M156.372 33.9126C156.534 34.2123 155.801 34.9375 155.59 34.9942C155.191 35.1024 154.567 34.5385 154.076 34.464C153.267 34.3399 151.304 34.6538 152.051 35.7921C152.646 36.6999 156.383 36.4375 156.661 38.1645C157.209 41.5636 152.407 42.2764 150.449 40.1859C150.258 39.8951 151.065 39.2568 151.315 39.2337C151.926 39.177 153.391 40.6274 154.789 39.6256C156.761 38.2106 152.863 37.8294 152.205 37.5936C150.55 37.0014 150.052 35.6112 151.15 34.1715C152.565 32.3168 154.645 32.8381 156.374 33.9126H156.372Z" fill="#1A1A1A"/>
<path d="M104.429 37.5972C104.408 37.8507 104.292 38.544 104.229 38.794C103.762 40.6292 100.937 42.6204 99.3395 40.8721C97.2948 38.6344 97.6282 36.0262 97.4456 33.1981H98.983C99.171 34.7566 98.8944 37.0351 99.3537 38.4837C99.813 39.9324 101.487 40.0565 102.521 39.0405C103.709 37.872 102.946 34.9978 103.193 33.4268L103.402 33.2176L104.431 33.058V37.5972H104.429Z" fill="#1A1A1A"/>
<path d="M114.486 34.5953H112.111L112.26 41.2125L110.854 41.4395V34.7353L108.052 34.3949C107.861 34.2655 107.861 33.5066 107.983 33.3293C108.192 33.0278 113.636 33.0349 114.397 33.0793L114.564 33.191L114.486 34.597V34.5953Z" fill="#1A1A1A"/>
<path d="M93.5336 39.6238L93.3084 41.3083C92.1965 41.326 91.0775 41.2586 89.9656 41.2941C89.5844 41.3065 88.6622 41.6452 88.4264 41.3083L88.077 36.067L88.3058 33.1963H89.3432L89.6216 39.6238H93.5318H93.5336Z" fill="#1A1A1A"/>
<path d="M120.214 33.3381L120.361 41.2179C120.338 41.3491 119.3 41.5051 119.229 41.2055C119.453 40.2125 118.791 33.6449 119.256 33.3576L120.215 33.3381H120.214Z" fill="#1A1A1A"/>
<path d="M4.03796 27.7972H4.8005C4.88916 27.5755 4.65154 27.6624 4.63026 27.5737C4.48661 26.9567 5.10906 25.2456 5.43536 24.6605C5.96382 23.7172 7.52791 22.2012 8.61143 21.9884C8.81182 21.9494 9.00511 21.9352 9.20905 21.9494L9.19663 22.531C7.35235 23.0009 5.3857 25.3644 5.23497 27.2564C5.20127 27.6784 5.34492 27.7847 5.35556 28.1394C5.18354 28.3734 4.15677 28.0383 4.0486 28.3592C3.98476 28.5525 4.25608 30.049 4.33411 30.338C4.86789 32.3009 6.72636 33.8045 8.69832 34.152C8.48729 34.4659 7.82583 34.5368 7.47471 34.4836C7.15551 34.4357 6.19435 33.6094 5.89997 33.347C5.34492 32.8505 4.87853 32.2424 4.29155 31.7778C4.33765 32.5225 4.26495 33.2779 4.288 34.0261C4.29687 34.324 4.49725 34.9215 4.33411 35.1716C4.26849 35.2708 4.03618 35.1964 4.12308 35.4198C4.78808 35.5102 4.50257 36.4127 4.19933 36.7266C4.05037 36.8808 3.889 36.7993 3.86772 36.9447L4.17096 37.0227C4.27913 37.1078 4.27736 37.2018 4.29509 37.3241C4.41568 38.2249 4.31105 39.8313 4.29509 40.8047C4.29155 40.9803 4.22061 41.1363 4.20643 41.3083L4.71538 41.9431L4.08229 42.3669C3.90141 42.3722 3.44211 41.9981 3.44211 41.8172L3.86949 41.2232C3.46516 39.8561 3.9085 38.1451 3.6957 36.8223C3.64605 36.5156 3.15306 36.1166 3.4829 35.84C3.63718 35.7106 4.03618 35.7265 4.03973 35.4659C4.03973 35.34 3.89254 35.1928 3.87304 35.035C3.72762 33.7566 3.9617 32.4871 3.87304 31.2228C3.80742 30.2937 3.41906 29.3167 3.68683 28.3521L3.19384 28.0064L3.62122 27.7404C3.56447 26.6375 3.7223 25.5276 3.9617 24.4531C3.99185 24.3165 4.12308 24.2172 4.1284 24.1091C4.1284 24.0807 3.84466 24.0382 3.95638 23.8112C4.6072 24.1055 4.90513 23.2207 5.2261 22.7952C5.00089 22.6303 4.00426 23.18 3.7223 23.203C3.51127 23.2207 3.39423 23.0665 3.31975 23.0718C3.25591 23.0754 2.87641 23.3963 2.85336 23.5133C2.72922 24.1587 2.864 25.5666 2.85691 26.3131C2.8374 28.6181 2.88883 30.9444 2.94203 33.2548C2.95799 33.9712 2.84095 34.973 2.93316 35.6361C2.96153 35.84 3.11227 35.9553 3.10695 36.1308C3.10163 36.2922 2.95976 36.473 2.9438 36.6556C2.90124 37.1769 3.00055 37.7053 2.84981 38.216L2.34441 38.3011L2.25929 38.0475C2.34618 39.154 1.17577 39.7568 0.524951 38.7213C-0.0850815 37.7514 1.18996 36.8773 2.00392 37.6238C1.99328 37.4323 1.86028 37.3826 1.83014 37.1628C1.57655 35.3258 1.84787 32.2761 1.839 30.2919C1.83191 28.8894 1.82836 27.4674 1.839 26.0631C1.84964 24.5559 1.82836 23.0736 1.59251 21.5824L16.079 12.9207C16.6323 13.1229 16.6607 13.7594 16.1872 14.0626C16.001 14.1814 15.6853 14.0573 15.3998 14.2027C14.9618 14.4296 14.3003 15.0236 13.8091 15.3233C10.461 17.3641 7.02782 19.2224 3.72407 21.3395C2.95621 21.8324 1.93299 22.0611 3.35876 22.8803C3.51482 22.0416 4.55223 22.1462 5.24383 21.9264C7.27432 21.2774 9.49987 20.4795 11.4931 19.7029C11.9914 19.5096 14.9884 18.0752 15.2154 18.2294C15.4867 18.8252 15.1604 18.9334 14.7171 19.1975C14.0077 19.6213 12.5358 20.2508 11.7485 20.5522C11.0782 20.8075 10.2323 20.843 9.54598 21.1036C9.53534 21.2313 9.66125 21.1604 9.74105 21.2934C10.1826 22.0168 9.82617 22.3484 9.88647 22.9211C9.91129 23.1622 10.3759 23.7864 9.79957 23.9016C9.89178 24.0399 9.95031 24.0949 9.97336 24.2758C10.0354 24.7527 9.85277 27.4284 9.96804 27.5436C10.8955 27.5755 11.8602 27.2174 12.7646 27.4585C12.8976 26.3024 12.2734 24.8485 11.2431 24.2775C10.6987 23.9761 10.1454 24.1197 10.3085 23.3059C12.2397 23.3945 12.9685 24.446 13.403 26.1854C13.4828 26.5063 13.4651 26.8946 13.5272 27.1429C13.5467 27.2244 14.068 27.3982 13.4881 27.7121L9.96981 27.9656L9.88469 31.4391C10.0212 31.4055 10.1773 31.5047 10.2855 31.503C10.5674 31.4977 11.9028 30.2813 12.1227 29.9905C12.6032 29.3557 12.6813 28.6429 12.8657 27.8947L13.5272 27.7954C13.6211 29.5011 12.5092 31.487 10.8352 32.0083C10.6295 32.0721 10.2801 32.0544 10.2199 32.081C10.0673 32.1466 9.9574 32.48 9.6311 32.3718C9.74992 32.6839 10.0053 32.6449 9.88469 33.0917L10.0532 33.1325C10.0461 33.0367 10.0727 32.9835 10.1596 32.9392C10.5444 32.7353 11.048 32.6626 11.4683 32.4711C13.3037 31.6395 14.2471 29.4745 14.2861 27.5454L14.0343 27.4993C13.9545 27.1021 14.2649 27.04 14.295 26.8184C14.3198 26.6375 14.1691 26.1109 14.1159 25.8964C13.6442 23.9779 12.0819 22.5771 10.1596 22.1852C9.77652 21.0717 11.9436 21.8359 12.4028 22.1019C12.8621 22.3679 14.3163 23.9477 14.5025 24.4087C14.6053 24.6641 15.0806 26.5719 15.0398 26.7173C15.015 26.8024 14.8572 26.9124 14.8855 26.9478L15.5098 27.1127C15.7208 27.0507 15.6587 26.267 15.6463 26.0595C15.5452 24.3733 14.9724 23.469 13.8694 22.2438L11.9187 20.765C13.1352 20.671 14.6178 22.1604 15.1746 23.1427C15.3289 23.4158 15.469 23.6658 15.5204 23.9832C15.6321 23.9069 15.6392 23.8147 15.6516 23.6906C15.7917 22.3342 15.4796 20.8909 15.6569 19.5433C15.7155 19.1018 15.8893 19.0025 16.3255 18.9848C16.2581 22.7243 16.4142 26.4762 16.329 30.2157C16.3184 30.6696 16.1712 31.1696 16.2333 31.659C16.2528 31.8168 16.3911 31.7707 16.4071 31.8381C16.5117 32.269 16.2102 32.3594 16.189 32.4959C16.134 32.8523 16.3556 33.6892 16.3308 34.2017C16.3202 34.418 16.1872 34.574 16.1872 34.6201C16.1872 34.7761 16.572 35.0208 16.2758 35.418C16.2297 35.4801 15.852 35.8152 15.7722 35.6804C15.7279 35.6042 15.6374 35.2141 15.641 35.1237C15.6552 34.8152 16.0276 34.7318 15.5204 34.4304C15.4353 34.4818 15.3643 34.5563 15.2597 34.5722C14.0379 34.7566 12.8285 34.973 11.6084 35.1591C9.85277 35.4287 7.68751 35.5492 5.99751 36.0741C5.72441 36.1592 5.56304 36.1822 5.50629 36.5262C5.47614 36.7071 5.63752 36.8064 5.64993 36.989C5.76343 38.6043 5.42472 40.1788 5.51161 41.7853C5.61801 41.9395 8.78699 42.0282 9.24274 42.0371C9.69849 42.1239 9.61869 42.7197 9.16471 42.7162C7.89854 42.4626 6.33267 42.5619 5.09842 42.2835C4.43873 42.1346 4.99911 41.8066 5.03103 41.7303C5.07891 41.6222 5.08246 39.6061 5.05231 39.3632C5.02571 39.1345 4.89271 38.9926 4.8732 38.7728C4.89448 38.56 5.12857 38.5937 5.13743 38.5121C5.17645 38.1078 4.5611 36.8773 5.30413 36.7408C5.1197 36.395 4.49725 36.0936 4.78986 35.6521C5.03813 35.2779 8.83487 34.9942 9.46264 34.5279L9.37751 33.4304C7.43215 33.3967 5.7918 32.2264 5.0931 30.4267C4.97074 30.1111 4.53095 28.5791 4.80582 28.4071C4.95123 28.3734 5.16049 28.3592 5.26157 28.478C5.40876 28.6518 5.71377 30.088 5.88047 30.4852C6.54902 32.0721 7.74958 32.7353 9.44313 32.7867C9.7446 31.8806 9.20905 32.1253 8.67172 32.0154C6.95866 31.6661 6.30075 30.2246 6.1447 28.611L6.82566 28.4798C6.96044 29.3876 7.34525 30.2565 8.05814 30.8487C8.49971 31.2157 9.1186 31.6182 9.70913 31.4427L9.53889 27.9692C8.69655 28.1482 7.8081 28.1323 6.96221 28.2298C6.44439 28.2901 6.10746 28.6624 5.64107 28.095C5.61269 27.8858 5.9585 27.8433 5.98332 27.7386C6.06844 27.3805 5.99574 26.8734 6.12696 26.3769C6.36991 25.4655 7.7549 23.5754 8.74265 23.4779C9.62046 23.391 8.97674 24.4265 8.39862 24.6747C8.22838 24.7474 8.13085 24.6623 8.01913 24.7066C7.7549 24.8112 6.94448 25.6446 6.86822 25.9318C6.74409 26.3911 6.97817 26.5099 6.99236 26.829C7.003 27.0613 6.70153 27.9567 7.11827 27.9638C7.43038 27.9692 8.30818 27.6855 8.7462 27.6394C9.0388 27.6092 9.33318 27.6376 9.62578 27.6287C9.57081 26.6251 9.51052 25.6233 9.53712 24.6162C9.54243 24.3963 9.67721 24.0382 9.58677 23.8999C9.53889 23.8272 9.37751 23.8059 9.32963 23.7296C9.18422 23.5027 9.36687 23.1073 9.37574 22.8431C9.3917 22.2899 9.30303 21.7242 9.45731 21.187C9.38638 21.1214 7.84889 21.6941 7.63431 21.7774C6.43021 22.2438 6.2706 22.3165 5.49033 23.3626C4.92286 24.1233 4.03441 25.6109 4.03441 26.5666V27.7954L4.03796 27.7972ZM15.6339 33.7974C15.6676 33.425 15.7882 33.0456 15.7367 32.6644C15.7031 32.4179 15.4707 32.1856 15.4832 31.9853C15.4938 31.8044 15.7172 31.7548 15.7279 31.5739C15.7332 31.4675 15.6463 31.3008 15.6445 31.1466C15.6321 30.0508 15.7722 28.6199 15.6534 27.5808C15.6392 27.455 15.6445 27.3645 15.5204 27.2883L14.8891 27.5844C15.1356 27.7599 14.9973 28.2068 14.9494 28.494C14.6266 30.4196 13.7222 32.0615 11.9187 32.9197C11.369 33.1821 10.477 33.5545 9.88824 33.3878C9.73218 33.7797 9.83149 34.1857 9.9308 34.5758L15.6357 33.7974H15.6339ZM0.927501 37.8206C0.41323 38.2373 0.955875 39.1557 1.58187 38.8543C2.20786 38.5529 1.59251 37.2833 0.927501 37.8206Z" fill="#D4A574"/>
<path d="M40.0547 9.66351L40.1771 5.84599C40.2941 5.68109 41.1205 5.73428 41.351 5.66336C41.539 5.60485 41.6277 5.33179 41.8103 5.27682C42.9825 4.92397 42.4434 6.84957 42.4257 7.41697C42.3796 8.92412 42.5551 10.6068 42.4274 12.0803C42.4186 12.192 42.3884 12.6814 42.2217 12.6282L28.5794 4.15444C27.0915 5.92046 24.6957 6.81589 22.7113 7.95777C17.48 10.9685 12.3142 14.1016 7.15019 17.2241C5.23497 18.3819 3.08567 19.9866 1.13144 20.9512C0.943466 21.0451 0.794505 21.1427 0.565742 21.1054C0.521409 21.0611 0.61717 20.0416 0.65441 19.8802C0.734211 19.5274 1.27686 19.4547 1.58365 19.2844C3.52369 18.2117 5.4194 16.8624 7.31866 15.6974C10.7519 13.5945 14.2028 11.4951 17.6573 9.42769C21.1082 7.36023 25.249 5.38675 28.3949 2.95936C28.4854 2.89021 28.5332 2.71467 28.5794 2.71112C31.6827 4.42218 34.5325 6.56588 37.5738 8.378C37.8558 8.54645 39.927 9.80004 40.0565 9.66528L40.0547 9.66351ZM41.4095 5.85131C41.2393 5.66159 40.9166 6.51268 40.8988 6.65453C40.7995 7.46307 40.8013 9.18654 40.8137 10.0412C40.8226 10.566 41.1471 11.3302 41.2411 11.8675C41.4113 11.8356 41.3794 11.6884 41.4095 11.5714C41.594 10.8409 41.7749 7.38506 41.6596 6.66162C41.6152 6.38502 41.3492 6.1687 41.4095 5.85131Z" fill="#D4A574"/>
<path d="M2.92428 38.7409C2.91718 39.5175 2.83561 40.2817 2.84802 41.0619C2.85157 41.3278 2.95974 41.5725 2.94201 41.819C2.91896 42.1683 2.6299 42.303 2.59798 42.6258L9.25159 43.4733C9.53001 43.6417 10.3653 43.3031 10.4255 43.3137C10.4858 43.3244 10.9451 43.6453 11.3796 43.718C12.7362 43.9467 14.2241 43.9981 15.6303 44.2145C20.4077 44.9485 25.3696 45.5532 30.2676 45.8546C30.4892 45.8688 31.0124 45.6081 31.1436 45.9876C31.1968 46.1401 31.1737 46.8316 31.0177 46.8671C28.6946 46.8351 26.3928 46.4149 24.0821 46.1862C22.8195 46.0621 21.5338 46.0656 20.2694 45.9308C18.2478 45.7163 16.2563 45.2748 14.2418 45.0106C10.8973 44.5709 7.52257 44.3226 4.17804 43.8882C3.53786 43.8049 2.86044 43.741 2.25927 43.5194C2.1174 43.3758 1.94184 42.1027 1.92233 41.8225C1.88864 41.3261 1.84076 39.9714 1.92233 39.537C1.9312 39.4891 2.38518 38.7107 2.42774 38.6841C2.5767 38.5919 2.77709 38.677 2.92428 38.7426V38.7409Z" fill="#D4A574"/>
<path d="M32.7414 7.65455C33.0234 8.0074 32.6758 8.3904 32.6793 8.76984L32.6864 28.5206C32.3495 29.1412 32.7449 29.2617 32.7751 29.6164C32.7946 29.8504 32.6829 30.1128 32.6776 30.3753C32.5765 35.2726 32.7928 40.1948 32.6439 45.085L31.9664 45.1666C31.8246 40.2125 31.9859 35.2478 31.9203 30.2919C31.8263 23.1303 31.9469 15.7559 31.9611 8.51629C31.6632 7.98258 31.7377 7.64569 32.3122 7.38681C32.3708 7.38149 32.7006 7.60668 32.7378 7.65455H32.7414Z" fill="#D4A574"/>
<path d="M55.4598 21.5452C55.4881 24.18 55.4864 26.8184 55.4828 29.4533C55.4775 32.707 55.403 36.0209 55.3977 39.2746L55.3941 42.7091C54.3674 42.28 54.3709 43.03 55.4793 42.8793L55.442 43.3084L41.5815 45.5071L41.4964 44.4042L52.6437 42.796L52.8529 42.8793L52.5284 43.0903C52.7377 43.2747 52.6667 43.4077 52.5993 43.6418H53.1065L53.0232 43.3882C53.2271 43.4042 53.3849 43.5726 53.5286 43.3457C53.3601 43.2393 53.4559 42.9042 53.4364 42.8882C53.3761 42.8386 53.1278 42.8971 53.1065 42.7091L54.2876 42.6187C54.2964 42.296 54.2929 41.9697 54.2929 41.6452C54.2893 39.1948 54.4277 36.3596 54.4259 33.7637C53.9967 33.2921 54.1138 33.0846 54.3816 32.5864C54.261 29.5349 54.5252 26.3823 54.3816 23.3431C54.3656 23.024 54.3319 22.2651 54.2752 22.008C54.2237 21.7722 53.8691 21.4831 53.8691 21.3111C54.2964 20.3483 54.887 21.2615 55.4615 21.5416L55.4598 21.5452Z" fill="#D4A574"/>
<path d="M17.0242 43.874C16.978 43.8226 16.971 43.679 16.9674 43.6028C17.1199 34.8311 16.8894 25.9762 17.0082 17.2507C17.0153 16.7773 16.9284 13.8516 17.1004 13.7435C17.1625 13.7151 17.2316 13.724 17.2973 13.724C17.5792 13.7222 17.7619 13.802 17.769 14.1087C17.7104 14.9031 17.6838 15.6868 17.6803 16.4847C17.659 21.4069 17.6608 26.5347 17.7246 31.5243C18.1094 31.808 17.7211 31.9516 17.6767 32.4126C17.3824 35.4695 17.7512 39.2551 17.6838 42.4183C17.6803 42.6204 17.5969 42.7995 17.5916 43.0034C17.5863 43.2393 17.7938 43.5549 17.6377 43.8138C17.5384 43.9787 17.1536 44.0265 17.0206 43.8758L17.0242 43.874Z" fill="#D4A574"/>
<path d="M35.139 17.4174C35.1425 17.3908 35.2347 17.2011 35.2738 17.2028L36.0398 17.6213L36.5364 17.3004C38.0579 17.8146 39.5387 18.5699 40.9449 19.3253C40.9964 21.2775 41.0194 23.258 40.991 25.2173C40.9733 26.4975 41.0531 28.5242 40.9077 29.7086C40.897 29.7991 40.9112 29.9037 40.8243 29.964L39.966 29.8664C40.0334 29.0738 40.0458 28.2972 40.0547 27.5011C40.0778 25.3503 39.9093 23.0559 40.0512 20.8874C40.0636 20.6906 40.1132 20.1214 40.1558 19.976C40.2019 19.8217 40.4714 19.7348 40.3934 19.4937L39.6326 19.3643L35.9866 17.8837L35.9015 24.4496L35.7632 24.6499L35.139 24.6623V17.4174Z" fill="#D4A574"/>
<path d="M1.32648 10.2575C1.42579 10.4153 2.45965 10.5395 1.32116 11.1565L1.28392 14.8801L1.49672 15.2134L1.07467 15.3428C1.08353 15.5769 1.55347 15.3943 1.58185 15.4262C1.69534 15.7276 1.42402 15.7418 1.40628 15.8854C1.37082 16.1602 1.33535 17.5911 1.62441 17.6107C1.77869 17.6213 3.86947 16.1177 4.21704 15.8978C9.15228 12.7647 14.2063 9.74688 19.2373 6.76804C22.0605 5.09777 24.9564 3.54275 27.7246 1.78381C27.8345 1.87247 27.8806 1.91502 27.8398 2.06574C27.8026 2.20759 26.3467 3.22358 26.1002 3.37785C23.5377 4.98783 20.7695 6.34782 18.1662 7.89929C14.5947 10.0288 11.0764 12.2824 7.5403 14.4758C5.65168 15.646 3.72405 16.7099 1.89395 17.9812C1.42224 18.3093 0.63665 19.382 0.104645 18.5557C-0.191505 18.0947 0.198632 17.8429 0.649063 17.7968C0.551529 18.2419 0.911519 18.7472 1.19348 18.2135C1.36904 17.8819 1.21476 16.5095 1.13673 16.0822C1.07821 15.7666 0.769651 15.3606 0.950533 15.084C1.00019 15.0077 1.14205 15.0645 1.16688 14.8765C1.21476 14.5006 1.19703 11.1937 1.11545 11.02C1.05871 10.8959 0.817531 10.8232 0.831718 10.6529C0.845905 10.4827 1.15801 10.2416 1.15801 10.215V8.18122C1.15801 8.16703 1.27328 8.04823 1.32826 8.05355V10.2558L1.32648 10.2575Z" fill="#D4A574"/>
<path d="M28.629 6.45596C28.4534 6.83363 28.0934 7.09251 27.76 7.32656C24.8961 9.33905 21.1348 10.9118 18.0775 12.8126C17.7229 13.0342 17.5881 13.4066 17.0508 13.3055C16.5134 13.2044 16.7777 12.4792 17.1093 12.2665C19.4129 10.965 21.6792 9.59438 23.981 8.29291C25.1816 7.61381 26.5878 7.05173 27.7086 6.25737C28.0917 5.98608 28.6893 5.23074 29.1184 5.38322C29.4358 5.75735 31.2198 6.60845 31.3121 6.92584C31.3741 7.14038 31.2961 7.39926 31.1046 7.53224C30.5726 7.90282 30.4768 7.4099 30.0813 7.13329C29.8739 6.98967 28.8205 6.33893 28.6272 6.45241L28.629 6.45596Z" fill="#D4A574"/>
<path d="M35.1389 33.1343L35.8483 33.1467L35.9866 33.3471V45.422C36.9371 45.2784 37.9568 44.9982 38.9108 44.9149C39.0101 44.906 39.5315 44.8315 39.4606 45.039C39.4411 45.0975 39.0509 45.0993 38.902 45.1613C38.3895 45.3759 39.3116 45.4202 38.7814 45.6312L38.9516 46.0142L36.3253 46.3529C36.3342 46.0993 36.4636 45.7447 36.1551 45.5904V46.3529L33.5269 46.7766C33.6174 46.4397 33.3106 45.9787 33.5269 45.7181C33.9703 45.1861 34.2381 45.9309 34.7506 45.8457C34.8605 45.828 35.1354 45.6011 35.1354 45.5479V33.1343H35.1389Z" fill="#D4A574"/>
<path d="M45.4794 13.3924L45.8784 13.458C48.7069 15.0538 51.4166 16.8464 54.1812 18.5451C54.9845 19.038 56.1284 19.4955 56.8288 20.0487C57.2456 20.3785 57.0913 20.8803 57.0487 21.359C56.9459 21.492 56.9512 21.4033 56.8643 21.3714C56.6018 21.2774 56.2153 21.0576 55.9617 20.9157C53.956 19.788 51.9752 18.4192 49.9961 17.2206C48.7512 16.467 47.3166 15.7843 46.1284 14.9864C45.3748 14.4793 45.4475 14.3162 45.4776 13.3906L45.4794 13.3924Z" fill="#D4A574"/>
<path d="M40.89 32.808C41.062 33.3612 40.9024 33.8985 40.8988 34.4446C40.8687 37.6929 40.8882 40.959 40.9875 44.1932C40.9946 44.4343 41.0442 45.5443 40.9095 45.6383C40.631 45.7163 40.3047 45.7128 40.0547 45.5514C39.8543 45.3475 40.0512 44.968 40.06 44.7056C40.1735 41.2285 39.9128 37.661 40.0529 34.191C40.0618 33.9765 40.1611 33.7815 40.1363 33.5651L36.4229 32.957L36.4122 32.3718C35.9583 32.8984 35.0982 33.0066 34.8783 32.2442C34.8783 32.0651 35.577 31.7636 35.765 31.7087C36.2526 32.3984 37.0631 32.1874 37.8008 32.2991C38.8311 32.4552 39.8596 32.6715 40.8917 32.8098L40.89 32.808Z" fill="#D4A574"/>
<path d="M31.0726 10.8072C30.7907 11.0447 30.4236 11.1157 30.1416 10.8497C30.1381 10.9809 30.0671 11.066 29.9678 11.144C28.8524 12.0341 26.8024 12.6228 25.4795 13.1814C23.2114 14.1388 20.945 15.1229 18.661 16.0219L18.4375 15.8978L18.3648 15.6478C19.6026 14.9935 20.8528 14.2647 22.1154 13.63C23.8214 12.7753 25.4635 12.1423 27.0099 11.1529C27.9178 10.5713 29.1645 9.85676 30.2693 10.066L30.3934 9.9596V8.13861L31.1365 8.34961C31.1347 8.38862 31.0709 8.41522 31.0709 8.43472V10.8072H31.0726ZM30.2037 10.5766C30.2356 10.5554 30.3775 10.2894 30.2658 10.2575C29.8579 10.6423 29.2638 10.5962 28.7371 10.7628C28.0721 10.9721 27.2493 11.3834 26.7492 11.8657C27.6909 11.7008 28.5332 11.2238 29.4039 10.8355C29.5866 10.754 30.1416 10.6192 30.2037 10.5766Z" fill="#D4A574"/>
<path d="M49.3772 21.1037C49.0491 20.8554 48.7778 20.6994 48.3912 20.5221C47.5613 20.1444 46.0415 20.0433 46.4529 18.8163C47.6889 19.4724 48.9746 20.0948 50.2479 20.6994C50.5192 20.8288 50.9306 20.7881 51.1168 21.1905C51.2817 21.5487 50.81 21.6108 50.7515 21.7154C50.6238 21.9353 50.7622 24.4744 50.6451 24.9637C50.7497 25.7599 50.8083 26.6198 50.6593 27.4106C50.599 27.4957 49.7921 27.5365 49.7301 27.3202C49.7567 26.7635 49.6503 26.0897 49.7159 25.5506C49.7549 25.2368 50.0865 24.9886 49.9305 24.7474C49.817 24.5737 49.6875 24.7971 49.4836 24.7811C48.9746 24.7386 48.5224 24.3272 48.0223 24.2403V26.8663C47.9088 26.8521 47.6765 26.806 47.5985 26.7386C47.2988 26.4851 47.7546 24.6162 47.5613 24.1499C47.2775 24.0346 46.3642 23.8112 46.2437 23.5186C46.1745 23.352 46.3572 23.3892 46.4565 23.3892C46.8324 23.3892 47.1392 23.6357 47.5134 23.6463L47.6428 21.2757L47.8946 21.0221C47.9744 21.0806 48.0064 21.132 48.0223 21.2313C48.1677 22.1197 47.9443 23.0771 48.0259 23.9832L49.7176 24.4105V22.2491C49.7176 22.2119 49.9127 21.9388 49.9712 21.9087C50.122 21.8342 50.4713 21.9441 50.3951 21.742C50.1769 21.171 49.8613 21.2668 49.3789 21.1054C49.4995 21.1976 49.762 21.2827 49.7176 21.4015C49.6574 21.5611 49.441 21.6427 49.2743 21.6001C49.2051 21.5824 48.189 20.992 48.0223 20.8944C47.9124 20.8306 47.8095 20.9104 47.8556 20.6834C48.3805 20.7668 48.8806 20.9388 49.3807 21.1072L49.3772 21.1037Z" fill="#D4A574"/>
<path d="M31.1472 13.231C31.1241 16.7152 31.2092 20.2064 31.1596 23.6906C31.1418 24.9389 31.1223 26.2457 31.0745 27.5028C31.0656 27.7581 30.8882 28.3291 30.9219 28.5064C30.9485 28.6429 31.2908 28.838 31.2394 29.0667C30.8617 29.2671 30.5283 29.0578 30.1842 29.0649C29.7976 29.072 29.3171 29.3593 28.8666 29.2369C28.8507 29.0241 28.8471 29.0915 28.9943 29.0702C29.5015 28.994 30.2818 29.1004 30.3864 28.4284C30.5797 27.189 30.1594 25.6393 30.303 24.3626C30.6205 21.0274 30.1789 17.5095 30.3917 14.1973C30.4148 13.8463 30.3775 13.4899 30.3917 13.1388L31.1454 13.2328L31.1472 13.231Z" fill="#D4A574"/>
<path d="M31.1472 31.2813C30.9663 35.152 31.1365 39.0458 31.0762 42.9254C31.0691 43.3332 30.9415 43.7357 30.984 44.1967C31.023 44.6311 31.4433 45.2074 30.6063 45.1737C30.0796 45.1524 30.3882 44.4893 30.3988 44.1116C30.4822 41.2019 30.3048 38.0599 30.3066 35.129C30.3066 33.8594 30.3172 32.5917 30.3066 31.3221C30.5602 31.1412 30.8723 31.1944 31.1489 31.2796L31.1472 31.2813Z" fill="#D4A574"/>
<path d="M42.9364 30.5083C42.9205 27.1057 42.9577 23.6977 42.94 20.2934C42.9346 19.1089 42.8548 18.0273 42.9364 16.8216C42.9577 16.5042 42.8868 16.0928 42.9364 15.8056C43.0269 15.3038 43.6316 15.8375 43.6192 16.1389L43.5766 30.2565C43.4702 30.581 43.229 30.5118 42.9364 30.5065V30.5083Z" fill="#D4A574"/>
<path d="M29.8597 12.2186C30.1842 12.2008 30.0619 12.8533 29.9253 13.0519C29.7604 13.2895 28.7851 13.7505 28.4747 13.8888C26.6375 14.7027 24.506 15.5307 22.6191 16.2524C21.5853 16.6478 20.5213 16.9741 19.4838 17.3606C19.0955 17.4422 19.1203 16.6957 19.3438 16.5343C21.376 15.9244 23.2806 15.0165 25.2295 14.1991C26.1144 13.8285 27.0312 13.5395 27.9108 13.153C28.379 12.9473 29.4412 12.2416 29.8615 12.2186H29.8597Z" fill="#D4A574"/>
<path d="M34.1938 31.1165C34.2416 31.3487 34.2807 31.5792 34.2966 31.8186C34.552 35.7744 34.1689 40.0707 34.1157 44.0247C34.1086 44.5425 34.536 45.2553 33.5678 44.9202C33.2805 44.5123 33.7894 44.2357 33.7877 44.1932C33.7806 44.0726 33.6405 43.9911 33.6174 43.8528C33.4277 42.7144 33.644 41.3491 33.527 40.2161V31.1537L34.1938 31.1182V31.1165Z" fill="#D4A574"/>
<path d="M44.0376 14.9173C44.2238 14.802 44.7328 15.13 44.942 15.2417C47.4974 16.5964 50.2266 18.2525 52.7075 19.765C53.0853 19.9955 53.5144 20.1994 53.7751 20.57C53.8265 20.7739 53.4701 21.1923 53.2324 21.1817C52.0425 20.4813 50.8597 19.7029 49.6574 19.0025C48.8239 18.5167 44.3249 16.1372 44.082 15.5946C43.9809 15.3712 44.0695 15.1336 44.0376 14.9173C43.8975 15.0041 43.8745 15.5999 43.5748 15.5981C43.5092 15.5981 43.08 15.3659 43.0162 15.302C42.7289 15.0166 42.7076 14.6158 42.9452 14.2931C43.1669 13.9917 43.988 14.5981 44.0359 14.9173H44.0376Z" fill="#D4A574"/>
<path d="M46.249 7.28221L51.0193 7.19533L51.2002 6.95064L51.7003 7.12795L51.8333 6.95419L51.9113 7.32122C51.6612 7.64216 51.374 7.59783 51.1186 7.32654L46.2366 7.50208L46.1532 9.79649L46.3625 12.2133C47.3804 12.5874 48.3025 13.1956 49.2335 13.7488C51.7038 15.2222 54.1847 16.74 56.5043 18.4263L57.3413 18.8163C57.2136 18.8323 57.093 18.9103 56.96 18.905C56.7703 18.8979 55.2789 18.0699 54.9951 17.9014C52.0638 16.1567 49.1786 14.2683 46.2685 12.4757C46.1621 12.4101 46.0362 12.4047 45.9227 12.3569C45.8393 12.2523 45.8269 12.1246 45.8181 11.9969C45.7187 10.3089 46.0113 8.58545 45.9049 6.90809C45.8872 6.62793 45.8216 6.36019 45.8003 6.08181C45.341 5.65627 44.7292 5.48073 44.2167 5.12433C43.9472 4.93638 43.5269 4.66509 43.4453 4.32998C43.557 4.22891 44.8534 5.1527 45.0821 5.27682C45.3109 5.40094 45.873 5.51087 46.0273 5.68818C46.3075 6.00912 46.0415 6.86199 46.2508 7.28753L46.249 7.28221Z" fill="#D4A574"/>
<path d="M34.2824 28.9745C34.1016 29.0135 33.5181 29.1944 33.4543 28.9337L33.5234 16.834C33.5465 16.7489 34.1583 16.5893 34.1938 16.8375C34.3853 20.8749 34.2594 24.9318 34.2824 28.9745Z" fill="#D4A574"/>
<path d="M19.1238 32.7956L19.0387 41.4378C19.3952 41.3349 19.913 41.3562 20.2428 41.2445C20.4148 41.1878 20.5886 40.9661 20.7057 40.9466C20.8617 40.9218 21.4221 41.1275 21.4185 41.3952C21.4132 41.9821 20.5212 42.1045 20.2659 41.5229C19.9768 41.9697 19.4608 41.647 19.0511 41.8757C18.9642 42.0105 18.9128 43.2286 18.9518 43.429C18.9979 43.6772 19.3295 43.6648 19.2887 43.8457C19.1167 44.0886 18.9642 44.1826 18.6557 44.1542C18.0031 44.0939 18.4145 43.507 18.4482 43.0921C18.5439 41.9484 18.3648 40.4466 18.356 39.2799C18.3418 37.1238 18.3028 34.9411 18.4482 32.7991L19.1221 32.7938L19.1238 32.7956Z" fill="#D4A574"/>
<path d="M19.0387 30.4657C19.0547 30.5189 19.3419 30.7139 19.2923 30.7618C18.9997 30.8044 18.7035 30.893 18.4003 30.8469C18.2832 30.8292 18.2549 30.8966 18.2726 30.7193L18.3577 18.2649C18.3843 17.951 18.7532 18.178 18.8241 17.8819L19.0369 18.0113V30.4675L19.0387 30.4657Z" fill="#D4A574"/>
<path d="M26.8344 33.6006C26.8822 33.4357 27.3291 33.2495 27.5118 33.3045C27.4763 33.6361 27.5827 33.9481 27.6004 34.2744C27.7902 37.5759 27.4745 41.053 27.5082 44.367C27.5082 44.484 27.5401 44.5957 27.5756 44.7056C27.5366 44.9007 26.9869 44.867 26.8344 44.828V33.6006Z" fill="#D4A574"/>
<path d="M29.9661 30.6732C28.5226 30.7831 27.1074 31.1324 25.6799 31.3434C24.1371 31.5722 22.2981 31.8842 20.7766 32.0332C20.5443 32.0562 19.5086 32.1715 19.4147 32.0403C19.3295 31.9215 19.3615 31.6821 19.4554 31.5598C19.6452 31.3115 22.9348 30.8576 23.4987 30.7743C25.0273 30.5455 26.5914 30.3824 28.1342 30.1554C28.6254 30.0827 29.333 29.854 29.771 29.8345C30.2658 29.8132 29.9661 30.3789 29.9661 30.6732Z" fill="#D4A574"/>
<path d="M34.63 9.49504C33.9455 10.0163 33.2787 9.63689 33.4472 8.77693C33.6476 7.75384 34.5608 9.05885 34.8073 9.19183C34.9652 9.27872 35.1726 9.27694 35.3677 9.39397C37.7901 10.8568 40.1628 12.4136 42.5959 13.8587C42.7821 14.0608 42.642 14.3569 42.5551 14.5786C42.2235 14.9686 40.9413 13.8746 40.5884 13.6619C38.8914 12.6388 37.0542 11.6387 35.4333 10.5128C35.0733 10.2628 34.5679 10.0163 34.63 9.49326V9.49504Z" fill="#D4A574"/>
<path d="M44.8711 6.7113L44.8853 14.2382L43.8656 13.7577L43.949 7.67588C43.6014 6.84252 42.4558 7.00032 42.7679 5.76446C43.5748 5.729 44.1529 6.44179 44.8729 6.70953L44.8711 6.7113Z" fill="#D4A574"/>
<path d="M52.5958 32.1183V21.6108L53.1917 21.6498C53.2892 21.7136 53.3442 22.0346 53.3584 22.1622C53.5836 24.3786 53.447 27.9178 53.3619 30.2157C53.3424 30.7583 53.2112 31.3292 53.2626 31.8949L52.5958 32.1183Z" fill="#D4A574"/>
<path d="M43.6989 43.3864L42.8512 43.4715L43.0587 32.2247L43.6031 32.425C43.635 32.7584 43.6031 33.0953 43.6155 33.4304C43.7326 36.5546 43.4985 39.7728 43.6102 42.9254C43.6155 43.0886 43.6723 43.2304 43.7006 43.3864H43.6989Z" fill="#D4A574"/>
<path d="M41.4946 19.4937L42.1791 19.5291C42.4061 19.6869 42.1774 21.0682 42.1685 21.3962C42.1064 24.0594 42.0798 26.9673 42.1685 29.6235C42.1756 29.8132 42.2554 29.9816 42.2572 30.1696H41.4946V19.4937Z" fill="#D4A574"/>
<path d="M42.2572 32.4569L42.1791 43.6736L41.5797 43.8119L41.5886 43.3084L41.8316 43.3013L41.7482 42.2871L41.5815 42.7942L41.4946 32.542L42.2572 32.4569Z" fill="#D4A574"/>
<path d="M45.9333 18.5291C45.9918 18.5894 46.1089 18.6035 46.1408 18.6993C46.2685 19.077 45.9954 19.2809 45.9776 19.616C45.8641 21.648 46.2685 24.1445 45.8801 26.1233C45.8553 26.2475 45.7276 26.3716 45.7258 26.4797C45.7258 26.5507 46.6143 27.0631 45.6159 27.5365L44.8853 26.9478L44.9367 26.7741C45.6442 26.6287 45.1406 26.1216 45.1388 25.7226C45.1388 25.563 45.2293 25.3964 45.2293 25.2155C45.2257 23.6055 45.0183 21.1054 45.2186 19.6142C45.2417 19.4458 45.3978 19.5078 45.3978 19.4511C45.3978 19.2188 44.9189 19.0752 44.9686 18.7755L45.7755 18.3057C45.8517 18.3642 45.8712 18.4617 45.9369 18.5273L45.9333 18.5291Z" fill="#D4A574"/>
<path d="M16.3255 14.6637C16.4 15.2435 16.2617 15.8499 16.2404 16.4014C16.228 16.7223 16.5312 17.3127 15.9903 17.467L15.9868 17.5858C16.8628 18.1709 16.439 18.9245 15.4672 18.6816C15.2207 18.0947 15.5151 17.9918 15.8963 17.662L15.5204 17.1301L10.7288 19.3642C9.42362 19.5291 8.53517 19.9866 7.33993 20.4653C6.82034 20.6728 6.27238 20.8732 5.73151 21.0168C5.75456 20.9015 5.8716 20.8395 5.96382 20.7845C7.14309 20.0983 8.16277 19.5522 9.4981 19.4103C10.2819 19.327 13.0962 17.6993 14.0645 17.2737C14.4936 17.084 15.1374 16.701 15.5612 16.8641L15.6179 14.8481L16.3237 14.6602L16.3255 14.6637Z" fill="#D4A574"/>
<path d="M10.14 36.0581C10.1879 35.9038 10.7607 35.6857 10.9079 35.8985C10.8671 36.6308 10.782 37.3738 10.7643 38.1061C10.7359 39.3437 10.7235 40.654 10.7252 41.9041C10.7252 42.5672 11.3441 42.9573 10.1347 43.0123C9.81906 42.6204 10.1223 42.3651 10.1436 42.0778C10.2216 41.0299 10.0106 39.9288 10.2234 38.8969C9.16292 39.1752 8.05812 38.9483 6.95687 38.9767C6.49226 38.9891 6.14291 39.2852 5.9035 38.7692C6.6359 38.3241 7.60947 38.5476 8.39683 38.5617C9.01396 38.5724 9.65059 38.3188 10.2216 38.6433C10.2624 38.5369 10.1383 38.45 10.1383 38.4323C10.1383 37.9713 10.046 36.3542 10.1383 36.0599L10.14 36.0581Z" fill="#D4A574"/>
<path d="M38.4445 19.155V21.9512C38.8506 22.0576 40.0742 22.1055 39.8401 22.7154C39.3028 22.7899 38.925 22.4176 38.4462 22.2917C38.425 23.0382 38.4728 23.7917 38.4498 24.54C38.4409 24.8467 38.2405 25.4124 38.4037 25.6801C38.5402 25.9053 39.019 25.8379 38.6892 26.4745C38.4072 27.0153 37.6305 26.6748 37.767 26.1039L37.6039 26.4088C37.4691 26.517 36.2863 26.1588 36.148 25.8946C35.9937 24.9815 37.4478 25.6429 37.9355 25.7652V22.5878C37.9355 22.5293 37.8717 22.1658 37.8167 22.1197C37.689 22.0328 35.7827 21.4885 36.0717 21.2757C36.7208 21.226 37.3184 21.5541 37.9355 21.6977L37.932 19.2969L38.4445 19.155Z" fill="#D4A574"/>
<path d="M12.4365 36.3631L12.2539 36.817L12.2592 42.8385C12.2663 43.1311 11.5445 43.202 11.4913 42.9928L11.4683 35.8648L11.5534 35.7602C12.0003 35.8577 13.5998 35.2726 13.8712 35.4606C14.0946 35.6148 13.8038 36.1964 13.5927 36.2939C13.3569 36.4003 12.6848 36.4624 12.4347 36.3631H12.4365Z" fill="#D4A574"/>
<path d="M24.6319 21.5274C24.9546 21.4405 26.6411 20.6497 26.8361 20.8483L26.8397 21.2153C26.8131 21.327 24.9209 21.9193 24.6336 21.8661C24.529 21.9671 24.7134 24.3591 24.6336 24.7882C24.5804 25.0719 24.357 24.9992 24.1247 24.9992V22.1604C24.1247 22.1604 24.3286 21.9583 24.0839 22.0345C23.6618 22.1657 22.4932 22.8643 22.1314 22.5416C22.0676 22.4849 21.752 21.8182 21.752 21.7366V19.5344L21.8796 19.4085L22.0907 19.5344V22.0345L24.1247 21.6107V18.3908L24.4953 18.311L24.6336 18.4333V21.5256L24.6319 21.5274Z" fill="#D4A574"/>
<path d="M48.1908 31.3558C48.2263 31.331 48.6714 31.8824 48.8416 31.9321C49.1768 32.0314 49.8861 32.0704 50.3082 32.159C50.849 32.2725 51.2835 32.6538 51.7517 32.2353C51.9255 32.3435 52.3067 32.5899 52.2464 32.8204C52.1241 33.0101 51.7818 33.3488 51.5477 33.3098L51.2693 32.8736C50.888 33.1236 48.8735 32.7584 48.7405 32.4623C48.6997 32.3718 48.7955 32.2229 48.7813 32.1183C48.6164 32.1325 48.6749 32.4144 48.5295 32.5013C48.4213 32.5651 47.907 32.5899 47.8397 32.4924L47.7634 32.0332C47.5914 32.0172 47.7315 32.2566 47.6676 32.3594C47.6446 32.3966 47.4513 32.4392 47.3857 32.441C47.1161 32.4445 44.6494 32.0739 44.4597 31.9906C44.0092 31.7938 44.0234 31.3948 44.2593 31.0101L47.7333 31.6874C47.9514 31.7016 48.173 31.5899 48.189 31.3558H48.1908Z" fill="#D4A574"/>
<path d="M39.1219 7.62977C39.1219 6.68293 39.0864 5.72722 39.2975 4.79633L41.1559 4.32468C41.2091 5.01442 39.7142 4.81583 39.5032 5.25557C39.4872 5.9258 39.3542 6.5854 39.2922 7.24855C39.2673 7.52338 39.3276 7.83545 39.2922 8.0961C39.2762 8.21313 39.3383 8.24327 39.1662 8.22022L29.7161 1.99481C29.8278 1.83877 29.8916 1.86182 30.0548 1.9026C30.3757 1.98417 31.1862 2.52497 31.5213 2.72888C33.3798 3.85835 35.2205 5.08535 37.0471 6.26979C37.7387 6.71839 38.3363 7.32479 39.1201 7.628L39.1219 7.62977Z" fill="#D4A574"/>
<path d="M42.5126 31.2689L41.805 31.7725L41.4947 31.3558L41.0425 31.5189C39.2159 31.104 37.1854 31.1342 35.3766 30.7388C34.7595 30.604 34.7825 30.4586 34.802 29.8309C36.3537 30.1111 37.9356 30.2068 39.4943 30.4356C39.9554 30.5029 41.1435 30.8629 41.461 30.8416C41.6507 30.8292 41.7039 30.5916 41.8635 30.6058C42.0249 30.6377 42.603 31.1395 42.5143 31.2707L42.5126 31.2689Z" fill="#D4A574"/>
<path d="M27.0046 24.2368V17.0769C27.0046 16.8234 27.7068 16.701 27.815 16.8624C27.8753 17.9989 27.8629 19.1568 27.8558 20.3022C27.8505 21.2171 27.7653 22.1764 27.7636 23.0913C27.7636 23.8289 28.3169 24.4424 27.0046 24.2385V24.2368Z" fill="#D4A574"/>
<path d="M20.9025 19.155C20.5886 19.1798 20.3652 18.8606 20.2446 18.6035C20.6524 18.256 20.7801 17.9085 20.8174 17.3765L21.4079 18.0539C21.4309 17.7897 21.7803 17.6868 22.0037 17.5893C22.4808 17.3819 23.0411 17.2772 23.5253 17.0787C23.8622 16.9404 26.5506 15.6389 26.6623 15.7666C26.6446 16.029 26.7439 16.5219 26.5187 16.7028C25.5894 17.0326 24.6638 17.6673 23.7434 17.9723C23.2362 18.1408 22.4896 18.2862 21.9541 18.3854C21.8228 18.4103 21.4434 18.3659 21.4132 18.3961C21.399 18.4103 21.4238 18.6461 21.3299 18.7844C21.2571 18.8943 21.1135 18.8216 21.0887 18.8411C21.0479 18.8731 20.9592 19.0716 20.9007 19.155C21.0621 19.1426 21.1135 19.045 21.2394 18.9865C21.4469 20.9245 21.2572 22.9211 21.321 24.8786C21.3299 25.1286 21.5427 25.7332 21.3263 25.8981L20.562 25.9336V19.7064C20.562 19.5841 20.8156 19.2773 20.9007 19.155H20.9025Z" fill="#D4A574"/>
<path d="M14.9707 43.3031L14.3482 43.2889L14.2117 43.0974C14.444 42.2782 14.2081 41.3598 14.2028 40.5512C14.1957 39.3296 14.3961 38.0157 14.295 36.8153C14.2347 36.1096 13.5803 35.2656 14.7596 35.3294C15.4282 35.3649 14.9937 36.216 14.9671 36.6468C14.8394 38.8189 15.0682 41.1169 14.9707 43.3013V43.3031Z" fill="#D4A574"/>
<path d="M20.5638 34.5332L20.9007 34.402V34.1538C20.7074 34.2176 19.9289 33.7283 20.0548 33.5598C20.4255 33.4977 20.7606 33.1573 20.8192 32.7956L21.4168 33.5208C21.1632 33.9233 21.3299 34.0829 21.3316 34.4446C21.3405 36.528 21.3228 38.6025 21.243 40.6753L20.7376 40.725L20.5656 40.6328V34.5315L20.5638 34.5332Z" fill="#D4A574"/>
<path d="M45.7542 32.9428C45.8695 33.0775 46.1479 32.9587 46.1656 33.347C46.1816 33.7123 45.8642 33.8665 45.85 34.0244C45.8411 34.1219 45.9812 34.3985 45.9901 34.6148C46.0681 36.4872 45.9688 38.3862 45.9032 40.2533L45.2701 40.3349L45.1761 40.1593L45.224 34.0669C45.2861 34.0048 45.74 34.2123 45.6478 33.8985C45.4368 33.9552 44.9633 33.5137 44.9651 33.3452L45.5645 32.6271C45.7365 32.6484 45.6904 32.8683 45.7542 32.9428Z" fill="#D4A574"/>
<path d="M27.5047 33.1272L26.9266 33.0013L26.5808 32.5421C26.6553 33.1219 25.6959 33.1999 25.2454 33.2832C24.0538 33.5013 22.816 33.5456 21.6296 33.8187C21.548 33.8081 21.4505 33.2726 21.5356 33.1343C21.6119 33.0084 22.9224 32.73 23.1901 32.6679C23.9509 32.496 24.8464 32.3133 25.6161 32.214C26.2704 32.1289 27.1039 32.4534 27.0897 31.5261L27.7583 32.2584L27.5047 33.1272Z" fill="#D4A574"/>
<path d="M16.3273 36.1007V43.2605C16.3273 43.2818 16.478 43.3616 16.4762 43.4307C16.4727 43.7818 15.8307 43.6878 15.6073 43.64C15.2349 43.5602 15.7279 43.0779 15.7421 42.8385C15.7527 42.6523 15.6516 42.4537 15.6463 42.2481C15.6108 40.6806 15.4495 37.9412 15.6587 36.4908C15.6747 36.3808 15.7368 36.1078 15.8166 36.0528L16.3291 36.1007H16.3273Z" fill="#D4A574"/>
<path d="M29.1451 36.5475L29.0741 36.7373C29.1326 36.9429 29.2018 37.1043 29.2107 37.3277C29.2816 39.0352 29.3632 41.6062 29.2107 43.2659C29.1912 43.4716 29.1823 43.7216 28.9535 43.812L28.9252 36.7443C28.9074 36.3472 28.2797 36.4837 28.0208 36.3135C28.2531 36.0475 28.7904 36.1184 28.8666 35.7177C28.8613 34.645 28.8791 33.5705 28.872 32.496C28.872 32.2708 28.7744 32.0651 28.7762 31.8222C28.7797 31.3133 29.1433 30.5278 29.2107 31.3931C29.2834 32.3328 29.239 33.6609 29.2107 34.6202C29.2018 34.9393 28.9766 35.551 29.2054 35.8046C29.4731 36.1025 30.2676 36.0936 29.1451 36.5458V36.5475Z" fill="#D4A574"/>
<path d="M33.5306 10.004L34.1264 10.1281C34.2239 10.1901 34.2789 10.5129 34.2931 10.6405C34.4137 11.8196 34.3144 13.4828 34.2966 14.7116C34.2895 15.1903 34.1175 15.162 34.536 15.6247C34.3764 16.006 33.8551 16.4475 33.5252 15.9865C33.3231 15.7045 33.527 15.3552 33.5341 15.052C33.5731 13.3729 33.4969 11.6867 33.5323 10.0075L33.5306 10.004Z" fill="#D4A574"/>
<path d="M50.7321 40.1682L49.7993 40.2515C49.8028 39.6167 49.794 38.9802 49.7993 38.3454C49.8011 38.0121 49.7975 37.7372 49.7975 37.4163C49.7975 36.95 49.7177 35.6432 49.9004 35.3116C50.0653 35.0137 50.3792 35.1485 50.6505 35.207L50.7321 40.1682Z" fill="#D4A574"/>
<path d="M51.3261 40.9289C49.7513 41.5406 47.9195 41.5087 46.2401 41.608L46.2774 40.7551C46.9264 40.4909 47.6393 40.6204 48.3203 40.5955C48.9409 40.5725 49.5758 40.3881 50.2231 40.592C50.317 39.8313 51.1949 40.4626 51.3261 40.9289Z" fill="#D4A574"/>
<path d="M38.1909 16.4422C37.8344 16.1815 38.1093 13.1743 38.1058 12.5874C38.3452 12.4456 38.4232 12.6051 38.4498 12.8374C38.5349 13.5662 38.5065 15.1407 38.4498 15.896C38.4445 15.9687 38.4055 16.6 38.1927 16.4439C38.8027 16.7064 40.2409 17.3199 40.7622 17.6461C41.1825 17.9085 41.1471 17.8873 41.2428 18.3093C41.4113 18.2312 41.5585 18.0752 41.5833 17.8855H41.75C41.7801 18.2543 42.947 18.7206 42.1153 18.9689C41.4343 19.171 41.3581 18.8128 41.2428 18.3093C40.5512 18.632 39.0776 17.8802 38.3895 17.561C37.8717 17.3216 36.4069 16.6372 36.2047 16.1868C36.1533 16.0734 36.1462 15.9741 36.1586 15.8517C36.4282 15.8269 36.6853 15.8836 36.9407 15.9599C37.2616 16.0556 37.8681 16.3056 38.1927 16.4457L38.1909 16.4422Z" fill="#D4A574"/>
<path d="M27.0046 25.001C26.9904 25.1676 27.0419 25.384 26.9904 25.5382C26.8769 25.8787 24.9014 26.0329 24.4829 26.2439C24.3606 26.306 24.3588 26.4319 24.2879 26.4744C24.0059 26.6482 23.7665 26.5259 23.5253 26.5649C22.9312 26.6624 22.3531 26.8858 21.7484 26.8645L21.7608 26.3255L21.8903 26.2014L26.3201 25.04L27.0029 25.001H27.0046Z" fill="#D4A574"/>
<path d="M56.5787 44.6595C56.7366 44.8279 56.2436 44.906 56.185 44.9077C53.3867 44.9769 50.2248 45.8103 47.3733 46.172C46.1284 46.3298 44.8604 46.4433 43.6138 46.5213L44.2735 46.2925C47.7847 45.8954 51.2605 45.0691 54.7681 44.6701C55.0962 44.6329 56.3943 44.4627 56.577 44.6595H56.5787Z" fill="#D4A574"/>
<path d="M16.6642 46.6082C16.6837 46.7553 16.4709 46.6879 16.3698 46.6915C14.2365 46.7713 11.2821 46.0993 9.07959 45.8457C7.0562 45.6117 5.01152 45.4946 2.9899 45.2411C2.7576 45.2127 2.48273 45.1719 2.25574 45.1258C2.16352 45.1063 1.98264 45.1205 2.00392 44.9982C3.70634 45.0655 5.43003 45.1702 7.13068 45.3368C8.61674 45.4822 10.1294 45.6666 11.6119 45.8546C13.2984 46.0674 14.9866 46.3457 16.6642 46.6082Z" fill="#D4A574"/>
<path d="M0.478812 22.8821L0.56748 36.8259C0.569253 36.9996 0.461079 37.1876 0.267783 37.2035L0.22345 22.9335L0.478812 22.8839V22.8821Z" fill="#D4A574"/>
<path d="M53.2697 34.0722C53.2768 34.285 53.3478 34.4871 53.3619 34.6999C53.4134 35.4765 53.4577 37.1096 53.3619 37.8437C53.3212 38.1646 53.0392 38.177 53.3619 38.2674C53.2502 38.443 53.3141 38.6806 53.2697 38.8384C53.2502 38.9111 53.1101 38.8951 53.1013 38.9554C53.08 39.0777 53.1846 39.2285 53.1438 39.3278C53.0995 39.4359 52.8938 39.4785 52.8512 39.7054C52.7803 40.0831 52.7838 40.7374 52.7661 41.1452C52.7608 41.248 52.8299 41.459 52.681 41.4395C52.6757 40.0689 52.6845 38.6965 52.6828 37.3259C52.6828 36.7053 52.6668 36.1876 52.6828 35.5546C52.6969 35.0315 52.665 34.5049 52.681 33.9836L53.2697 34.0722Z" fill="#D4A574"/>
<path d="M49.8613 27.9054C49.9215 27.9816 49.8825 28.1518 50.012 28.2192C50.2425 28.0649 50.1521 27.6092 50.4766 27.6288C50.5156 27.8752 50.9288 28.0437 51.1558 28.1376C51.2125 28.2174 50.6078 29.0136 50.4447 28.9799L49.9269 28.3061L49.8063 28.6093L46.4085 27.5862L46.3252 26.8645C46.4511 26.7298 49.746 27.76 49.8613 27.9054Z" fill="#D4A574"/>
<path d="M50.1379 34.152L50.1805 33.7283L51.2392 34.363L50.6912 34.9978C50.404 34.9198 50.1433 34.5173 50.0901 34.5049C50.0369 34.4925 49.5013 34.5865 49.2601 34.5652C48.4355 34.4943 47.4229 34.0315 46.5576 33.9641C46.2862 33.8276 46.3217 33.4729 46.327 33.2194C46.4565 33.0882 49.2229 33.6857 49.5864 33.8169C49.8347 33.9074 49.9447 33.9871 50.1415 34.152H50.1379Z" fill="#D4A574"/>
<path d="M57.0025 37.0759C56.983 37.1468 56.8394 37.2302 56.749 37.2018L56.6567 23.1765L56.6745 23.0612L57.0025 22.9672V37.0759Z" fill="#D4A574"/>
<path d="M13.6158 37.0316V40.2019L13.4455 40.2941C13.5307 40.3632 13.5998 40.4359 13.614 40.5512C13.6708 41.0264 13.6778 42.374 13.6193 42.8403C13.5697 43.2392 13.3054 43.202 13.0182 42.991C12.9348 42.2693 13.1121 41.4963 13.1121 40.803C13.1121 39.7036 12.8834 38.427 13.0182 37.3241C13.0288 37.2337 13.0146 37.1273 13.1015 37.0688L13.6158 37.0316Z" fill="#D4A574"/>
<path d="M48.0206 34.6609V37.4146L48.1447 37.521C48.4569 37.4341 48.8452 37.427 49.1662 37.4571C49.3985 37.4784 49.7815 37.6202 49.4641 37.8419C49.3027 37.9536 48.299 37.7195 48.0206 37.7125V40.1274L47.5968 40.2551V37.7976L46.2792 37.6327L46.2419 37.3738H47.5986V34.8737C47.5986 34.7921 47.9018 34.6024 48.0224 34.6627L48.0206 34.6609Z" fill="#D4A574"/>
<path d="M23.7842 34.0244L23.9544 33.9393L24.1282 34.2744C24.0892 36.2816 24.1637 38.2923 24.1282 40.2977C24.1246 40.4502 24.0307 40.6399 24.0378 40.709C24.0448 40.7853 25.0468 41.3952 23.997 41.8633L23.3692 41.2108L23.3976 41.0973C23.4703 41.0335 23.7842 40.8704 23.7842 40.8012V34.0226V34.0244Z" fill="#D4A574"/>
<path d="M38.3594 27.3734L38.2707 28.6696L38.769 29.1962C38.3629 29.8451 38.1572 29.4196 37.6961 29.3682C36.7988 29.2706 35.9831 29.3806 35.0379 29.0455C34.8109 28.9657 34.6761 28.9213 34.7187 28.6447C34.9492 28.8965 35.1071 28.6802 35.3518 28.6891C35.9299 28.7121 37.5614 29.0472 37.9657 28.8008C38.2707 28.6146 37.8965 27.7316 38.0224 27.3734H38.3612H38.3594Z" fill="#D4A574"/>
<path d="M24.3765 29.7884C24.3889 29.8345 24.5804 29.9267 24.5521 30.1199L24.1265 30.3912L23.6122 30.0419L23.8746 29.7068C23.8817 29.3061 23.6086 26.9337 23.9225 26.861C24.0715 26.8255 24.2878 26.861 24.3765 26.9922V29.7884Z" fill="#D4A574"/>
<path d="M22.0037 40.6771L21.5764 40.5441C21.6225 40.0636 21.5675 39.3242 21.6686 38.8703C21.6828 38.8029 21.8229 38.8472 21.8441 38.6912C21.8973 38.2905 21.7076 37.9979 21.6668 37.6273L21.9275 37.5812C21.8831 37.3277 21.9736 36.9855 21.9204 36.7532C21.9044 36.684 21.7661 36.7301 21.7466 36.5741C21.6987 36.2035 21.72 35.3489 21.7501 34.9552C21.7608 34.8028 21.7271 34.6804 21.8814 34.5793C22.1899 34.5882 22.0959 36.3436 22.0959 36.6574C22.0959 37.0723 22.0977 37.505 22.0959 37.9217C22.0942 38.3118 22.1421 40.5477 22.0073 40.6789L22.0037 40.6771Z" fill="#D4A574"/>
<path d="M29.2922 7.54644L29.0971 7.81772L19.4625 13.0537C19.686 12.7505 20.0956 12.5555 20.4219 12.3622C22.5162 11.1157 24.7542 10.1157 26.8609 8.88691C27.1943 8.69187 29.0759 7.36026 29.2922 7.54821V7.54644Z" fill="#D4A574"/>
<path d="M55.9864 7.71489C56.1354 7.69538 56.0662 7.90638 56.0715 8.011C56.1017 8.77521 56.0768 9.53765 56.1602 10.2965C56.0786 12.5023 56.2347 14.7222 56.2098 16.9227C56.2063 17.2135 56.2098 17.7312 55.8179 17.5858C55.802 17.2613 56.0254 16.9511 56.0432 16.6425C56.1265 15.1797 56.0839 12.8569 55.9882 11.4012C55.9687 11.1069 55.9988 10.8072 55.9882 10.5111C55.8747 10.3976 53.4895 10.6512 53.0622 10.5962C52.9079 10.5767 52.9256 10.6246 52.9362 10.426H55.9864V7.71489Z" fill="#D4A574"/>
<path d="M28.5935 0.0212782C29.5937 -0.226958 30.0619 1.70751 29.0617 1.93447C27.4338 2.30328 27.581 0.273061 28.5935 0.0212782ZM28.3027 1.41849C28.4463 1.57453 28.7585 1.68446 28.9535 1.57275C29.3029 1.28196 29.3064 0.765987 28.9518 0.46633C28.363 0.377675 27.8221 0.893651 28.3027 1.41849Z" fill="#D4A574"/>
<path d="M42.1738 15.1726V17.7152C41.9699 17.8358 41.4964 17.7861 41.4964 17.5042V15.0892L42.1738 15.1743V15.1726Z" fill="#D4A574"/>
<path d="M41.9788 3.4115C42.6402 3.26078 43.417 3.88492 43.1261 4.5587C42.7803 5.35661 41.5372 5.25731 41.2765 4.41331C41.1595 4.03563 41.6348 3.48951 41.9806 3.4115H41.9788ZM42.0639 3.83527C40.9095 4.09592 42.619 5.59598 42.752 4.04627C42.6704 3.76967 42.2927 3.78385 42.0639 3.83527Z" fill="#D4A574"/>
<path d="M29.1876 25.1499C29.1308 25.2084 28.8489 25.3201 28.7833 25.2119C28.7744 24.8821 29.1025 24.8839 29.1308 24.5346C29.1503 24.2988 29.0404 24.0381 29.0333 23.7757C29.0014 22.2952 29.0102 20.7933 29.1237 19.3234C29.2762 19.3553 29.2816 19.4901 29.2958 19.616C29.333 19.9547 29.3649 20.4564 29.3809 20.8022C29.4288 21.8785 29.4039 23.7332 29.2922 24.7899C29.2798 24.9016 29.2638 25.0701 29.1876 25.1499Z" fill="#D4A574"/>
<path d="M56.6409 37.3897C57.6854 37.2816 57.8485 39.1735 56.7898 39.2426C55.7311 39.3118 55.4527 37.5138 56.6409 37.3897ZM56.3447 38.7923C57.203 39.3348 57.5453 37.7497 56.7065 37.7479C56.139 37.7479 56.1124 38.4075 56.3447 38.7923Z" fill="#D4A574"/>
<path d="M35.3943 17.1212C35.46 16.4776 34.8215 16.2737 34.7151 15.6815C35.1319 15.7559 35.3997 15.5804 35.7632 15.4385C36.219 15.6407 35.8359 15.9971 35.8483 16.1442C35.8536 16.2205 36.0008 16.2896 35.9778 16.4652C35.9512 16.6691 35.5735 17.0007 35.3943 17.1212Z" fill="#D4A574"/>
<path d="M11.9205 17.6284C12.8994 16.8039 14.1513 16.3145 15.2242 15.5964L15.1391 16.146C14.0751 16.6549 13.0554 17.2844 11.9205 17.6301V17.6284Z" fill="#D4A574"/>
<path d="M32.1473 45.6897C32.5818 45.5567 33.0606 46.1507 32.8726 46.5851C32.3956 47.6791 31.1489 46.3351 32.1473 45.6897Z" fill="#D4A574"/>
<path d="M49.3453 30.2033C49.3701 30.2122 49.3772 30.3327 49.434 30.3416C49.5936 30.3682 49.7319 30.2494 49.8365 30.2529C49.8844 30.2529 49.872 30.3895 49.9482 30.4196C50.2639 30.5384 50.725 30.276 50.9023 30.5934C49.473 30.51 47.8823 30.221 46.5275 29.7582C46.4157 29.721 46.2685 29.7334 46.2419 29.5792C47.306 29.6111 48.3522 29.8185 49.3471 30.2051L49.3453 30.2033Z" fill="#D4A574"/>
<path d="M35.0787 24.9424C35.4369 24.6481 36.2633 25.0861 36.0274 25.5932C35.9512 25.7581 35.5575 26.0081 35.4351 26.1854C35.0876 25.8981 34.607 25.329 35.0787 24.9424Z" fill="#D4A574"/>
<path d="M43.0251 32.1165C42.8868 31.7087 42.4984 31.1945 43.0269 30.8966C43.4667 30.6501 43.7327 30.8771 43.9171 31.276C43.7628 31.6945 43.5092 32.081 43.0251 32.1165Z" fill="#D4A574"/>
<path d="M28.191 15.7666C28.3275 15.9616 27.5259 16.5804 27.3663 16.6017C27.0968 16.6389 26.6942 16.0219 26.8734 15.7612C26.9691 15.6229 27.5738 15.5839 27.4284 15.0875C27.6146 15.1619 27.5455 15.4474 27.7192 15.5999C27.831 15.6992 28.0438 15.7329 28.1892 15.7666H28.191Z" fill="#D4A574"/>
<path d="M34.0111 29.4196C34.1796 29.4036 34.5555 29.9622 34.5484 30.1182C34.536 30.3629 34.1565 30.7654 33.9082 30.7601C33.4809 30.7512 33.1102 29.5029 34.0111 29.4196Z" fill="#D4A574"/>
<path d="M52.9966 32.4694C53.3051 32.3843 53.3406 32.6307 53.5339 32.7477C53.6598 32.824 53.8549 32.769 53.9506 32.9233L53.0622 33.6999C52.4947 33.5386 52.383 32.6396 52.9948 32.4694H52.9966Z" fill="#D4A574"/>
<path d="M45.9866 40.8456L45.9742 41.5974C45.2595 41.8935 45.1726 41.9963 44.7186 41.3066L45.2666 40.5087L45.3872 40.8119L45.9866 40.8473V40.8456Z" fill="#D4A574"/>
<path d="M1.04805 6.54283C1.5304 6.40275 2.1227 7.02512 1.83897 7.50741C1.78399 7.60315 1.3974 7.95955 1.28036 7.97196C0.43802 7.96132 0.383046 6.7361 1.04805 6.54283ZM1.4843 7.61911C1.83542 7.39747 1.11899 6.3602 0.918598 7.01271C0.790917 7.43294 1.16332 7.82125 1.4843 7.61911Z" fill="#D4A574"/>
<path d="M30.6187 11.5413C31.422 11.8799 31.7199 12.0572 30.9078 12.6761C30.4626 13.0147 30.3509 12.4048 30.1399 12.0785L30.6205 11.5413H30.6187Z" fill="#D4A574"/>
<path d="M21.8477 41.7658C21.4664 41.0442 22.151 41.03 22.7238 41.0087C23.2292 40.991 23.3214 41.2091 23.1086 41.6523L21.8477 41.7658Z" fill="#D4A574"/>
<path d="M1.30524 42.5549C1.65459 42.5034 2.02345 43.0176 2.00394 43.3386C1.98266 43.679 1.52513 43.9946 1.21125 44.0514C0.524965 43.6914 0.438071 42.6825 1.30347 42.5549H1.30524ZM1.12613 42.9769C0.856581 43.0655 0.980716 43.507 1.19529 43.6471C1.71134 43.9893 2.17418 42.6967 1.12613 42.9769Z" fill="#D4A574"/>
<path d="M50.9005 42.1169C50.9661 42.3509 50.6611 42.319 50.5068 42.3563C49.5829 42.5814 48.6218 42.6701 47.6819 42.7924C47.8308 42.6222 47.9603 42.4609 48.182 42.4077C49.0101 42.2073 50.0511 42.1506 50.9023 42.1151L50.9005 42.1169Z" fill="#D4A574"/>
<path d="M22.1616 25.5808L21.7502 25.6783C21.7927 24.9212 21.775 24.0949 21.83 23.3449C21.8406 23.1924 21.8069 23.0701 21.9612 22.969C22.0729 22.9655 22.1616 23.8768 22.1722 24.0276C22.2059 24.54 22.1616 25.0684 22.1598 25.5808H22.1616Z" fill="#D4A574"/>
<path d="M21.4789 26.3734C21.6296 26.6305 21.1898 27.4018 20.8954 27.3362C20.2357 27.189 20.5744 26.4673 20.9043 26.1393C20.9965 26.0595 21.4647 26.3468 21.4806 26.3734H21.4789Z" fill="#D4A574"/>
<path d="M24.2914 44.6577L23.3604 44.4875C23.2806 44.1914 23.5448 44.202 23.6512 44.0584C23.8906 43.7375 23.7931 42.8438 23.6991 42.4555C24.2701 42.5442 23.9438 43.1204 23.9598 43.4999C23.9793 43.9307 24.2665 44.2446 24.2914 44.6577Z" fill="#D4A574"/>
<path d="M30.5034 30.5686C30.4573 30.526 30.2853 30.2388 30.264 30.1732C30.1576 29.8522 30.475 29.6607 30.6063 29.3256L31.2305 30.1129C31.1099 30.3292 30.7659 30.8062 30.5034 30.5704V30.5686Z" fill="#D4A574"/>
<path d="M19.2852 31.5314C19.3384 32.4392 18.5901 32.5296 18.1077 31.8204C18.3365 31.5881 18.7 31.5775 18.7 31.1856H18.7816C18.8082 31.4622 19.0511 31.503 19.2835 31.5314H19.2852Z" fill="#D4A574"/>
<path d="M55.873 6.45596C56.3305 6.3017 56.8501 7.05705 56.5291 7.36557C56.1301 7.75034 55.3552 7.61381 55.5165 7.03577C55.5485 6.92229 55.7684 6.49143 55.873 6.45596ZM56.3128 6.88151C56.0485 6.73434 55.7222 6.72902 55.6478 7.07833C55.8109 7.28933 56.0964 7.19181 56.3252 7.20599L56.311 6.88151H56.3128Z" fill="#D4A574"/>
<path d="M28.175 25.2403L27.6394 25.6765C27.4674 25.469 27.0897 25.2846 27.1837 24.9744L27.6377 24.4938C27.87 24.7137 28.292 24.836 28.1732 25.2403H28.175Z" fill="#D4A574"/>
<path d="M18.301 17.5184C18.0439 17.217 18.505 16.6442 18.8242 16.5272C19.4306 16.9989 18.8774 18.194 18.301 17.5184Z" fill="#D4A574"/>
<path d="M28.4517 44.4113C28.7727 44.4166 28.8826 44.2623 29.0777 44.1524C30.1665 44.9663 28.4215 45.7411 28.4517 44.4113Z" fill="#D4A574"/>
<path d="M52.4699 7.46133C52.4326 7.45778 52.0638 7.37976 52.0886 7.29288C53.1579 7.14749 54.2361 7.20422 55.309 7.29288C55.3143 7.34785 55.1955 7.46133 55.1813 7.46133C54.3514 7.46133 53.2608 7.54998 52.4699 7.46133Z" fill="#D4A574"/>
<path d="M39.7923 26.9408C39.5174 27.0578 39.2195 26.9089 38.9517 26.8238L38.9073 26.1819L39.7213 26.2227L39.7923 26.9408Z" fill="#D4A574"/>
<path d="M21.0514 43.663C21.7271 43.491 21.7413 44.4148 21.1951 44.4911C20.5584 44.5797 20.4059 43.8262 21.0514 43.663Z" fill="#D4A574"/>
<path d="M28.7833 29.0685C28.7602 29.5259 27.4586 29.6873 27.2582 29.5756C27.3043 29.4036 27.3114 29.0685 27.5543 29.0685H28.7833Z" fill="#D4A574"/>
<path d="M0.987775 45.5904C0.973588 45.5709 0.766106 45.6985 0.812213 45.2943C0.883147 44.6825 1.51091 44.835 1.91878 45.0389L1.66697 45.1223C1.99149 45.4468 1.38323 46.2198 1.07999 46.0071C1.0197 45.9645 1.0126 45.6258 0.987775 45.5904C1.57298 45.9166 1.91524 44.9379 1.15447 45.1223L0.987775 45.5904Z" fill="#D4A574"/>
<path d="M52.2323 9.92949C52.5834 9.8302 52.9576 10.3604 52.8086 10.6795C52.7838 10.7327 52.4131 11.0927 52.3724 11.0998C51.8634 10.9951 51.7588 10.066 52.2323 9.93127V9.92949ZM52.3138 10.1848C51.9751 10.2717 52.0248 10.8143 52.461 10.6742C52.6969 10.598 52.6525 10.0979 52.3138 10.1848Z" fill="#D4A574"/>
<path d="M29.9696 15.0006C29.599 15.052 29.2284 15.3251 28.8719 15.3889C28.7673 15.4084 28.6414 15.4226 28.6148 15.2967C28.5456 14.9598 29.9342 14.396 29.9696 15.0006Z" fill="#D4A574"/>
<path d="M57.5115 18.6461L56.4954 17.8429C56.7277 17.2134 57.7456 18.1585 57.5115 18.6461Z" fill="#D4A574"/>
<path d="M0.478832 39.5742V42.624H0.395485C0.485925 42.4201 0.310364 42.1027 0.310364 41.9892V39.5742H0.480605H0.478832Z" fill="#D4A574"/>
<path d="M56.749 39.9129C57.1516 40.2462 56.5806 40.8562 56.9937 41.3066L56.749 42.2853V39.9129Z" fill="#D4A574"/>
<path d="M15.4796 31.1023C14.749 32.7867 13.1973 33.9375 11.3264 33.9818C11.7591 33.6024 12.3869 33.5492 12.91 33.2371C13.8091 32.7016 14.4706 31.9232 14.8838 30.9693L15.4778 31.1041L15.4796 31.1023Z" fill="#D4A574"/>
</g>
<defs>
<clipPath id="clip0_147_1361">
<rect width="157" height="47" fill="white"/>
</clipPath>
</defs>
</svg>
