<svg width="1109" height="663" viewBox="0 0 1109 663" fill="none" xmlns="http://www.w3.org/2000/svg">
<g clip-path="url(#clip0_3821_40)">
<path d="M38 198.5H77.7L76.3 210.1H62.7L55.4 263.6H43.3L50.6 210.1H36.5L38 198.5Z" fill="#999999"/>
<path d="M84.4 198.5H96.7L93.3 223H115.6L119 198.5H131.3L122.3 263.6H110L114 234.1H91.7L87.6 263.6H75.5L84.4 198.5Z" fill="#999999"/>
<path d="M145.3 198.5H180.3L178.8 210H156.1L154.2 223.4H177L175.5 234.9H152.6L150.2 252.1H173.3L171.8 263.5H136.4L145.3 198.5Z" fill="#999999"/>
<path d="M893.7 136.8L801 263.5H777.8L870.4 136.8H893.7Z" fill="#999999"/>
<path d="M1022.1 191.2H1045.3L992.4 263.5H969.2L1022.1 191.2Z" fill="#999999"/>
<path d="M1109 231.8L1085.8 263.5H1062.6L1085.9 231.8H1109Z" fill="#999999"/>
<path d="M808.4 0L615.8 263.5H592.6L785.2 0H808.4Z" fill="url(#paint0_linear_3821_40)"/>
<path d="M1006.2 116.9L899 263.5H875.8L983.1 116.9H1006.2Z" fill="#999999"/>
<path d="M846.6 75.5L709.1 263.5H686L823.4 75.5H846.6Z" fill="#999999"/>
<path d="M215.3 525.8L308 399H331.3L238.6 525.8H215.3Z" fill="#999999"/>
<path d="M86.8998 471.3H63.7998L116.6 399H139.8L86.8998 471.3Z" fill="#999999"/>
<path d="M0 430.8L23.2 399H46.4L23.2 430.8H0Z" fill="#999999"/>
<path d="M516.5 399L323.8 662.5H300.6L493.2 399H516.5Z" fill="url(#paint1_linear_3821_40)"/>
<path d="M102.8 545.7L210 399H233.2L126 545.7H102.8Z" fill="#999999"/>
<path d="M262.5 587L399.9 399H423.1L285.6 587H262.5Z" fill="#999999"/>
<path d="M563.7 409.1C561.2 407.3 558.7 406.4 556.1 406.4C550.9 406.4 548.3 408.4 548.3 412.3C548.3 414 549.7 415.9 552.4 418.2L557.3 422.3C558.8 423.6 559.8 424.5 560.4 425.1C561 425.7 561.6 426.5 562.2 427.6C562.8 428.7 563.3 429.7 563.6 430.8C563.9 431.9 564.1 433 564.1 434.1C564.1 438.4 562.5 441.8 559.3 444.2C556.1 446.6 551.9 447.8 546.7 447.8C542.5 447.8 538.5 446.9 534.7 445.1L537.4 436.8C540.3 439 543.6 440.1 547.4 440.1C549.7 440.1 551.6 439.6 553.1 438.6C554.6 437.6 555.4 436.2 555.4 434.4C555.4 432.6 554 430.7 551.3 428.5L546.2 424.5C544.7 423.3 543.6 422.4 543.1 421.8C542.6 421.2 542 420.5 541.4 419.5C540.8 418.5 540.3 417.5 540 416.4C539.7 415.3 539.5 414.3 539.5 413.1C539.5 408.8 540.9 405.3 543.8 402.8C546.7 400.3 550.4 399 555.1 399C556.6 399 558.6 399.2 561 399.5C563.4 399.9 565.1 400.3 566.1 400.7L563.7 409.1Z" fill="#B3B3B3"/>
<path d="M581.3 429.5C581.3 421.1 583.6 413.9 588.2 408C592.8 402 598.8 399.1 606.1 399.1C611.7 399.1 616.1 400.6 619.1 403.6C622.1 406.6 623.7 410.9 623.7 416.6C623.7 425.9 621.4 433.4 616.7 439.2C612 445 605.6 447.9 597.5 447.9C592.5 447.9 588.6 446.2 585.7 442.9C582.7 439.4 581.3 435 581.3 429.5ZM590 428.6C590 432.2 590.7 435.1 592.2 437.3C593.6 439.4 595.7 440.5 598.5 440.5C603.6 440.5 607.6 438.2 610.6 433.6C613.6 429 615 423.5 615 417.1C615 409.9 611.8 406.3 605.5 406.3C601 406.3 597.3 408.7 594.4 413.4C591.4 418.1 590 423.2 590 428.6Z" fill="#B3B3B3"/>
<path d="M675.2 432.5C674.3 437.4 672 441.1 668.4 443.8C664.8 446.5 660.3 447.8 655 447.8C650.6 447.8 646.9 446.7 644.1 444.6C641.3 442.5 639.9 439.5 639.9 435.8C639.9 434.7 640 433.4 640.3 432.2L646.2 399.9H654.8L648.8 432.1C648.7 432.7 648.6 433.3 648.6 433.9C648.6 436 649.3 437.7 650.6 438.8C651.9 440 653.7 440.5 655.9 440.5C658.8 440.5 661.2 439.7 663.1 438.1C665 436.5 666.2 434.3 666.7 431.5L672.6 399.8H681.1L675.2 432.5Z" fill="#B3B3B3"/>
<path d="M718.4 426.1L728.9 447H719.5L710.5 427.5C709 427.5 707.2 427.4 705.1 427.2L701.5 447H692.9L701.5 399.8C707.8 399.5 711.9 399.3 713.8 399.3C718.9 399.3 722.9 400.3 725.9 402.2C728.9 404.2 730.3 407 730.3 410.7C730.3 414.5 729.2 417.8 727.1 420.5C724.9 423.4 722 425.2 718.4 426.1ZM708.7 407.1L706.3 420.3C707.6 420.4 708.7 420.5 709.7 420.5C717.8 420.5 721.9 417.9 721.9 412.8C721.9 410.6 721.1 409.1 719.6 408.2C718 407.3 715.5 406.8 711.9 406.8C711.5 406.7 710.5 406.9 708.7 407.1Z" fill="#B3B3B3"/>
<path d="M781.4 408.9C779 407.2 776.2 406.3 773.2 406.3C768.4 406.3 764.3 408.6 761 413.2C757.7 417.8 756.1 422.9 756.1 428.5C756.1 432.1 757 435 758.8 437.2C760.6 439.4 763.1 440.5 766.2 440.5C771.1 440.5 775 439.2 777.8 436.5L777.6 443.9C774.5 446.6 770.2 447.9 764.4 447.9C759.3 447.9 755.2 446.2 752 442.9C748.9 439.5 747.3 435.2 747.3 429.8C747.3 421.1 749.7 413.8 754.5 408C759.3 402.1 765.6 399.2 773.4 399.2C777.2 399.2 780.6 399.8 783.5 401.1L781.4 408.9Z" fill="#B3B3B3"/>
<path d="M834.8 407.2H813.1L811.1 418.1H826.7L825.4 425.1H809.8L807.2 439.7H828.6L827.2 447H797.2L805.9 399.8H836.3L834.8 407.2Z" fill="#B3B3B3"/>
<path d="M37.1 278.2H50.5L40.5 346.2C40.4 346.9 40.3 348 40.3 349.6C40.3 355.3 42.2 359.8 45.9 363.1C49.6 366.4 54.8 368 61.4 368C69 368 75.2 366 80.1 362C84.9 358 87.9 352.4 89 345.1L98.8 278.2H112.4L101.6 348.4C100.1 358.5 95.8 366.4 88.6 372.3C81.5 378.2 72.5 381.1 61.8 381.1C51.1 381.1 42.7 378.3 36.4 372.7C30.2 367.1 27 359.6 27 350.1C27 348.5 27.2 346.6 27.5 344.3L37.1 278.2Z" fill="url(#paint2_linear_3821_40)"/>
<path d="M153.2 278.2H166.5L153.9 364.1H183.2L181.1 377.7H138.4L153.2 278.2Z" fill="url(#paint3_linear_3821_40)"/>
<path d="M217.2 278.2H282.3L280.6 291.5H254.5L242 377.8H228.6L240.9 291.5H215.3L217.2 278.2Z" fill="url(#paint4_linear_3821_40)"/>
<path d="M314.8 278.2H331.8C342.4 278.2 350.9 280.8 357.3 286C363.7 291.2 366.8 298.2 366.8 306.9C366.8 313.6 364.4 319.7 359.6 325.3C354.8 330.8 348.4 334.5 340.3 336.4L362 377.8H347.5L326.4 337.5L319.6 337.3L313.5 377.8H300.1L314.8 278.2ZM326.5 290.2L321.6 325.2C332.9 325.2 340.8 323.4 345.5 319.8C350.2 316.2 352.5 311.8 352.5 306.7C352.5 303.2 351.4 300 349.2 297.2C347 294.4 344.3 292.5 341.1 291.6C337.8 290.6 333 290.2 326.5 290.2Z" fill="url(#paint5_linear_3821_40)"/>
<path d="M453.2 274.3L480.6 377.7H467.3L461.3 354.8H421.7L408.5 377.7H393.3L453.2 274.3ZM448.9 307.7L428 343.8H458.3L448.9 307.7Z" fill="url(#paint6_linear_3821_40)"/>
<path d="M581.9 291.3L570.3 299C565.3 292.4 559.3 289.2 552.4 289.2C547.8 289.2 543.8 290.7 540.2 293.8C536.6 296.9 534.9 300.4 534.9 304.3C534.9 307.6 536.2 310.5 538.7 313C541.2 315.5 546.3 318.5 554 322.1C561.7 325.7 567.4 329.7 571.2 334.2C575 338.7 576.9 344.2 576.9 351C576.9 359 573.5 366.1 566.8 372.1C560.1 378.1 552 381 543 381C535.8 381 528.9 379 522.6 375.1C516.2 371.2 511.6 366 508.8 359.4L521.5 353.5C527 362.3 534.1 366.7 542.8 366.7C548 366.7 552.5 365 556.5 361.7C560.5 358.3 562.5 354.6 562.5 350.4C562.5 347.1 561.2 344.2 558.6 341.7C556 339.2 550.9 336.2 543.3 332.7C535.7 329.2 530 325.2 526.3 320.7C522.6 316.2 520.7 310.7 520.7 304.1C520.7 296 523.8 289.1 530 283.4C536.2 277.7 543.6 274.8 552.4 274.8C564.8 274.8 574.7 280.3 581.9 291.3Z" fill="url(#paint7_linear_3821_40)"/>
<path d="M609.1 329C609.1 313.8 614.6 301 625.5 290.5C636.4 280 649.8 274.8 665.7 274.8C680.4 274.8 692.8 279.7 702.9 289.6C713 299.5 718 311.5 718 325.9C718 341.3 712.6 354.4 701.7 365.1C690.9 375.8 677.7 381.2 662.1 381.2C646.9 381.2 634.3 376.2 624.2 366.3C614.2 356.2 609.1 343.9 609.1 329ZM703.7 327C703.7 316 700.1 307 692.8 299.8C685.6 292.7 676.4 289.1 665.3 289.1C653.6 289.1 643.7 292.9 635.6 300.6C627.5 308.3 623.4 317.6 623.4 328.6C623.4 339.7 627.1 348.9 634.4 356C641.8 363.2 651.1 366.8 662.5 366.8C673.9 366.8 683.6 362.9 691.6 355.2C699.7 347.4 703.7 338 703.7 327Z" fill="url(#paint8_linear_3821_40)"/>
<path d="M763.7 278.2H777.1L767.1 346.2C767 346.9 766.9 348 766.9 349.6C766.9 355.3 768.8 359.8 772.5 363.1C776.2 366.4 781.4 368 788 368C795.6 368 801.8 366 806.7 362C811.5 358 814.5 352.4 815.6 345.1L825.4 278.2H839L828.2 348.4C826.7 358.5 822.4 366.4 815.2 372.3C808.1 378.2 799.1 381.1 788.4 381.1C777.7 381.1 769.3 378.3 763 372.7C756.7 367.1 753.6 359.6 753.6 350.1C753.6 348.5 753.8 346.6 754.1 344.3L763.7 278.2Z" fill="url(#paint9_linear_3821_40)"/>
<path d="M880.7 273.4L937.9 348.9L948.6 278.1H961.5L946.5 381.5L889.2 306L878.7 377.7H865.4L880.7 273.4Z" fill="url(#paint10_linear_3821_40)"/>
<path d="M1001.9 278.2H1028C1041.7 278.2 1052.9 282.3 1061.6 290.5C1070.3 298.7 1074.7 309.1 1074.7 321.9C1074.7 332.3 1072.4 341.7 1067.8 350.1C1063.2 358.5 1056.5 365.3 1047.8 370.3C1039.1 375.3 1030.2 377.8 1021.3 377.8H987.1L1001.9 278.2ZM1013.5 291.4L1002.6 364.2C1006.5 364.4 1009.1 364.5 1010.5 364.5C1028.2 364.5 1041 360.5 1048.9 352.4C1056.8 344.3 1060.7 334.5 1060.7 322.8C1060.7 314.7 1058.8 308.2 1055.1 303.3C1051.3 298.4 1046.6 295.2 1040.9 293.7C1035.1 292.2 1026 291.4 1013.5 291.4Z" fill="url(#paint11_linear_3821_40)"/>
</g>
<defs>
<linearGradient id="paint0_linear_3821_40" x1="592.559" y1="131.763" x2="808.449" y2="131.763" gradientUnits="userSpaceOnUse">
<stop offset="0.2894" stop-color="#29ABE2"/>
<stop offset="0.5498" stop-color="#1C99D6"/>
<stop offset="1" stop-color="#0071BC"/>
</linearGradient>
<linearGradient id="paint1_linear_3821_40" x1="300.574" y1="530.747" x2="516.464" y2="530.747" gradientUnits="userSpaceOnUse">
<stop stop-color="#0071BC"/>
<stop offset="0.4502" stop-color="#1C99D6"/>
<stop offset="0.7106" stop-color="#29ABE2"/>
</linearGradient>
<linearGradient id="paint2_linear_3821_40" x1="69.8638" y1="272.681" x2="69.8638" y2="384.243" gradientUnits="userSpaceOnUse">
<stop stop-color="#0071BC"/>
<stop offset="0.4502" stop-color="#1C99D6"/>
<stop offset="0.7106" stop-color="#29ABE2"/>
</linearGradient>
<linearGradient id="paint3_linear_3821_40" x1="160.675" y1="272.681" x2="160.675" y2="384.243" gradientUnits="userSpaceOnUse">
<stop stop-color="#0071BC"/>
<stop offset="0.4502" stop-color="#1C99D6"/>
<stop offset="0.7106" stop-color="#29ABE2"/>
</linearGradient>
<linearGradient id="paint4_linear_3821_40" x1="248.743" y1="272.681" x2="248.743" y2="384.243" gradientUnits="userSpaceOnUse">
<stop stop-color="#0071BC"/>
<stop offset="0.4502" stop-color="#1C99D6"/>
<stop offset="0.7106" stop-color="#29ABE2"/>
</linearGradient>
<linearGradient id="paint5_linear_3821_40" x1="333.453" y1="272.681" x2="333.453" y2="384.243" gradientUnits="userSpaceOnUse">
<stop stop-color="#0071BC"/>
<stop offset="0.4502" stop-color="#1C99D6"/>
<stop offset="0.7106" stop-color="#29ABE2"/>
</linearGradient>
<linearGradient id="paint6_linear_3821_40" x1="436.951" y1="272.681" x2="436.951" y2="384.243" gradientUnits="userSpaceOnUse">
<stop stop-color="#0071BC"/>
<stop offset="0.4502" stop-color="#1C99D6"/>
<stop offset="0.7106" stop-color="#29ABE2"/>
</linearGradient>
<linearGradient id="paint7_linear_3821_40" x1="545.371" y1="272.681" x2="545.371" y2="384.243" gradientUnits="userSpaceOnUse">
<stop stop-color="#0071BC"/>
<stop offset="0.4502" stop-color="#1C99D6"/>
<stop offset="0.7106" stop-color="#29ABE2"/>
</linearGradient>
<linearGradient id="paint8_linear_3821_40" x1="663.636" y1="272.681" x2="663.636" y2="384.243" gradientUnits="userSpaceOnUse">
<stop stop-color="#0071BC"/>
<stop offset="0.4502" stop-color="#1C99D6"/>
<stop offset="0.7106" stop-color="#29ABE2"/>
</linearGradient>
<linearGradient id="paint9_linear_3821_40" x1="796.423" y1="272.681" x2="796.423" y2="384.243" gradientUnits="userSpaceOnUse">
<stop stop-color="#0071BC"/>
<stop offset="0.4502" stop-color="#1C99D6"/>
<stop offset="0.7106" stop-color="#29ABE2"/>
</linearGradient>
<linearGradient id="paint10_linear_3821_40" x1="913.523" y1="272.681" x2="913.523" y2="384.243" gradientUnits="userSpaceOnUse">
<stop stop-color="#0071BC"/>
<stop offset="0.4502" stop-color="#1C99D6"/>
<stop offset="0.7106" stop-color="#29ABE2"/>
</linearGradient>
<linearGradient id="paint11_linear_3821_40" x1="1030.93" y1="272.681" x2="1030.93" y2="384.243" gradientUnits="userSpaceOnUse">
<stop stop-color="#0071BC"/>
<stop offset="0.4502" stop-color="#1C99D6"/>
<stop offset="0.7106" stop-color="#29ABE2"/>
</linearGradient>
<clipPath id="clip0_3821_40">
<rect width="1109" height="662.5" fill="white"/>
</clipPath>
</defs>
</svg>
