<svg width="89" height="25" viewBox="0 0 89 25" fill="none" xmlns="http://www.w3.org/2000/svg">
<path d="M2.6763 18.7217C2.14971 18.4925 1.68508 18.1765 1.28859 17.78C0.892101 17.3835 0.576148 16.9189 0.346928 16.3923C0.117708 15.8657 0 15.2896 0 14.6763C0 14.0568 0.117708 13.4868 0.346928 12.9602C0.576148 12.4336 0.892101 11.969 1.28859 11.5725C1.68508 11.176 2.14971 10.8601 2.6763 10.6308C3.20289 10.4016 3.77903 10.2839 4.39235 10.2839H24.4584C24.8983 10.2839 25.2762 10.4388 25.5797 10.7486C25.8895 11.0583 26.0444 11.43 26.0444 11.8699C26.0444 12.3097 25.8895 12.6876 25.5797 12.9912C25.27 13.3009 24.8983 13.4558 24.4584 13.4558H4.32421C3.99586 13.4558 3.6985 13.5735 3.45069 13.8028C3.19669 14.032 3.07279 14.3293 3.07279 14.6763C3.07279 15.0046 3.19669 15.2958 3.45069 15.5374C3.70469 15.779 3.99586 15.9029 4.32421 15.9029H22.6061C23.2256 15.9029 23.8017 16.0206 24.3407 16.2498C24.8797 16.4791 25.3505 16.795 25.747 17.1915C26.1435 17.588 26.4594 18.0588 26.6887 18.5978C26.9179 19.1368 27.0356 19.7191 27.0356 20.3324C27.0356 20.9519 26.9179 21.5219 26.6887 22.0485C26.4594 22.5751 26.1435 23.0397 25.747 23.4362C25.3505 23.8327 24.8797 24.1424 24.3407 24.3593C23.8017 24.5823 23.2194 24.6876 22.6061 24.6876H2.57718C2.13732 24.6876 1.75942 24.5327 1.45586 24.223C1.1461 23.9132 0.991222 23.5415 0.991222 23.1017C0.991222 22.6618 1.1461 22.2839 1.45586 21.9803C1.76561 21.6706 2.13732 21.5157 2.57718 21.5157H22.7423C23.0707 21.5157 23.3619 21.398 23.6035 21.1688C23.8451 20.9396 23.969 20.6546 23.969 20.3262C23.969 19.9731 23.8451 19.6757 23.6035 19.4341C23.3619 19.1925 23.0769 19.0686 22.7423 19.0686H4.39855C3.77903 19.0686 3.20908 18.9571 2.6763 18.7217Z" fill="#1D5053"/>
<path d="M33.0574 24.2292C32.7476 24.5389 32.3759 24.6938 31.9361 24.6938C31.4962 24.6938 31.1183 24.5389 30.8147 24.2292C30.505 23.9194 30.3501 23.5477 30.3501 23.1079V11.8637C30.3501 11.4238 30.505 11.0459 30.8147 10.7424C31.1245 10.4326 31.4962 10.2777 31.9361 10.2777C32.1591 10.2777 32.3573 10.3211 32.5308 10.4078C32.7043 10.4946 32.8839 10.6061 33.0574 10.7362C34.4699 11.969 35.6841 12.9416 36.7125 13.6479C37.7347 14.3541 38.6764 14.8807 39.5251 15.2338C40.3738 15.587 41.173 15.81 41.9226 15.8967C42.6722 15.9834 43.4776 16.0268 44.3387 16.0268C45.1998 16.0268 45.999 15.9896 46.7362 15.9091C47.4735 15.8348 48.254 15.6179 49.0842 15.2648C49.9081 14.9117 50.8374 14.3851 51.8596 13.6789C52.8818 12.9726 54.1146 11.9938 55.5457 10.7362C55.9174 10.4264 56.2953 10.2715 56.667 10.2715C57.1069 10.2715 57.4848 10.4264 57.7884 10.7362C58.0981 11.0459 58.253 11.4176 58.253 11.8575V23.0955C58.253 23.5353 58.0981 23.9132 57.7884 24.2168C57.4786 24.5265 57.1069 24.6814 56.667 24.6814C56.2272 24.6814 55.8493 24.5265 55.5457 24.2168C55.236 23.907 55.0811 23.5353 55.0811 23.0955V15.271C54.0899 16.064 53.1358 16.7269 52.2189 17.2534C51.3021 17.78 50.41 18.2075 49.5426 18.5234C48.6691 18.8456 47.808 19.0686 46.9469 19.1987C46.0857 19.3288 45.2184 19.397 44.3325 19.397C43.3847 19.397 42.474 19.3288 41.6067 19.1987C40.7331 19.0686 39.8658 18.8394 38.9923 18.5234C38.1188 18.2013 37.2391 17.78 36.347 17.2534C35.4549 16.7269 34.5132 16.064 33.522 15.271V23.1079C33.522 23.5477 33.3671 23.9194 33.0574 24.2292Z" fill="#1D5053"/>
<path d="M68.3635 13.4496C67.5891 13.4496 66.9696 13.5859 66.4987 13.8647C66.0217 14.1435 65.65 14.478 65.3774 14.8745C65.0986 15.271 64.9128 15.7047 64.8137 16.1817C64.7145 16.6587 64.665 17.0924 64.665 17.4889C64.665 17.8853 64.7145 18.319 64.8137 18.796C64.9128 19.2731 65.0986 19.7067 65.3774 20.1032C65.65 20.4997 66.0279 20.8342 66.4987 21.113C66.9696 21.3918 67.5953 21.5281 68.3635 21.5281H86.5772C87.017 21.5281 87.3949 21.683 87.6985 21.9927C88.0083 22.3025 88.1631 22.6742 88.1631 23.114C88.1631 23.5539 88.0083 23.9318 87.6985 24.2354C87.3887 24.5451 87.017 24.7 86.5772 24.7H67.3041C66.3996 24.7 65.5943 24.477 64.888 24.0371C64.1818 23.5973 63.5808 23.0273 63.0852 22.3335C62.5896 21.6396 62.2117 20.8652 61.9453 20.0041C61.6789 19.143 61.5488 18.3066 61.5488 17.4889C61.5488 16.6525 61.6851 15.81 61.9639 14.9612C62.2365 14.1125 62.6392 13.3443 63.172 12.6443C63.6985 11.9504 64.3428 11.3805 65.0924 10.9406C65.8421 10.5007 66.6908 10.2777 67.6386 10.2777H86.5834C87.0232 10.2777 87.4011 10.4326 87.7047 10.7424C88.0145 11.0521 88.1693 11.4238 88.1693 11.8637C88.1693 12.3035 88.0145 12.6814 87.7047 12.985C87.3949 13.2948 87.0232 13.4496 86.5834 13.4496H68.3635ZM86.317 16.3613C86.6267 16.6711 86.7816 17.0428 86.7816 17.4827C86.7816 17.9225 86.6267 18.3004 86.317 18.604C86.0072 18.9137 85.6355 19.0686 85.1957 19.0686H68.7352C68.2953 19.0686 67.9174 18.9137 67.6139 18.604C67.3041 18.2942 67.1492 17.9225 67.1492 17.4827C67.1492 17.0428 67.3041 16.6649 67.6139 16.3613C67.9236 16.0516 68.2953 15.8967 68.7352 15.8967H85.1957C85.6355 15.8967 86.0072 16.0516 86.317 16.3613Z" fill="#1D5053"/>
<path d="M8.159 0C8.31388 0 8.39441 0.0681469 8.39441 0.223025V1.22044C8.39441 1.37532 8.31388 1.45586 8.159 1.45586H4.9747V6.8828C4.9747 7.03768 4.90655 7.10582 4.75167 7.10582H3.64274C3.48786 7.10582 3.41972 7.03768 3.41972 6.8828V1.45586H0.235416C0.0805379 1.45586 0 1.37532 0 1.22044V0.223025C0 0.0681469 0.0805379 0 0.235416 0H8.159Z" fill="black"/>
<path d="M19.0067 0C20.5617 0 21.1874 0.718637 21.1874 2.08776V2.66391C21.1874 3.8224 20.7414 4.49767 19.6758 4.69592L21.4105 6.84563C21.4724 6.91377 21.46 7.09963 21.2804 7.09963H19.9732C19.7997 7.09963 19.7502 7.05626 19.6882 6.96953L18.0837 4.85699H14.8064V6.8766C14.8064 7.03148 14.7383 7.09963 14.5834 7.09963H13.4869C13.332 7.09963 13.2515 7.03148 13.2515 6.8766V0.303563C13.2515 0.0991237 13.3506 0 13.555 0H19.0067ZM14.8064 3.62416H18.6908C19.3785 3.62416 19.6325 3.32679 19.6325 2.71967V2.2922C19.6325 1.68508 19.3785 1.38771 18.6908 1.38771H14.9365C14.8436 1.38771 14.8064 1.43108 14.8064 1.51162V3.62416Z" fill="black"/>
<path d="M30.9011 0C31.4215 0 31.7313 0.161075 32.0658 0.768199L35.4236 6.86421C35.4917 6.99431 35.4669 7.09963 35.2997 7.09963H34.0111C33.881 7.09963 33.8314 7.06865 33.7756 6.96953L33.057 5.66236H28.2868L27.5867 6.96953C27.5371 7.06865 27.4752 7.09963 27.3513 7.09963H26.0317C25.8583 7.09963 25.8273 7.00051 25.9016 6.86421L29.2284 0.768199C29.563 0.161075 29.8665 0 30.294 0H30.9011ZM28.9311 4.48528H32.4189L30.8082 1.51162C30.7772 1.46205 30.7462 1.44347 30.6967 1.44347H30.6347C30.5852 1.44347 30.5542 1.46205 30.5232 1.51162L28.9311 4.48528Z" fill="black"/>
<path d="M45.299 0C47.4983 0 48.4028 0.87971 48.4028 2.86215V4.24367C48.4028 6.21992 47.4983 7.10582 45.299 7.10582H40.5536C40.3491 7.10582 40.25 7.0067 40.25 6.80226V0.303563C40.25 0.0991237 40.3491 0 40.5536 0H45.299ZM41.7988 5.56323C41.7988 5.65616 41.8422 5.69333 41.9289 5.69333H45.2557C46.4513 5.69333 46.8478 5.30923 46.8478 4.11357V2.99845C46.8478 1.80279 46.4513 1.41869 45.2557 1.41869H41.9289C41.836 1.41869 41.7988 1.46205 41.7988 1.56118V5.56323Z" fill="black"/>
<path d="M60.8547 0C61.0096 0 61.0901 0.0681469 61.0901 0.223025V1.18947C61.0901 1.34435 61.0096 1.41249 60.8547 1.41249H56.419C55.3658 1.41249 55.0684 1.72844 55.0684 2.79401V2.89313H60.7989C60.9538 2.89313 61.022 2.96128 61.022 3.11616V3.91533C61.022 4.07021 60.9538 4.13835 60.7989 4.13835H55.0684V4.31182C55.0684 5.37738 55.3658 5.69333 56.419 5.69333H60.8547C61.0096 5.69333 61.0901 5.76148 61.0901 5.91636V6.8828C61.0901 7.03768 61.0096 7.10582 60.8547 7.10582H56.388C54.3374 7.10582 53.5444 6.3748 53.5444 4.42952V2.6825C53.5444 0.737222 54.3374 0.00619552 56.388 0.00619552H60.8547V0Z" fill="black"/>
<path d="M71.9628 0C73.5178 0 74.1435 0.718637 74.1435 2.08776V2.66391C74.1435 3.8224 73.6974 4.49767 72.6319 4.69592L74.3665 6.84563C74.4285 6.91377 74.4161 7.09963 74.2364 7.09963H72.9292C72.7558 7.09963 72.7062 7.05626 72.6443 6.96953L71.0397 4.85699H67.7625V6.8766C67.7625 7.03148 67.6944 7.09963 67.5395 7.09963H66.4429C66.2881 7.09963 66.2075 7.03148 66.2075 6.8766V0.303563C66.2075 0.0991237 66.3066 0 66.5111 0H71.9628ZM67.7625 3.62416H71.6469C72.3345 3.62416 72.5885 3.32679 72.5885 2.71967V2.2922C72.5885 1.68508 72.3345 1.38771 71.6469 1.38771H67.8926C67.7997 1.38771 67.7625 1.43108 67.7625 1.51162V3.62416Z" fill="black"/>
<path d="M86.2921 0C86.447 0 86.5152 0.0681469 86.5152 0.223025V1.18947C86.5152 1.34435 86.447 1.41249 86.2921 1.41249H81.2059C80.8218 1.41249 80.6669 1.62313 80.6669 1.98244V2.32937C80.6669 2.70728 80.8404 2.89933 81.1935 2.89933H84.9974C86.162 2.89933 86.7754 3.53123 86.7754 4.64635V5.45792C86.7754 6.44294 86.2054 7.11202 84.9788 7.11202H79.3598C79.2049 7.11202 79.1244 7.04387 79.1244 6.88899V5.92255C79.1244 5.76767 79.2049 5.69953 79.3598 5.69953H84.6876C85.0717 5.69953 85.2266 5.48889 85.2266 5.12957V4.7145C85.2266 4.3366 85.0531 4.14455 84.7 4.14455H80.8962C79.7315 4.14455 79.1182 3.51264 79.1182 2.39752V1.6541C79.1182 0.669076 79.6881 0 80.9148 0H86.2921Z" fill="black"/>
</svg>
