<svg width="854" height="162" viewBox="0 0 854 162" fill="none" xmlns="http://www.w3.org/2000/svg">
<path d="M183.262 61.3238C183.262 88.6206 161.133 110.749 133.837 110.749C106.54 110.749 84.4115 88.6206 84.4115 61.3238C84.4115 34.0271 106.54 11.8987 133.837 11.8987C161.133 11.8987 183.262 34.0271 183.262 61.3238Z" fill="#FF7000"/>
<path d="M3.85651 30.2565C2.14331 27.2947 4.28061 23.5894 7.70222 23.5894L39.6614 23.5894L86.6749 104.867C88.3881 107.829 86.2508 111.534 82.8292 111.534L50.87 111.534L3.85651 30.2565Z" fill="#FF7000"/>
<path d="M75.0877 62.435C73.8029 60.2137 75.4061 57.4352 77.9723 57.4352L109.29 57.4354L155.983 138.158C157.268 140.379 155.665 143.158 153.099 143.158L121.78 143.159L75.0877 62.435Z" fill="white" stroke="#FF7000" stroke-width="2.22135"/>
<path d="M187.884 29.6711C189.169 27.4498 187.566 24.6713 185 24.6713L153.682 24.6715L104.097 110.394L141.192 110.395L187.884 29.6711Z" fill="white" stroke="#FF7000" stroke-width="2.22135"/>
<path d="M314.021 23.7563H323.924L316.904 38.2979L299.103 109H285.815L269.268 48.828L254.475 109H240.937L219.626 31.7793L215.614 23.7563H234.669L234.919 31.1525L254.851 103.234L268.641 46.9476L264.504 31.7793L260.493 23.7563H279.547L279.798 31.1525L299.604 103.108L315.901 38.2979L314.021 23.7563ZM364.036 23.7563C382.589 23.7563 393.119 33.1582 393.119 46.8223C393.119 60.361 382.463 70.6403 364.412 70.6403H348.742V102.356L351.75 109H330.941L333.95 102.356V30.4003L330.941 23.7563H364.036ZM361.528 69.7628C371.808 69.7628 377.324 62.3667 377.324 47.6998C377.324 32.4061 371.808 24.6338 361.027 24.6338H348.742V69.7628H361.528Z" fill="black"/>
<path d="M466.514 110.254C443.197 110.254 425.397 92.202 425.397 66.7542C425.397 41.0558 442.571 22.5027 466.89 22.5027C490.207 22.5027 508.008 40.5543 508.008 66.0021C508.008 91.7005 490.834 110.254 466.514 110.254ZM466.639 109.376C483.688 109.376 491.711 97.091 491.711 66.3782C491.711 36.0414 483.688 23.3803 466.765 23.3803C449.591 23.3803 441.693 35.6654 441.693 66.3782C441.693 96.7149 449.716 109.376 466.639 109.376ZM541.292 64.7485H536.779V102.356L539.788 109H518.979L521.987 102.356V30.4003L518.979 23.7563H553.828C571.378 23.7563 581.407 31.9046 581.407 43.8137C581.407 54.7198 572.883 63.1188 558.466 64.4978L590.683 109H573.133L541.292 64.7485ZM536.779 24.6338V63.871H551.446C560.723 63.871 565.486 56.9763 565.486 44.3151C565.486 31.1525 560.597 24.6338 550.945 24.6338H536.779ZM599.724 30.4003L596.715 23.7563H617.525L614.516 30.4003V102.356L617.525 109H596.715L599.724 102.356V30.4003ZM692.416 92.4527H693.168L686.148 109H631.115L634.124 102.356V30.4003L631.115 23.7563H684.518L689.783 39.05H689.156L670.353 24.6338H648.916V62.116H682.262V66.5035H648.916V108.122H671.23L692.416 92.4527ZM757.303 23.7563H767.457L762.944 37.5457V109H749.531L706.282 32.9075H705.029V95.2106L709.542 109H699.388L704.026 95.2106V32.6568L698.636 23.7563H718.693L761.942 99.8488V37.5457L757.303 23.7563ZM848.072 23.7563L852.208 39.05H851.582L832.778 24.6338H820.117V102.356L823 109H802.19L805.199 102.356V24.6338H792.538L773.609 39.05H772.982L777.244 23.7563H848.072Z" fill="#FF7000"/>
</svg>
