<svg width="809" height="240" viewBox="0 0 809 240" fill="none" xmlns="http://www.w3.org/2000/svg">
<path d="M176.6 34.3482L0.0557861 146.832V239.656H176.6V34.3482Z" fill="#6324FC"/>
<path d="M0 5.13827V112.428L176.6 0L85.4516 37.1966C53.0024 50.4891 15.7499 36.5264 0 5.13827Z" fill="#6324FC"/>
<path d="M243.1 83.5C240.9 81.4 239.7 78.9 239.7 75.8C239.7 72.7 240.8 70.2 243.1 68.1C245.3 66 248.2 65 251.8 65C255.4 65 258.3 66 260.5 68C262.7 70 263.9 72.5 263.9 75.5C263.9 78.7 262.8 81.4 260.5 83.5C258.3 85.6 255.4 86.7 251.8 86.7C248.2 86.6 245.3 85.5 243.1 83.5ZM242.1 95.9H261.5V162.8H242.1V95.9Z" fill="#6324FC"/>
<path d="M360.7 75.8V162.8H344.2L300.8 110V162.8H280.9V75.8H297.5L340.8 128.6V75.8H360.7Z" fill="#6324FC"/>
<path d="M381.2 161C376.3 158.8 372.2 155.7 369.1 151.6L380.3 138.2C385 144.6 390.4 147.8 396.5 147.8C404.7 147.8 408.8 143 408.8 133.4V92H378.2V75.8H428.8V132.3C428.8 143 426.1 151 420.8 156.4C415.5 161.7 407.7 164.4 397.4 164.4C391.5 164.3 386.1 163.2 381.2 161Z" fill="#6324FC"/>
<path d="M504.1 144.2H463.7L456 162.9H435.4L474.2 75.8H494.1L533 162.9H511.9L504.1 144.2ZM497.8 128.9L484 95.5L470.2 128.8H497.8V128.9Z" fill="#6324FC"/>
<path d="M602.3 144.2H561.9L554.2 162.9H533.6L572.4 75.8H592.3L631.2 162.9H610L602.3 144.2ZM595.9 128.9L582.1 95.6L568.3 128.9H595.9Z" fill="#6324FC"/>
<path d="M710.7 146.4V162.8H634.6V149.8L682.4 92.2H635.6V75.8H708.8V88.8L661.2 146.4H710.7Z" fill="#6324FC"/>
<path d="M803.5 75.8V162.8H783.3V127.1H743.8V162.8H723.6V75.8H743.8V110.1H783.3V75.8H803.5Z" fill="#6324FC"/>
<path d="M254.8 217H240.1L237.1 223.9H233L245.5 196.2H249.4L262 224H257.8L254.8 217ZM253.4 213.9L247.4 200.3L241.4 213.9H253.4Z" fill="#6324FC"/>
<path d="M286.8 222.4C284.6 221.2 282.8 219.5 281.6 217.3C280.3 215.2 279.7 212.7 279.7 210C279.7 207.3 280.3 204.9 281.6 202.7C282.9 200.6 284.6 198.9 286.9 197.6C289.1 196.4 291.6 195.8 294.4 195.8C296.6 195.8 298.5 196.2 300.3 196.9C302.1 197.6 303.6 198.7 304.9 200.1L302.3 202.6C300.2 200.4 297.6 199.3 294.5 199.3C292.4 199.3 290.6 199.8 288.9 200.7C287.2 201.6 285.9 202.9 285 204.5C284.1 206.1 283.6 207.9 283.6 209.9C283.6 211.9 284.1 213.7 285 215.3C285.9 216.9 287.2 218.2 288.9 219.1C290.6 220 292.4 220.5 294.5 220.5C297.6 220.5 300.2 219.4 302.3 217.2L304.9 219.7C303.6 221.1 302.1 222.2 300.3 222.9C298.5 223.6 296.5 224 294.4 224C291.5 224.3 289 223.7 286.8 222.4Z" fill="#6324FC"/>
<path d="M350.5 196.3V224H346.6V211.6H330.7V224H326.7V196.3H330.7V208.2H346.6V196.3H350.5Z" fill="#6324FC"/>
<path d="M379 196.3H375V224H379V196.3Z" fill="#6324FC"/>
<path d="M423.6 220.5V224H403.5V196.3H423V199.7H407.4V208.2H421.3V211.6H407.4V220.5H423.6Z" fill="#6324FC"/>
<path d="M469.8 196.3L457.7 224H453.8L441.6 196.3H445.9L455.8 219L465.9 196.3H469.8Z" fill="#6324FC"/>
<path d="M493.5 196.3H489.5V224H493.5V196.3Z" fill="#6324FC"/>
<path d="M541.8 196.3V224H538.6L521.9 203.3V224H518V196.3H521.2L537.8 216.9V196.3H541.8Z" fill="#6324FC"/>
<path d="M585.5 210H589.3V220.8C587.9 221.9 586.3 222.8 584.5 223.4C582.7 224 580.8 224.3 578.8 224.3C576 224.3 573.5 223.7 571.3 222.5C569.1 221.3 567.3 219.6 566 217.4C564.7 215.3 564.1 212.8 564.1 210.1C564.1 207.4 564.7 205 566 202.8C567.3 200.6 569 199 571.3 197.7C573.6 196.5 576.1 195.9 578.9 195.9C581.1 195.9 583.1 196.3 584.9 197C586.7 197.7 588.2 198.8 589.5 200.2L587 202.7C584.8 200.6 582.1 199.5 579 199.5C576.9 199.5 575 200 573.3 200.9C571.6 201.8 570.3 203.1 569.4 204.7C568.5 206.3 568 208.1 568 210.2C568 212.2 568.5 214 569.4 215.6C570.3 217.2 571.7 218.5 573.3 219.4C575 220.3 576.9 220.8 578.9 220.8C581.4 220.8 583.5 220.2 585.4 219V210H585.5Z" fill="#6324FC"/>
<path d="M665.5 224V203.8L655.5 220.6H653.7L643.7 203.9V224H639.9V196.3H643.1L654.6 215.7L666 196.3H669.3V224H665.5Z" fill="#6324FC"/>
<path d="M698.8 222.4C696.6 221.2 694.8 219.5 693.5 217.3C692.2 215.1 691.6 212.7 691.6 210.1C691.6 207.4 692.2 205 693.5 202.9C694.8 200.7 696.5 199 698.8 197.8C701 196.6 703.6 196 706.3 196C709.1 196 711.6 196.6 713.8 197.8C716 199 717.8 200.7 719.1 202.9C720.4 205 721 207.5 721 210.2C721 212.9 720.4 215.3 719.1 217.5C717.8 219.6 716.1 221.3 713.8 222.6C711.6 223.8 709.1 224.4 706.3 224.4C703.5 224.3 701 223.7 698.8 222.4ZM711.8 219.4C713.4 218.5 714.7 217.2 715.6 215.6C716.5 214 717 212.2 717 210.2C717 208.2 716.5 206.4 715.6 204.8C714.7 203.2 713.4 201.9 711.8 201C710.2 200.1 708.4 199.6 706.3 199.6C704.3 199.6 702.4 200.1 700.8 201C699.2 201.9 697.9 203.2 696.9 204.8C696 206.4 695.5 208.2 695.5 210.2C695.5 212.2 696 214 696.9 215.6C697.8 217.2 699.1 218.5 700.8 219.4C702.4 220.3 704.3 220.8 706.3 220.8C708.3 220.8 710.2 220.3 711.8 219.4Z" fill="#6324FC"/>
<path d="M761.7 224L755.7 215.5C755 215.6 754.4 215.6 754 215.6H747.2V224H743.2V196.3H754C757.6 196.3 760.4 197.2 762.5 198.9C764.6 200.6 765.6 203 765.6 206C765.6 208.1 765.1 210 764 211.5C762.9 213 761.4 214.1 759.5 214.8L766.1 224.1H761.7V224ZM759.6 210.6C760.9 209.5 761.6 208 761.6 206C761.6 204 760.9 202.5 759.6 201.4C758.3 200.3 756.4 199.8 753.9 199.8H747.2V212.3H753.9C756.4 212.2 758.3 211.6 759.6 210.6Z" fill="#6324FC"/>
<path d="M808.2 220.5V224H788.2V196.3H807.7V199.7H792.1V208.2H806V211.6H792.1V220.5H808.2Z" fill="#6324FC"/>
</svg>
